{"glyphs":{"0":{"ha":931,"x_min":63,"x_max":868,"o":"m 465 -21 q 308 13 382 -21 q 181 110 235 46 q 94 269 126 175 q 63 486 63 364 q 94 703 63 608 q 181 862 126 797 q 308 960 235 926 q 465 993 382 993 q 622 960 549 993 q 750 862 696 926 q 836 703 804 797 q 868 486 868 608 q 836 269 868 364 q 750 110 804 175 q 622 13 696 46 q 465 -21 549 -21 m 465 7 q 523 26 494 7 q 574 99 551 46 q 611 244 597 151 q 625 486 625 338 q 611 728 625 635 q 574 874 597 821 q 523 946 551 926 q 465 965 494 965 q 408 946 436 965 q 356 874 379 926 q 319 728 333 821 q 306 486 306 635 q 319 244 306 338 q 356 99 333 151 q 408 26 379 46 q 465 7 436 7 z "},"1":{"ha":576,"x_min":21,"x_max":521,"o":"m 424 49 l 521 21 l 521 0 l 97 0 l 97 21 l 194 49 l 194 811 l 49 708 l 21 743 l 274 972 l 424 972 l 424 49 z "},"2":{"ha":799,"x_min":42,"x_max":729,"o":"m 721 708 q 681 567 721 625 q 578 467 640 510 q 442 389 517 424 q 297 315 367 354 q 170 228 226 276 q 90 111 114 181 l 604 111 q 623 184 610 153 q 651 236 636 215 q 688 278 668 261 l 729 278 l 729 0 l 42 0 l 42 63 q 74 213 42 147 q 156 332 107 278 q 263 434 206 386 q 370 531 321 482 q 452 637 419 581 q 485 764 485 693 q 439 908 485 858 q 325 958 393 958 q 278 955 299 958 q 243 947 258 951 q 214 938 226 942 l 214 715 q 196 711 204 713 q 178 709 188 710 q 158 708 169 708 q 83 737 111 708 q 54 813 54 765 q 72 876 54 843 q 128 934 90 908 q 222 976 165 960 q 353 993 278 993 q 519 973 449 993 q 633 916 589 953 q 699 826 678 879 q 721 708 721 774 z "},"3":{"ha":813,"x_min":35,"x_max":743,"o":"m 410 507 q 576 475 503 503 q 638 444 607 463 q 691 398 668 425 q 728 334 714 371 q 743 250 743 297 q 720 143 743 193 q 648 57 697 93 q 521 0 599 21 q 333 -21 443 -21 q 202 -4 258 -21 q 108 38 146 13 q 53 96 71 64 q 35 160 35 128 q 63 235 35 207 q 139 264 92 264 q 159 263 150 264 q 176 260 168 261 q 194 257 185 258 l 194 35 q 224 24 207 29 q 259 17 239 19 q 306 14 279 14 q 453 72 400 14 q 507 250 507 129 q 455 434 507 375 q 319 493 403 493 l 250 493 l 250 528 l 319 528 q 375 541 349 528 q 422 581 401 554 q 453 648 442 607 q 465 743 465 689 q 420 906 465 853 q 313 958 375 958 q 274 955 292 958 q 243 947 256 951 q 215 938 228 942 l 215 715 q 197 711 206 713 q 180 709 189 710 q 160 708 171 708 q 84 737 113 708 q 56 813 56 765 q 74 876 56 843 q 128 934 92 908 q 217 976 164 960 q 340 993 269 993 q 499 972 432 993 q 612 917 567 951 q 679 838 657 883 q 701 743 701 793 q 689 667 701 700 q 656 610 676 635 q 608 570 635 586 q 556 543 582 554 q 410 514 490 518 l 410 507 z "},"4":{"ha":833,"x_min":0,"x_max":799,"o":"m 750 21 l 750 0 l 326 0 l 326 21 l 424 49 l 424 257 l 28 257 l 0 299 l 521 986 l 653 986 l 653 319 l 799 319 l 799 257 l 653 257 l 653 49 l 750 21 m 424 319 l 424 778 l 76 319 l 424 319 z "},"5":{"ha":792,"x_min":49,"x_max":736,"o":"m 319 14 q 392 29 358 14 q 449 78 425 44 q 486 167 472 113 q 500 299 500 221 q 448 513 500 450 q 306 576 396 576 q 231 562 265 576 q 169 531 197 547 q 111 486 138 511 l 83 507 l 139 972 l 549 972 q 567 1045 554 1014 q 596 1097 581 1076 q 632 1139 613 1122 l 674 1139 l 674 868 l 169 868 l 132 549 q 189 579 157 565 q 253 601 217 590 q 333 611 289 611 q 513 589 438 611 q 639 526 589 567 q 713 427 689 485 q 736 299 736 369 q 640 66 736 153 q 347 -21 544 -21 q 216 -4 272 -21 q 122 38 160 13 q 67 96 85 64 q 49 160 49 128 q 77 235 49 207 q 153 264 106 264 q 173 263 164 264 q 190 260 182 261 q 208 257 199 258 l 208 35 q 238 24 221 29 q 273 17 253 19 q 319 14 293 14 z "},"6":{"ha":861,"x_min":69,"x_max":799,"o":"m 444 7 q 483 21 463 7 q 522 67 504 35 q 551 153 539 100 q 563 285 563 207 q 551 416 563 363 q 521 502 539 469 q 481 549 503 535 q 438 563 458 563 q 388 550 411 563 q 349 510 365 538 q 322 440 332 483 q 313 333 313 396 q 324 174 313 238 q 355 74 336 111 q 397 22 374 36 q 444 7 421 7 m 507 958 q 422 941 460 958 q 359 874 385 924 q 319 738 333 825 q 306 514 306 651 q 343 556 319 538 q 393 584 363 571 q 465 597 424 597 q 605 575 543 597 q 710 513 667 553 q 776 419 753 474 q 799 299 799 364 q 708 66 799 153 q 444 -21 617 -21 q 292 8 361 -21 q 174 99 224 38 q 97 257 124 161 q 69 486 69 353 q 99 709 69 614 q 181 867 128 804 q 309 962 233 931 q 479 993 385 993 q 595 976 544 993 q 680 934 646 960 q 732 876 714 908 q 750 813 750 843 q 722 737 750 765 q 646 708 693 708 q 624 709 635 708 q 607 711 614 710 q 590 715 597 713 l 590 938 q 564 947 578 942 q 538 955 553 951 q 507 958 522 958 z "},"7":{"ha":736,"x_min":42,"x_max":701,"o":"m 701 972 l 701 910 q 683 782 701 842 q 635 662 664 722 q 573 536 606 601 q 511 392 540 471 q 463 217 482 314 q 444 0 444 121 l 201 0 q 229 210 201 118 q 300 375 257 301 q 397 510 343 449 q 501 628 450 571 q 594 742 551 685 q 660 868 638 800 l 167 868 q 148 795 161 826 q 119 743 135 764 q 83 701 103 718 l 42 701 l 42 972 l 701 972 z "},"8":{"ha":854,"x_min":56,"x_max":813,"o":"m 743 771 q 727 704 743 738 q 685 643 711 671 q 626 594 660 615 q 556 563 592 572 q 744 434 676 510 q 813 243 813 358 q 789 143 813 190 q 715 59 765 96 q 590 1 665 22 q 410 -21 514 -21 q 251 -1 318 -21 q 141 52 185 18 q 76 131 97 86 q 56 229 56 176 q 74 306 56 268 q 123 378 92 344 q 196 438 154 411 q 285 479 238 464 q 208 529 243 503 q 149 588 174 556 q 111 658 125 619 q 97 743 97 696 q 118 840 97 794 q 183 920 139 886 q 293 974 226 954 q 451 993 360 993 q 574 974 519 993 q 665 923 628 954 q 723 852 703 892 q 743 771 743 813 m 583 201 q 517 337 583 269 q 340 451 450 404 q 220 372 267 425 q 174 229 174 318 q 191 146 174 185 q 238 78 208 107 q 308 31 268 49 q 396 14 349 14 q 534 63 485 14 q 583 201 583 113 m 326 785 q 514 590 326 674 q 597 654 561 611 q 632 771 632 697 q 617 844 632 810 q 580 903 603 878 q 526 944 557 929 q 465 958 496 958 q 367 913 407 958 q 326 785 326 868 z "},"9":{"ha":861,"x_min":63,"x_max":792,"o":"m 417 965 q 378 951 399 965 q 340 905 357 938 q 310 819 322 872 q 299 688 299 765 q 310 556 299 610 q 340 470 322 503 q 381 424 358 438 q 424 410 403 410 q 473 422 450 410 q 513 462 496 435 q 539 533 529 489 q 549 639 549 576 q 537 798 549 735 q 506 899 525 861 q 464 951 488 936 q 417 965 440 965 m 354 14 q 438 31 401 14 q 501 98 475 49 q 542 234 528 147 q 556 458 556 321 q 517 417 540 435 q 467 388 497 401 q 396 375 438 375 q 256 397 318 375 q 151 459 194 419 q 85 553 108 499 q 63 674 63 608 q 153 906 63 819 q 417 993 244 993 q 569 964 500 993 q 688 873 638 935 q 765 715 738 811 q 792 486 792 619 q 763 263 792 358 q 681 105 733 168 q 551 10 628 42 q 382 -21 475 -21 q 266 -4 317 -21 q 181 38 215 13 q 129 96 147 64 q 111 160 111 128 q 140 235 111 207 q 215 264 168 264 q 235 263 226 264 q 253 260 244 261 q 271 257 261 258 l 271 35 q 297 24 283 29 q 354 14 324 14 z "}," ":{"ha":389,"x_min":0,"x_max":0,"o":""},"m":{"ha":1319,"x_min":56,"x_max":1292,"o":"m 986 486 q 978 570 986 536 q 956 626 969 604 q 927 657 943 647 q 896 667 911 667 q 849 649 869 667 q 814 611 829 632 q 785 556 797 586 l 785 42 l 868 21 l 868 0 l 479 0 l 479 21 l 563 42 l 563 486 q 554 570 563 536 q 533 626 546 604 q 503 657 519 647 q 472 667 488 667 q 426 649 446 667 q 390 611 406 632 q 361 556 374 586 l 361 42 l 444 21 l 444 0 l 56 0 l 56 21 l 139 42 l 139 653 l 56 674 l 56 694 l 181 694 q 260 678 229 694 q 310 642 292 661 q 340 590 331 618 q 385 653 358 625 q 443 696 408 676 q 528 715 478 715 q 672 678 611 715 q 764 583 732 642 q 808 649 782 619 q 867 694 832 674 q 951 715 901 715 q 1056 697 1008 715 q 1137 648 1103 679 q 1190 575 1171 617 q 1208 486 1208 533 l 1208 42 l 1292 21 l 1292 0 l 1111 0 q 986 125 986 0 l 986 486 z "},"o":{"ha":847,"x_min":56,"x_max":792,"o":"m 424 7 q 471 22 447 7 q 513 76 494 38 q 544 180 532 114 q 556 347 556 246 q 544 515 556 449 q 513 619 532 581 q 471 672 494 657 q 424 688 447 688 q 376 672 400 688 q 334 619 353 657 q 303 515 315 581 q 292 347 292 449 q 303 180 292 246 q 334 76 315 114 q 376 22 353 38 q 424 7 400 7 m 424 715 q 578 690 510 715 q 694 617 646 665 q 767 501 742 569 q 792 347 792 433 q 767 193 792 261 q 694 77 742 125 q 578 4 646 29 q 424 -21 510 -21 q 269 4 338 -21 q 153 77 201 29 q 81 193 106 125 q 56 347 56 261 q 81 501 56 433 q 153 617 106 569 q 269 690 201 665 q 424 715 338 715 z "},"b":{"ha":854,"x_min":28,"x_max":799,"o":"m 333 139 q 364 83 346 108 q 403 45 379 63 q 458 28 426 28 q 495 40 476 28 q 528 88 514 53 q 553 186 543 124 q 563 347 563 249 q 553 513 563 449 q 526 612 543 576 q 487 660 510 647 q 438 674 464 674 q 398 665 417 674 q 364 646 379 657 q 333 618 347 633 l 333 139 m 208 972 q 333 847 333 972 l 333 660 q 376 688 351 675 q 427 707 397 699 q 493 715 457 715 q 617 692 561 715 q 714 622 674 668 q 776 508 754 576 q 799 347 799 439 q 776 187 799 256 q 716 72 754 118 q 626 3 678 26 q 514 -21 574 -21 q 420 -1 458 -21 q 358 42 382 18 q 313 104 331 68 q 279 49 303 74 q 222 10 260 28 q 125 -7 185 -7 l 111 -7 l 111 931 l 28 951 l 28 972 l 208 972 z "},"c":{"ha":736,"x_min":56,"x_max":694,"o":"m 458 688 q 392 672 422 688 q 339 619 361 657 q 304 515 317 581 q 292 347 292 449 q 304 184 292 249 q 339 82 317 119 q 392 29 361 44 q 458 14 422 14 q 537 29 500 14 q 601 70 574 44 q 644 128 628 96 q 660 194 660 161 l 694 194 q 676 114 694 153 q 622 45 657 75 q 539 -3 588 15 q 431 -21 490 -21 q 154 77 253 -21 q 56 347 56 175 q 154 617 56 519 q 431 715 253 715 q 547 702 499 715 q 627 667 596 689 q 673 619 658 646 q 688 563 688 592 q 659 487 688 515 q 583 458 631 458 q 562 459 572 458 q 544 461 551 460 q 528 465 535 463 l 528 674 q 508 681 519 676 q 486 685 499 683 q 458 688 474 688 z "},"d":{"ha":861,"x_min":56,"x_max":826,"o":"m 521 618 q 489 646 506 633 q 456 665 474 657 q 417 674 438 674 q 367 660 390 674 q 328 612 344 647 q 301 513 311 576 q 292 347 292 449 q 301 186 292 249 q 326 88 311 124 q 359 40 340 53 q 396 28 378 28 q 451 45 428 28 q 489 83 474 63 q 521 139 507 108 l 521 618 m 618 972 q 743 847 743 972 l 743 42 l 826 21 l 826 0 l 701 0 q 621 16 651 0 q 572 51 590 32 q 542 104 551 75 q 496 42 524 68 q 433 -1 472 18 q 340 -21 394 -21 q 228 3 281 -21 q 138 72 176 26 q 78 187 100 118 q 56 347 56 256 q 78 508 56 439 q 140 622 100 576 q 237 692 181 668 q 361 715 293 715 q 427 707 397 715 q 478 688 457 699 q 521 660 503 675 l 521 931 l 438 951 l 438 972 l 618 972 z "},"f":{"ha":590,"x_min":35,"x_max":653,"o":"m 35 632 l 35 667 l 132 667 l 132 736 q 152 838 132 790 q 210 919 172 885 q 301 974 247 954 q 424 993 356 993 q 524 980 481 993 q 595 945 567 967 q 638 897 624 924 q 653 840 653 869 q 624 765 653 793 q 549 736 596 736 q 527 737 538 736 q 510 739 517 738 q 493 743 500 740 l 493 958 q 481 961 488 960 q 466 964 474 963 q 451 965 458 965 q 413 956 431 965 q 382 921 394 946 q 362 851 369 896 q 354 736 354 807 l 354 667 l 576 667 l 576 632 l 354 632 l 354 42 l 438 21 l 438 0 l 49 0 l 49 21 l 132 42 l 132 632 l 35 632 z "},"e":{"ha":778,"x_min":56,"x_max":729,"o":"m 292 347 q 375 349 339 347 q 436 354 411 351 q 486 361 465 357 q 493 392 489 375 q 498 426 496 407 q 500 465 500 444 q 490 570 500 528 q 466 639 481 613 q 433 676 451 665 q 396 688 414 688 q 359 674 378 688 q 326 624 340 661 q 301 521 311 588 q 292 347 292 454 m 431 -21 q 154 77 253 -21 q 56 347 56 175 q 81 501 56 433 q 150 617 106 569 q 258 690 194 665 q 396 715 321 715 q 535 693 474 715 q 640 633 597 671 q 706 545 683 596 q 729 438 729 494 q 727 403 729 418 q 722 378 725 389 q 715 354 718 364 q 586 333 654 342 q 451 319 528 325 q 292 313 375 313 q 304 169 292 226 q 339 77 317 111 q 392 28 361 43 q 458 14 422 14 q 537 29 500 14 q 601 70 574 44 q 644 128 628 96 q 660 194 660 161 l 694 194 q 676 114 694 153 q 622 45 657 75 q 539 -3 588 15 q 431 -21 490 -21 z "},"g":{"ha":840,"x_min":35,"x_max":840,"o":"m 389 701 q 511 688 457 701 q 597 653 565 674 q 626 694 608 676 q 667 723 642 710 q 729 736 693 736 q 808 703 776 736 q 840 618 840 671 q 818 552 840 576 q 764 528 796 528 q 744 528 753 528 q 729 531 736 529 q 715 535 722 532 l 715 701 q 675 690 692 701 q 647 667 658 679 q 625 632 633 651 q 678 560 661 600 q 694 472 694 519 q 676 381 694 422 q 619 308 657 339 q 524 260 582 278 q 389 243 467 243 q 290 253 336 243 q 208 278 244 263 q 181 264 193 271 q 161 249 169 257 q 153 229 153 240 q 174 194 153 208 q 264 181 196 181 l 528 181 q 691 121 632 181 q 750 -49 750 61 q 728 -147 750 -101 q 663 -226 707 -192 q 548 -279 618 -260 q 382 -299 478 -299 q 217 -285 283 -299 q 110 -249 150 -271 q 52 -199 69 -226 q 35 -146 35 -172 q 63 -70 35 -99 q 139 -42 92 -42 q 162 -43 151 -42 q 179 -46 172 -44 q 194 -49 188 -47 l 194 -243 q 247 -257 219 -251 q 302 -267 271 -262 q 368 -271 333 -271 q 522 -256 460 -271 q 622 -219 583 -242 q 678 -166 661 -196 q 694 -104 694 -136 q 686 -69 694 -86 q 658 -40 678 -53 q 607 -21 639 -28 q 528 -14 575 -14 l 264 -14 q 101 31 154 -14 q 49 139 49 76 q 69 209 49 181 q 114 257 89 238 q 181 292 143 278 q 106 369 128 324 q 83 472 83 414 q 102 564 83 522 q 158 636 121 606 q 253 684 196 667 q 389 701 311 701 m 389 271 q 428 280 410 271 q 458 312 446 289 q 478 374 471 335 q 486 472 486 413 q 478 571 486 532 q 458 633 471 610 q 428 665 446 656 q 389 674 410 674 q 350 665 368 674 q 319 633 332 656 q 299 571 307 610 q 292 472 292 532 q 299 374 292 413 q 319 312 307 335 q 350 280 332 289 q 389 271 368 271 z "},"h":{"ha":924,"x_min":56,"x_max":896,"o":"m 590 486 q 581 567 590 533 q 556 624 571 601 q 523 656 542 646 q 486 667 504 667 q 431 649 454 667 q 392 611 407 632 q 361 556 374 586 l 361 42 l 444 21 l 444 0 l 56 0 l 56 21 l 139 42 l 139 931 l 56 951 l 56 972 l 236 972 q 361 847 361 972 l 361 625 q 404 669 379 650 q 460 701 426 686 q 542 715 494 715 q 651 696 601 715 q 737 644 701 676 q 792 572 772 613 q 813 486 813 531 l 813 42 l 896 21 l 896 0 l 715 0 q 590 125 590 0 l 590 486 z "},"j":{"ha":458,"x_min":-153,"x_max":361,"o":"m 125 868 q 135 913 125 892 q 160 951 144 935 q 198 976 176 967 q 243 986 219 986 q 288 976 267 986 q 326 951 310 967 q 351 913 342 935 q 361 868 361 892 q 351 823 361 844 q 326 785 342 801 q 288 760 310 769 q 243 750 267 750 q 198 760 219 750 q 160 785 176 769 q 135 823 144 801 q 125 868 125 844 m 7 -264 q 15 -268 10 -267 q 35 -271 26 -271 q 70 -260 53 -271 q 101 -224 88 -250 q 124 -154 115 -199 q 132 -42 132 -110 l 132 653 l 49 674 l 49 694 l 229 694 q 354 569 354 694 l 354 -42 q 334 -143 354 -96 q 274 -225 314 -190 q 178 -279 235 -260 q 49 -299 121 -299 q -107 -262 -61 -299 q -153 -167 -153 -225 q -124 -91 -153 -119 q -49 -62 -96 -62 q -28 -64 -37 -62 q -11 -67 -19 -65 q 7 -69 -3 -68 l 7 -264 z "},"r":{"ha":701,"x_min":56,"x_max":694,"o":"m 535 667 q 460 649 493 667 q 406 611 428 632 q 361 556 381 586 l 361 42 l 444 21 l 444 0 l 56 0 l 56 21 l 139 42 l 139 653 l 56 674 l 56 694 l 181 694 q 260 678 229 694 q 310 642 292 661 q 340 590 331 618 q 392 646 361 621 q 456 684 418 667 q 547 701 494 701 q 658 667 622 701 q 694 569 694 632 q 666 494 694 522 q 590 465 638 465 q 569 466 579 465 q 551 468 558 467 q 535 472 542 469 l 535 667 z "},"t":{"ha":625,"x_min":21,"x_max":604,"o":"m 118 764 q 243 889 118 889 l 340 889 l 340 694 l 535 694 l 535 660 l 340 660 l 340 236 q 348 125 340 168 q 369 57 356 82 q 401 23 382 32 q 444 14 421 14 q 490 26 468 14 q 531 60 513 38 q 559 117 549 83 q 569 194 569 150 l 604 194 q 552 35 604 90 q 417 -21 500 -21 q 291 -1 346 -21 q 197 53 236 18 q 138 135 158 88 q 118 236 118 182 l 118 660 l 21 660 l 21 694 l 118 694 l 118 764 z "},"x":{"ha":771,"x_min":-7,"x_max":778,"o":"m 297 283 l 63 653 l -7 674 l -7 694 l 181 694 q 244 685 217 694 q 294 661 272 676 q 333 624 315 646 q 368 576 351 603 l 439 464 l 569 632 l 465 674 l 465 694 l 729 694 l 729 674 l 618 632 l 460 431 l 708 42 l 778 21 l 778 0 l 590 0 q 526 8 554 0 q 476 33 499 17 q 437 70 454 49 q 403 118 419 92 l 319 249 l 174 63 l 278 21 l 278 0 l 14 0 l 14 21 l 125 63 l 297 283 z "},"k":{"ha":833,"x_min":56,"x_max":847,"o":"m 236 972 q 361 847 361 972 l 361 361 l 618 632 l 514 674 l 514 694 l 778 694 l 778 674 l 667 632 l 507 465 l 778 42 l 847 21 l 847 0 l 667 0 q 603 8 631 0 q 553 33 575 17 q 513 70 531 49 q 479 118 496 92 l 361 306 l 361 42 l 444 21 l 444 0 l 56 0 l 56 21 l 139 42 l 139 931 l 56 951 l 56 972 l 236 972 z "},"p":{"ha":868,"x_min":42,"x_max":813,"o":"m 347 76 q 378 49 361 61 q 412 29 393 38 q 451 21 431 21 q 501 34 478 21 q 540 83 524 47 q 567 182 557 118 q 576 347 576 246 q 567 508 576 446 q 542 606 557 571 q 509 654 528 642 q 472 667 490 667 q 417 649 440 667 q 378 611 393 632 q 347 556 360 586 l 347 76 m 125 653 l 42 674 l 42 694 l 167 694 q 247 678 215 694 q 296 642 278 661 q 326 590 317 618 q 372 653 344 625 q 434 696 396 676 q 528 715 472 715 q 640 692 588 715 q 730 622 692 668 q 790 508 768 576 q 813 347 813 439 q 790 187 813 256 q 728 72 768 118 q 631 3 688 26 q 507 -21 575 -21 q 441 -12 471 -21 q 390 7 411 -4 q 347 35 365 19 l 347 -236 l 431 -257 l 431 -278 l 42 -278 l 42 -257 l 125 -236 l 125 653 z "},"q":{"ha":854,"x_min":56,"x_max":826,"o":"m 521 556 q 489 611 507 586 q 451 649 474 632 q 396 667 428 667 q 359 654 378 667 q 326 606 340 642 q 301 508 311 571 q 292 347 292 446 q 301 182 292 246 q 328 83 311 118 q 367 34 344 47 q 417 21 390 21 q 456 29 438 21 q 489 49 474 38 q 521 76 506 61 l 521 556 m 521 35 q 478 7 503 19 q 427 -12 457 -4 q 361 -21 397 -21 q 237 3 293 -21 q 140 72 181 26 q 78 187 100 118 q 56 347 56 256 q 78 508 56 439 q 138 622 100 576 q 228 692 176 668 q 340 715 281 715 q 433 696 394 715 q 496 653 472 676 q 542 590 524 625 q 575 646 551 621 q 631 684 594 667 q 729 701 668 701 l 743 701 l 743 -236 l 826 -257 l 826 -278 l 438 -278 l 438 -257 l 521 -236 l 521 35 z "},"s":{"ha":750,"x_min":63,"x_max":701,"o":"m 382 -21 q 294 -10 332 -21 q 228 17 256 1 q 174 56 196 33 q 149 28 163 40 q 125 8 136 15 q 97 -7 111 -1 l 63 -7 l 63 229 l 118 229 q 171 121 138 168 q 243 47 199 81 q 354 14 288 14 q 442 43 413 14 q 472 125 472 72 q 442 192 472 164 q 368 244 413 219 q 271 295 324 269 q 174 353 218 321 q 99 426 129 385 q 69 528 69 468 q 85 601 69 567 q 137 660 101 635 q 228 701 172 686 q 361 715 283 715 q 438 703 403 715 q 497 676 472 692 q 550 639 526 660 q 574 666 561 654 q 599 686 588 678 q 626 701 613 694 l 661 701 l 661 465 l 606 465 q 554 572 585 525 q 488 647 528 613 q 389 681 447 681 q 326 653 353 681 q 299 583 299 625 q 328 511 299 542 q 403 454 358 481 q 500 403 447 428 q 597 347 553 378 q 672 276 642 315 q 701 181 701 236 q 685 99 701 136 q 631 35 668 63 q 532 -6 593 8 q 382 -21 471 -21 z "},"u":{"ha":903,"x_min":35,"x_max":875,"o":"m 215 694 q 340 569 340 694 l 340 208 q 350 127 340 161 q 374 71 360 93 q 408 38 389 49 q 444 28 426 28 q 499 45 476 28 q 538 83 522 63 q 569 139 556 108 l 569 653 l 486 674 l 486 694 l 875 694 l 875 674 l 792 653 l 792 -7 l 778 -7 q 680 10 717 -7 q 624 49 643 28 q 590 104 600 74 q 544 42 572 68 q 482 -1 521 18 q 389 -21 443 -21 q 279 -1 329 -21 q 194 50 229 18 q 138 123 158 82 q 118 208 118 164 l 118 653 l 35 674 l 35 694 l 215 694 z "},"v":{"ha":778,"x_min":-28,"x_max":806,"o":"m 653 632 l 549 674 l 549 694 l 806 694 l 806 674 l 694 632 l 431 -14 l 389 -14 l 42 653 l -28 674 l -28 694 l 146 694 q 214 685 185 694 q 265 661 243 676 q 303 624 288 646 q 333 576 319 603 l 499 256 l 653 632 z "},"y":{"ha":778,"x_min":-28,"x_max":806,"o":"m 653 632 l 549 674 l 549 694 l 806 694 l 806 674 l 694 632 l 417 -83 q 322 -249 372 -199 q 208 -299 271 -299 q 111 -265 146 -299 q 76 -174 76 -232 q 105 -92 76 -121 q 181 -62 133 -62 q 201 -64 192 -62 q 218 -67 210 -65 q 236 -69 226 -68 l 236 -257 q 272 -244 254 -254 q 306 -215 289 -235 q 339 -162 322 -194 q 375 -83 356 -131 l 403 -14 l 42 653 l -28 674 l -28 694 l 146 694 q 214 685 185 694 q 265 661 243 676 q 303 624 286 646 q 333 576 319 603 l 507 256 l 653 632 z "},"w":{"ha":1160,"x_min":-28,"x_max":1188,"o":"m 42 653 l -28 674 l -28 694 l 132 694 q 252 661 210 694 q 319 576 294 628 l 472 257 l 551 460 l 458 653 l 389 674 l 389 694 l 549 694 q 669 661 626 694 q 736 576 711 628 l 889 257 l 1035 632 l 931 674 l 931 694 l 1188 694 l 1188 674 l 1076 632 l 819 -14 l 778 -14 l 572 414 l 403 -14 l 361 -14 l 42 653 z "},"z":{"ha":757,"x_min":56,"x_max":701,"o":"m 201 660 q 187 572 201 610 q 156 506 172 533 q 111 451 136 474 l 69 451 l 69 694 l 701 694 l 701 660 l 306 35 l 569 35 q 583 122 569 83 q 614 189 597 161 q 660 243 633 221 l 701 243 l 701 0 l 56 0 l 56 35 l 451 660 l 201 660 z "},"A":{"ha":944,"x_min":-28,"x_max":972,"o":"m 229 21 l 229 0 l -28 0 l -28 21 l 83 63 l 465 986 l 507 986 l 903 42 l 972 21 l 972 0 l 806 0 q 683 35 728 0 q 619 118 639 71 l 549 285 l 217 285 l 125 63 l 229 21 m 231 319 l 535 319 l 382 685 l 231 319 z "},"B":{"ha":944,"x_min":69,"x_max":903,"o":"m 549 507 q 725 476 647 503 q 790 447 758 465 q 847 403 822 429 q 888 344 872 378 q 903 264 903 310 q 881 158 903 207 q 808 74 858 110 q 674 19 757 39 q 472 0 592 0 l 69 0 l 69 21 l 153 42 l 153 931 l 69 951 l 69 972 l 444 972 q 635 953 557 972 q 761 900 713 933 q 832 823 810 867 q 854 729 854 779 q 841 658 854 689 q 806 603 828 626 q 758 565 785 581 q 701 540 731 550 q 549 514 635 517 l 549 507 m 382 493 l 382 35 l 472 35 q 611 94 556 35 q 667 264 667 154 q 611 433 667 374 q 472 493 556 493 l 382 493 m 382 528 l 444 528 q 510 542 478 528 q 565 584 542 557 q 603 648 589 611 q 618 729 618 685 q 603 815 618 776 q 565 880 589 853 q 510 922 542 907 q 444 938 478 938 l 382 938 l 382 528 z "},"C":{"ha":903,"x_min":63,"x_max":854,"o":"m 501 993 q 591 978 550 993 q 661 947 632 964 q 722 903 696 928 q 747 935 733 921 q 771 960 760 950 q 799 979 785 971 l 833 979 l 833 715 l 778 715 q 724 836 758 782 q 646 920 694 882 q 528 958 597 958 q 446 935 486 958 q 374 858 406 913 q 324 712 343 803 q 306 486 306 621 q 325 260 306 350 q 379 115 344 169 q 461 37 414 60 q 563 14 508 14 q 658 35 613 14 q 740 94 704 57 q 798 178 776 131 q 819 278 819 225 l 854 278 q 830 164 854 218 q 763 69 806 110 q 661 3 719 28 q 535 -21 603 -21 q 338 13 425 -21 q 189 110 250 46 q 95 269 128 175 q 63 486 63 364 q 94 703 63 608 q 185 862 126 797 q 324 960 243 926 q 501 993 404 993 z "},"D":{"ha":993,"x_min":69,"x_max":938,"o":"m 424 972 q 806 844 674 972 q 938 486 938 715 q 806 128 938 257 q 424 0 674 0 l 69 0 l 69 21 l 153 42 l 153 931 l 69 951 l 69 972 l 424 972 m 382 938 l 382 35 l 424 35 q 533 58 483 35 q 619 133 583 81 q 674 272 654 186 q 694 486 694 358 q 674 700 694 614 q 619 839 654 786 q 533 915 583 892 q 424 938 483 938 l 382 938 z "},"E":{"ha":896,"x_min":69,"x_max":840,"o":"m 542 500 q 557 553 547 528 q 578 599 567 579 q 604 639 590 621 l 646 639 l 646 326 l 604 326 q 578 367 590 344 q 557 411 567 386 q 542 465 547 436 l 382 465 l 382 35 l 708 35 q 722 129 708 89 q 753 197 736 169 q 799 250 772 229 l 840 250 l 840 0 l 69 0 l 69 21 l 153 42 l 153 931 l 69 951 l 69 972 l 813 972 l 813 722 l 771 722 q 725 775 744 743 q 694 842 708 803 q 681 938 681 882 l 382 938 l 382 500 l 542 500 z "},"F":{"ha":847,"x_min":69,"x_max":813,"o":"m 542 500 q 557 553 547 528 q 578 599 567 579 q 604 639 590 621 l 646 639 l 646 326 l 604 326 q 578 367 590 344 q 557 411 567 386 q 542 465 547 436 l 382 465 l 382 42 l 465 21 l 465 0 l 69 0 l 69 21 l 153 42 l 153 931 l 69 951 l 69 972 l 813 972 l 813 722 l 771 722 q 725 775 744 743 q 694 842 708 803 q 681 938 681 882 l 382 938 l 382 500 l 542 500 z "},"G":{"ha":972,"x_min":63,"x_max":944,"o":"m 507 28 q 562 45 539 28 q 600 83 585 63 q 632 139 618 108 l 632 458 l 549 479 l 549 500 l 944 500 l 944 479 l 861 458 l 861 -7 l 840 -7 q 742 10 779 -7 q 686 49 706 28 q 653 104 663 74 q 607 42 635 68 q 544 -1 583 18 q 451 -21 506 -21 q 303 13 374 -21 q 178 110 232 46 q 94 269 125 175 q 63 486 63 364 q 94 703 63 608 q 185 862 126 797 q 324 960 243 926 q 501 993 404 993 q 591 978 550 993 q 661 947 632 964 q 722 903 696 928 q 747 935 733 921 q 771 960 760 950 q 799 979 785 971 l 833 979 l 833 715 l 778 715 q 724 836 758 782 q 646 920 694 882 q 528 958 597 958 q 446 935 486 958 q 374 858 406 913 q 324 712 343 803 q 306 486 306 621 q 322 262 306 350 q 367 122 339 174 q 432 49 396 69 q 507 28 468 28 z "},"H":{"ha":1063,"x_min":69,"x_max":993,"o":"m 69 951 l 69 972 l 465 972 l 465 951 l 382 931 l 382 500 l 681 500 l 681 931 l 597 951 l 597 972 l 993 972 l 993 951 l 910 931 l 910 42 l 993 21 l 993 0 l 597 0 l 597 21 l 681 42 l 681 465 l 382 465 l 382 42 l 465 21 l 465 0 l 69 0 l 69 21 l 153 42 l 153 931 l 69 951 z "},"I":{"ha":535,"x_min":69,"x_max":465,"o":"m 69 951 l 69 972 l 465 972 l 465 951 l 382 931 l 382 42 l 465 21 l 465 0 l 69 0 l 69 21 l 153 42 l 153 931 l 69 951 z "},"J":{"ha":764,"x_min":0,"x_max":708,"o":"m 229 7 q 296 21 265 7 q 349 67 326 35 q 383 151 371 99 q 396 278 396 203 l 396 931 l 313 951 l 313 972 l 708 972 l 708 951 l 625 931 l 625 278 q 538 58 625 138 q 257 -21 450 -21 q 140 -8 189 -21 q 60 27 92 6 q 15 76 29 49 q 0 132 0 103 q 28 208 0 179 q 104 236 57 236 q 124 235 115 236 q 142 232 133 233 q 160 229 150 231 l 160 21 q 179 14 168 17 q 229 7 200 7 z "},"K":{"ha":958,"x_min":69,"x_max":972,"o":"m 972 21 l 972 0 l 778 0 q 666 35 710 0 q 590 118 622 71 l 382 438 l 382 42 l 465 21 l 465 0 l 69 0 l 69 21 l 153 42 l 153 931 l 69 951 l 69 972 l 465 972 l 465 951 l 382 931 l 382 494 l 722 910 l 618 951 l 618 972 l 882 972 l 882 951 l 771 910 l 528 611 l 903 42 l 972 21 z "},"L":{"ha":847,"x_min":69,"x_max":813,"o":"m 465 972 l 465 951 l 382 931 l 382 35 l 681 35 q 694 129 681 89 q 725 197 708 169 q 771 250 744 229 l 813 250 l 813 0 l 69 0 l 69 21 l 153 42 l 153 931 l 69 951 l 69 972 l 465 972 z "},"M":{"ha":1368,"x_min":42,"x_max":1299,"o":"m 1299 972 l 1299 951 l 1215 931 l 1215 42 l 1299 21 l 1299 0 l 903 0 l 903 21 l 986 42 l 986 799 l 660 -14 l 618 -14 l 194 799 l 194 63 l 306 21 l 306 0 l 42 0 l 42 21 l 153 63 l 153 931 l 69 951 l 69 972 l 243 972 q 311 963 282 972 q 363 939 340 954 q 401 902 385 924 q 431 854 417 881 l 733 275 l 965 854 q 991 905 976 883 q 1026 942 1006 926 q 1078 965 1047 957 q 1153 972 1108 972 l 1299 972 z "},"O":{"ha":1028,"x_min":63,"x_max":965,"o":"m 722 486 q 703 716 722 624 q 655 864 685 808 q 588 942 625 919 q 514 965 550 965 q 440 942 478 965 q 373 864 403 919 q 324 716 343 808 q 306 486 306 624 q 324 256 306 349 q 373 108 343 164 q 440 30 403 53 q 514 7 478 7 q 588 30 550 7 q 655 108 625 53 q 703 256 685 164 q 722 486 722 349 m 965 486 q 933 269 965 364 q 841 110 900 175 q 699 13 782 46 q 514 -21 615 -21 q 329 13 413 -21 q 187 110 246 46 q 95 269 128 175 q 63 486 63 364 q 95 703 63 608 q 187 862 128 797 q 329 960 246 926 q 514 993 413 993 q 699 960 615 993 q 841 862 782 926 q 933 703 900 797 q 965 486 965 608 z "},"N":{"ha":1028,"x_min":42,"x_max":993,"o":"m 840 910 l 729 951 l 729 972 l 993 972 l 993 951 l 882 910 l 882 -21 l 840 -21 l 194 736 l 194 63 l 306 21 l 306 0 l 42 0 l 42 21 l 153 63 l 153 924 l 56 951 l 56 972 l 201 972 q 274 963 243 972 q 327 940 304 954 q 367 908 350 925 q 396 875 383 890 l 840 354 l 840 910 z "},"P":{"ha":938,"x_min":69,"x_max":889,"o":"m 458 410 q 535 426 500 410 q 597 474 571 442 q 638 556 624 507 q 653 674 653 606 q 597 873 653 808 q 458 938 542 938 l 382 938 l 382 410 l 458 410 m 382 375 l 382 42 l 465 21 l 465 0 l 69 0 l 69 21 l 153 42 l 153 931 l 69 951 l 69 972 l 458 972 q 660 952 578 972 q 794 893 743 932 q 867 799 844 854 q 889 674 889 744 q 867 548 889 603 q 794 454 844 493 q 660 395 743 415 q 458 375 578 375 l 382 375 z "},"Q":{"ha":1028,"x_min":63,"x_max":965,"o":"m 965 486 q 874 151 965 276 q 625 -7 782 25 q 631 -101 625 -64 q 647 -158 638 -137 q 669 -187 657 -179 q 694 -194 682 -194 q 725 -187 714 -194 q 736 -181 731 -185 l 750 -215 q 728 -226 742 -221 q 653 -236 701 -236 q 549 -219 596 -236 q 470 -171 503 -201 q 420 -99 438 -140 q 403 -7 403 -57 q 154 151 246 25 q 63 486 63 276 q 95 703 63 608 q 187 862 128 797 q 329 960 246 926 q 514 993 413 993 q 699 960 615 993 q 841 862 782 926 q 933 703 900 797 q 965 486 965 608 m 722 486 q 703 716 722 624 q 655 864 685 808 q 588 942 625 919 q 514 965 550 965 q 440 942 478 965 q 373 864 403 919 q 324 716 343 808 q 306 486 306 624 q 324 256 306 349 q 373 108 343 164 q 440 30 403 53 q 514 7 478 7 q 588 30 550 7 q 655 108 625 53 q 703 256 685 164 q 722 486 722 349 z "},"R":{"ha":972,"x_min":69,"x_max":972,"o":"m 556 444 q 646 429 603 443 q 719 392 682 418 q 778 319 757 367 l 903 42 l 972 21 l 972 0 l 778 0 q 675 33 715 0 q 611 118 635 65 l 472 431 l 382 431 l 382 42 l 479 21 l 479 0 l 69 0 l 69 21 l 153 42 l 153 931 l 69 951 l 69 972 l 438 972 q 647 952 563 972 q 784 897 732 932 q 859 811 836 861 q 882 701 882 761 q 868 619 882 654 q 831 556 854 583 q 778 511 808 529 q 718 482 749 493 q 556 451 646 454 l 556 444 m 438 465 q 589 526 532 465 q 646 701 646 586 q 589 877 646 817 q 438 938 532 938 l 382 938 l 382 465 l 438 465 z "},"T":{"ha":882,"x_min":35,"x_max":847,"o":"m 243 0 l 243 21 l 326 42 l 326 938 l 167 938 q 152 842 167 882 q 121 775 138 803 q 76 722 101 743 l 35 722 l 35 972 l 847 972 l 847 722 l 806 722 q 760 775 779 743 q 729 842 743 803 q 715 938 715 882 l 556 938 l 556 42 l 639 21 l 639 0 l 243 0 z "},"S":{"ha":826,"x_min":49,"x_max":792,"o":"m 382 14 q 508 61 461 14 q 556 188 556 108 q 519 281 556 242 q 428 356 482 321 q 309 425 374 390 q 190 504 244 460 q 99 608 136 549 q 63 750 63 667 q 83 844 63 800 q 147 921 104 888 q 253 974 189 954 q 403 993 317 993 q 493 978 451 993 q 564 947 535 964 q 625 903 599 928 q 649 935 636 921 q 674 960 663 950 q 701 979 688 971 l 736 979 l 736 715 l 681 715 q 626 836 661 782 q 549 920 597 882 q 431 958 500 958 q 381 947 404 958 q 339 916 357 936 q 310 867 321 896 q 299 806 299 839 q 335 703 299 746 q 426 625 372 661 q 545 554 481 589 q 664 477 610 519 q 755 381 718 435 q 792 250 792 326 q 768 147 792 196 q 697 60 744 97 q 578 1 650 22 q 410 -21 506 -21 q 303 -7 349 -21 q 225 24 257 7 q 160 69 188 43 q 135 36 149 50 q 111 13 122 22 q 83 -7 97 1 l 49 -7 l 49 257 l 104 257 q 163 135 125 189 q 200 90 179 111 q 248 51 221 68 q 308 24 275 35 q 382 14 342 14 z "},"U":{"ha":986,"x_min":49,"x_max":979,"o":"m 826 910 l 715 951 l 715 972 l 979 972 l 979 951 l 868 910 l 868 347 q 844 193 868 261 q 776 77 819 125 q 675 4 733 29 q 549 -21 617 -21 q 236 77 340 -21 q 132 347 132 175 l 132 931 l 49 951 l 49 972 l 444 972 l 444 951 l 361 931 l 361 347 q 376 190 361 253 q 419 87 392 126 q 487 31 447 47 q 576 14 526 14 q 668 37 624 14 q 748 103 713 60 q 805 208 783 146 q 826 347 826 269 l 826 910 z "},"V":{"ha":924,"x_min":-28,"x_max":951,"o":"m 799 910 l 694 951 l 694 972 l 951 972 l 951 951 l 840 910 l 500 -14 l 458 -14 l 42 931 l -28 951 l -28 972 l 139 972 q 261 937 217 972 q 326 854 306 901 l 572 294 l 799 910 z "},"X":{"ha":924,"x_min":-7,"x_max":931,"o":"m 368 411 l 63 931 l -7 951 l -7 972 l 194 972 q 309 940 268 972 q 382 854 350 907 l 515 626 l 708 910 l 604 951 l 604 972 l 868 972 l 868 951 l 757 910 l 539 589 l 861 42 l 931 21 l 931 0 l 729 0 q 615 33 656 0 q 542 118 574 65 l 392 372 l 181 63 l 285 21 l 285 0 l 21 0 l 21 21 l 132 63 l 368 411 z "},"Z":{"ha":882,"x_min":56,"x_max":826,"o":"m 688 35 q 701 129 688 89 q 732 197 715 169 q 778 250 751 229 l 819 250 l 819 0 l 56 0 l 56 35 l 571 938 l 208 938 q 194 842 208 882 q 163 775 179 803 q 118 722 143 743 l 76 722 l 76 972 l 826 972 l 826 938 l 313 35 l 688 35 z "},"W":{"ha":1368,"x_min":-28,"x_max":1396,"o":"m 49 938 l -28 951 l -28 972 l 139 972 q 263 937 218 972 q 326 854 308 901 l 536 319 l 658 678 l 556 938 l 479 951 l 479 972 l 646 972 q 769 937 725 972 q 833 854 814 901 l 1043 319 l 1243 910 l 1139 951 l 1139 972 l 1396 972 l 1396 951 l 1285 910 l 972 -14 l 931 -14 l 681 621 l 465 -14 l 424 -14 l 49 938 z "},"Y":{"ha":924,"x_min":0,"x_max":938,"o":"m 69 931 l 0 951 l 0 972 l 174 972 q 242 963 213 972 q 293 939 271 954 q 332 902 315 924 q 361 854 349 881 l 567 444 l 778 910 l 674 951 l 674 972 l 938 972 l 938 951 l 826 910 l 583 375 l 583 42 l 667 21 l 667 0 l 271 0 l 271 21 l 354 42 l 354 361 l 69 931 z "},"n":{"ha":924,"x_min":56,"x_max":896,"o":"m 590 486 q 581 567 590 533 q 556 624 571 601 q 523 656 542 646 q 486 667 504 667 q 431 649 454 667 q 392 611 407 632 q 361 556 374 586 l 361 42 l 444 21 l 444 0 l 56 0 l 56 21 l 139 42 l 139 653 l 56 674 l 56 694 l 181 694 q 260 678 229 694 q 310 642 292 661 q 340 590 331 618 q 386 653 358 625 q 448 696 410 676 q 542 715 486 715 q 651 696 601 715 q 737 644 701 676 q 792 572 772 613 q 813 486 813 531 l 813 42 l 896 21 l 896 0 l 715 0 q 590 125 590 0 l 590 486 z "},"&":{"ha":958,"x_min":28,"x_max":944,"o":"m 417 14 q 478 27 450 14 q 526 56 507 40 q 569 97 550 74 l 319 451 q 292 404 304 435 q 272 334 281 378 q 264 222 264 290 q 309 66 264 118 q 417 14 354 14 m 778 479 q 768 399 778 438 q 747 329 758 360 q 718 264 733 293 l 875 42 l 944 21 l 944 0 l 750 0 q 651 19 692 0 q 590 69 611 38 q 539 24 568 43 q 476 -7 514 7 q 389 -21 438 -21 q 222 -3 290 -21 q 110 46 153 14 q 47 123 67 78 q 28 222 28 168 q 40 293 28 261 q 70 350 51 325 q 113 394 89 375 q 163 429 138 414 q 299 479 222 463 l 222 590 q 175 673 197 626 q 153 778 153 719 q 171 861 153 822 q 225 929 189 900 q 314 976 261 958 q 438 993 367 993 q 518 978 482 993 q 579 947 554 964 q 632 903 608 928 q 656 935 643 921 q 681 960 669 950 q 708 979 694 971 l 743 979 l 743 715 l 688 715 q 636 836 668 782 q 605 881 622 858 q 567 920 588 903 q 520 948 546 938 q 465 958 494 958 q 392 925 424 958 q 361 833 361 892 q 370 781 361 807 q 392 729 379 754 q 421 683 406 704 q 447 646 436 661 l 694 299 q 718 350 707 322 q 735 406 728 374 q 743 479 743 439 l 632 521 l 632 542 l 889 542 l 889 521 l 778 479 z "},"'":{"ha":292,"x_min":63,"x_max":229,"o":"m 146 986 q 206 961 182 986 q 229 889 229 936 l 174 618 l 118 618 l 63 889 q 86 961 63 936 q 146 986 110 986 z "},"!":{"ha":431,"x_min":83,"x_max":347,"o":"m 236 299 l 194 299 l 83 833 q 123 950 83 907 q 215 993 163 993 q 308 950 268 993 q 347 833 347 907 l 236 299 m 319 97 q 288 18 319 50 q 215 -14 257 -14 q 142 18 174 -14 q 111 97 111 50 q 142 176 111 144 q 215 208 174 208 q 288 176 257 208 q 319 97 319 144 z "},"\"":{"ha":514,"x_min":63,"x_max":451,"o":"m 146 986 q 206 961 182 986 q 229 889 229 936 l 174 618 l 118 618 l 63 889 q 86 961 63 936 q 146 986 110 986 m 368 986 q 428 961 404 986 q 451 889 451 936 l 396 618 l 340 618 l 285 889 q 308 961 285 936 q 368 986 332 986 z "},"#":{"ha":903,"x_min":28,"x_max":875,"o":"m 385 715 l 635 715 l 701 972 l 785 972 l 718 715 l 875 715 l 875 646 l 700 646 l 618 326 l 806 326 l 806 257 l 600 257 l 535 0 l 451 0 l 517 257 l 267 257 l 201 0 l 118 0 l 183 257 l 28 257 l 28 326 l 201 326 l 283 646 l 97 646 l 97 715 l 301 715 l 368 972 l 451 972 l 385 715 m 285 326 l 535 326 l 617 646 l 367 646 l 285 326 z "},"$":{"ha":826,"x_min":49,"x_max":792,"o":"m 382 14 q 403 15 396 14 l 403 369 q 288 437 349 403 q 178 514 228 471 q 95 614 128 557 q 63 750 63 671 q 83 844 63 800 q 147 921 104 888 q 253 974 189 954 q 403 993 317 993 l 403 1083 l 444 1083 l 444 989 q 518 969 485 982 q 575 940 551 956 q 625 903 603 924 q 649 935 636 921 q 674 960 663 950 q 701 979 688 971 l 736 979 l 736 715 l 681 715 q 629 832 663 779 q 597 876 615 854 q 555 915 578 897 q 505 943 532 932 q 444 957 478 954 l 444 613 q 560 544 499 578 q 672 470 621 511 q 758 376 724 429 q 792 250 792 324 q 770 151 792 197 q 706 67 749 104 q 597 8 663 31 q 444 -19 532 -15 l 444 -111 l 403 -111 l 403 -21 q 299 -6 344 -19 q 222 25 254 8 q 160 69 186 44 q 135 36 149 50 q 111 13 122 22 q 83 -7 97 1 l 49 -7 l 49 257 l 104 257 q 163 135 125 189 q 200 90 179 111 q 248 51 221 68 q 308 24 275 35 q 382 14 342 14 m 556 188 q 524 274 556 236 q 444 344 493 313 l 444 24 q 526 83 496 40 q 556 188 556 125 m 299 806 q 328 713 299 753 q 403 640 357 674 l 403 954 q 328 903 358 943 q 299 806 299 864 z "},"%":{"ha":1042,"x_min":42,"x_max":1000,"o":"m 917 972 l 201 0 l 125 0 l 840 972 l 917 972 m 847 229 q 840 336 847 294 q 822 402 833 378 q 797 435 811 426 q 771 444 783 444 q 744 435 758 444 q 719 402 731 426 q 701 336 708 378 q 694 229 694 294 q 701 122 694 164 q 719 56 708 81 q 744 23 731 32 q 771 14 758 14 q 797 23 783 14 q 822 56 811 32 q 840 122 833 81 q 847 229 847 164 m 1000 229 q 983 130 1000 175 q 935 53 965 85 q 863 3 904 21 q 771 -14 821 -14 q 679 3 721 -14 q 607 53 638 21 q 559 130 576 85 q 542 229 542 175 q 559 328 542 283 q 607 406 576 374 q 679 455 638 438 q 771 472 721 472 q 863 455 821 472 q 935 406 904 438 q 983 328 965 374 q 1000 229 1000 283 m 347 743 q 340 850 347 808 q 322 916 333 892 q 297 949 311 940 q 271 958 283 958 q 244 949 258 958 q 219 916 231 940 q 201 850 208 892 q 194 743 194 808 q 201 636 194 678 q 219 570 208 594 q 244 537 231 546 q 271 528 258 528 q 297 537 283 528 q 322 570 311 546 q 340 636 333 594 q 347 743 347 678 m 500 743 q 483 644 500 689 q 435 567 465 599 q 363 517 404 535 q 271 500 321 500 q 179 517 221 500 q 107 567 138 535 q 59 644 76 599 q 42 743 42 689 q 59 842 42 797 q 107 919 76 888 q 179 969 138 951 q 271 986 221 986 q 363 969 321 986 q 435 919 404 951 q 483 842 465 888 q 500 743 500 797 z "},"(":{"ha":493,"x_min":69,"x_max":472,"o":"m 306 368 q 316 162 306 261 q 347 -24 326 63 q 399 -185 368 -111 q 472 -312 431 -258 l 458 -333 q 310 -211 381 -282 q 185 -53 239 -140 q 101 140 132 35 q 69 368 69 246 q 101 596 69 490 q 185 789 132 701 q 310 947 239 876 q 458 1069 381 1017 l 472 1049 q 399 921 431 994 q 347 760 368 847 q 316 574 326 674 q 306 368 306 475 z "},")":{"ha":493,"x_min":21,"x_max":424,"o":"m 188 368 q 177 574 188 475 q 146 760 167 674 q 94 921 125 847 q 21 1049 63 994 l 35 1069 q 183 947 113 1017 q 308 789 254 876 q 392 596 361 701 q 424 368 424 490 q 392 140 424 246 q 308 -53 361 35 q 183 -211 254 -140 q 35 -333 113 -282 l 21 -312 q 94 -185 63 -258 q 146 -24 125 -111 q 177 162 167 63 q 188 368 188 261 z "},"*":{"ha":542,"x_min":51,"x_max":490,"o":"m 271 514 q 226 532 244 514 q 208 576 208 550 l 250 715 l 153 611 q 101 603 129 597 q 63 632 74 608 q 59 679 51 656 q 90 715 67 703 l 229 750 l 90 785 q 59 821 67 797 q 63 868 51 844 q 101 897 74 892 q 153 889 129 903 l 250 785 l 208 924 q 226 968 208 950 q 271 986 244 986 q 315 968 297 986 q 333 924 333 950 l 292 785 l 389 889 q 440 897 413 903 q 479 868 468 892 q 483 821 490 844 q 451 785 475 797 l 313 750 l 451 715 q 483 679 475 703 q 479 632 490 656 q 440 603 468 608 q 389 611 413 597 l 292 715 l 333 576 q 315 532 333 550 q 271 514 297 514 z "},"+":{"ha":715,"x_min":49,"x_max":667,"o":"m 326 132 l 326 431 l 49 431 l 49 493 l 326 493 l 326 792 l 389 792 l 389 493 l 667 493 l 667 431 l 389 431 l 389 132 l 326 132 z "},".":{"ha":333,"x_min":63,"x_max":271,"o":"m 271 90 q 240 17 271 49 q 167 -14 208 -14 q 94 17 125 -14 q 63 90 63 49 q 94 163 63 132 q 167 194 125 194 q 240 163 208 194 q 271 90 271 132 z "},",":{"ha":340,"x_min":63,"x_max":278,"o":"m 97 -146 q 156 -114 129 -135 q 200 -67 179 -96 q 229 7 221 -37 q 211 -4 221 1 q 167 -14 192 -14 q 94 17 125 -14 q 63 90 63 49 q 94 163 63 132 q 167 194 125 194 q 246 161 214 194 q 278 69 278 128 q 252 -55 278 -7 q 194 -131 226 -103 q 111 -181 158 -164 l 97 -146 z "},"-":{"ha":653,"x_min":49,"x_max":604,"o":"m 604 479 l 604 417 l 49 417 l 49 479 l 604 479 z "},"/":{"ha":486,"x_min":-28,"x_max":514,"o":"m 514 1042 l 35 -69 l -28 -69 l 451 1042 l 514 1042 z "},"\\":{"ha":486,"x_min":-28,"x_max":514,"o":"m 35 1042 l 514 -69 l 451 -69 l -28 1042 l 35 1042 z "},"=":{"ha":639,"x_min":49,"x_max":590,"o":"m 590 597 l 590 535 l 49 535 l 49 597 l 590 597 m 590 389 l 590 326 l 49 326 l 49 389 l 590 389 z "},":":{"ha":333,"x_min":63,"x_max":271,"o":"m 271 90 q 240 17 271 49 q 167 -14 208 -14 q 94 17 125 -14 q 63 90 63 49 q 94 163 63 132 q 167 194 125 194 q 240 163 208 194 q 271 90 271 132 m 271 604 q 240 531 271 563 q 167 500 208 500 q 94 531 125 500 q 63 604 63 563 q 94 677 63 646 q 167 708 125 708 q 240 677 208 708 q 271 604 271 646 z "},";":{"ha":340,"x_min":63,"x_max":278,"o":"m 97 -146 q 156 -114 129 -135 q 200 -67 179 -96 q 229 7 221 -37 q 211 -4 221 1 q 167 -14 192 -14 q 94 17 125 -14 q 63 90 63 49 q 94 163 63 132 q 167 194 125 194 q 246 161 214 194 q 278 69 278 128 q 252 -55 278 -7 q 194 -131 226 -103 q 111 -181 158 -164 l 97 -146 m 271 604 q 240 531 271 563 q 167 500 208 500 q 94 531 125 500 q 63 604 63 563 q 94 677 63 646 q 167 708 125 708 q 240 677 208 708 q 271 604 271 646 z "},">":{"ha":701,"x_min":49,"x_max":667,"o":"m 667 347 l 49 0 l 49 76 l 528 347 l 49 618 l 49 694 l 667 347 z "},"?":{"ha":778,"x_min":21,"x_max":729,"o":"m 292 958 q 245 955 265 958 q 210 947 225 951 q 181 938 193 942 l 181 715 q 163 711 171 713 q 145 709 154 710 q 125 708 136 708 q 49 737 78 708 q 21 813 21 765 q 39 876 21 843 q 94 934 57 908 q 188 976 132 960 q 319 993 244 993 q 503 971 426 993 q 631 910 581 949 q 705 820 681 872 q 729 708 729 768 q 644 515 729 593 q 382 410 560 436 l 375 299 l 319 299 l 313 431 q 383 468 351 446 q 438 523 415 490 q 474 601 461 556 q 486 708 486 646 q 437 901 486 844 q 292 958 388 958 m 444 97 q 413 18 444 50 q 340 -14 382 -14 q 267 18 299 -14 q 236 97 236 50 q 267 176 236 144 q 340 208 299 208 q 413 176 382 208 q 444 97 444 144 z "},"[":{"ha":486,"x_min":118,"x_max":472,"o":"m 472 1000 l 472 965 l 340 965 l 340 -271 l 472 -271 l 472 -306 l 118 -306 l 118 1000 l 472 1000 z "},"]":{"ha":486,"x_min":14,"x_max":368,"o":"m 368 1000 l 368 -306 l 14 -306 l 14 -271 l 146 -271 l 146 965 l 14 965 l 14 1000 l 368 1000 z "},"_":{"ha":542,"x_min":0,"x_max":542,"o":"m 542 -76 l 542 -139 l 0 -139 l 0 -76 l 542 -76 z "},"{":{"ha":514,"x_min":42,"x_max":500,"o":"m 42 368 q 117 401 89 368 q 146 507 146 433 l 146 792 q 164 871 146 833 q 216 938 182 908 q 301 983 250 967 q 417 1000 351 1000 l 500 1000 l 500 965 l 486 965 q 401 929 433 965 q 368 819 368 893 l 368 563 q 333 441 368 485 q 257 376 299 397 q 146 347 208 351 q 257 318 208 343 q 333 253 299 297 q 368 132 368 210 l 368 -125 q 401 -235 368 -199 q 486 -271 433 -271 l 500 -271 l 500 -306 l 417 -306 q 301 -289 351 -306 q 216 -243 250 -272 q 164 -176 182 -214 q 146 -97 146 -139 l 146 188 q 117 294 146 261 q 42 326 89 326 l 42 368 z "},"}":{"ha":514,"x_min":14,"x_max":472,"o":"m 472 326 q 397 294 425 326 q 368 188 368 261 l 368 -97 q 350 -176 368 -139 q 298 -243 332 -214 q 213 -289 264 -272 q 97 -306 163 -306 l 14 -306 l 14 -271 l 28 -271 q 113 -235 81 -271 q 146 -125 146 -199 l 146 132 q 181 253 146 210 q 257 318 215 297 q 368 347 306 343 q 257 376 306 351 q 181 441 215 397 q 146 563 146 485 l 146 819 q 113 929 146 893 q 28 965 81 965 l 14 965 l 14 1000 l 97 1000 q 213 983 163 1000 q 298 938 264 967 q 350 871 332 908 q 368 792 368 833 l 368 507 q 397 401 368 433 q 472 368 425 368 l 472 326 z "},"^":{"ha":667,"x_min":42,"x_max":625,"o":"m 333 1000 l 625 597 l 542 597 l 333 882 l 125 597 l 42 597 l 333 1000 z "},"@":{"ha":1167,"x_min":56,"x_max":1111,"o":"m 479 361 q 486 261 479 301 q 505 197 493 221 q 532 163 517 174 q 563 153 547 153 q 594 166 581 153 q 615 194 607 179 q 632 236 625 213 l 632 660 q 572 645 600 660 q 524 597 544 631 q 491 505 503 563 q 479 361 479 447 m 104 403 q 142 204 104 296 q 244 46 179 113 q 397 -59 310 -21 q 583 -97 485 -97 q 689 -84 642 -97 q 772 -56 736 -71 q 847 -14 814 -37 l 868 -49 q 788 -94 832 -75 q 698 -125 750 -111 q 583 -139 646 -139 q 378 -97 474 -139 q 210 17 282 -56 q 97 189 139 90 q 56 403 56 288 q 97 616 56 517 q 210 788 139 715 q 378 903 282 861 q 583 944 474 944 q 789 903 693 944 q 956 788 885 861 q 1069 616 1028 715 q 1111 403 1111 517 q 1092 277 1111 332 q 1040 183 1072 222 q 967 124 1008 144 q 882 104 926 104 q 759 122 803 104 q 693 160 715 139 q 660 215 668 185 q 631 160 650 185 q 584 122 614 139 q 507 104 554 104 q 415 122 457 104 q 343 172 374 139 q 295 253 313 206 q 278 361 278 301 q 368 606 278 518 q 632 694 458 694 l 833 694 l 833 243 q 856 165 833 190 q 910 139 878 139 q 960 156 933 139 q 1009 206 986 172 q 1047 288 1032 239 q 1063 403 1063 338 q 1025 601 1063 510 q 922 760 988 693 q 769 865 857 826 q 583 903 682 903 q 397 865 485 903 q 244 760 310 826 q 142 601 179 693 q 104 403 104 510 z "},"©":{"ha":1167,"x_min":56,"x_max":1111,"o":"m 639 757 q 592 743 615 757 q 549 697 568 729 q 519 613 531 665 q 507 486 507 561 q 519 363 507 413 q 550 281 531 313 q 594 236 569 250 q 646 222 619 222 q 708 234 679 222 q 759 267 738 246 q 793 315 781 288 q 806 375 806 343 l 840 375 q 824 305 840 339 q 779 244 808 271 q 709 203 750 218 q 618 188 668 188 q 392 266 471 188 q 313 486 313 344 q 391 706 313 628 q 611 785 469 785 q 710 773 668 785 q 780 742 753 761 q 820 697 807 722 q 833 646 833 672 q 809 580 833 604 q 743 556 785 556 q 722 556 732 556 q 704 558 711 557 q 688 563 694 560 l 688 750 q 674 753 681 751 q 658 756 667 754 q 639 757 650 757 m 56 486 q 97 699 56 600 q 210 872 139 799 q 378 986 282 944 q 583 1028 474 1028 q 789 986 693 1028 q 956 872 885 944 q 1069 699 1028 799 q 1111 486 1111 600 q 1069 272 1111 371 q 956 101 1028 174 q 789 -14 885 28 q 583 -56 693 -56 q 378 -14 474 -56 q 210 101 282 28 q 97 272 139 174 q 56 486 56 371 m 1063 486 q 1026 688 1063 596 q 924 846 989 779 q 772 949 860 913 q 583 986 685 986 q 394 949 482 986 q 242 846 307 913 q 141 688 178 779 q 104 486 104 596 q 141 285 104 376 q 242 126 178 193 q 394 23 307 60 q 583 -14 482 -14 q 772 23 685 -14 q 924 126 860 60 q 1026 285 989 193 q 1063 486 1063 376 z "},"®":{"ha":1167,"x_min":56,"x_max":1111,"o":"m 778 194 q 692 220 725 194 q 646 278 660 246 l 569 451 l 542 451 l 542 229 l 611 215 l 611 194 l 292 194 l 292 215 l 361 229 l 361 743 l 292 757 l 292 778 l 556 778 q 703 765 644 778 q 797 731 761 753 q 847 678 832 708 q 861 611 861 647 q 831 529 861 558 q 764 486 800 500 q 667 465 721 469 q 719 453 694 463 q 763 427 742 444 q 799 382 785 410 l 868 229 l 917 215 l 917 194 l 778 194 m 542 743 l 542 479 l 556 479 q 639 514 611 479 q 667 611 667 549 q 635 708 667 674 q 556 743 603 743 l 542 743 m 56 486 q 97 699 56 600 q 210 872 139 799 q 378 986 282 944 q 583 1028 474 1028 q 789 986 693 1028 q 956 872 885 944 q 1069 699 1028 799 q 1111 486 1111 600 q 1069 272 1111 371 q 956 101 1028 174 q 789 -14 885 28 q 583 -56 693 -56 q 378 -14 474 -56 q 210 101 282 28 q 97 272 139 174 q 56 486 56 371 m 1063 486 q 1026 688 1063 596 q 924 846 989 779 q 772 949 860 913 q 583 986 685 986 q 394 949 482 986 q 242 846 307 913 q 141 688 178 779 q 104 486 104 596 q 141 285 104 376 q 242 126 178 193 q 394 23 307 60 q 583 -14 482 -14 q 772 23 685 -14 q 924 126 860 60 q 1026 285 989 193 q 1063 486 1063 376 z "},"§":{"ha":722,"x_min":56,"x_max":667,"o":"m 319 -292 q 203 -278 251 -292 q 123 -244 154 -265 q 77 -195 92 -222 q 63 -139 63 -168 q 91 -63 63 -92 q 167 -35 119 -35 q 187 -36 178 -35 q 204 -39 196 -37 q 222 -42 213 -40 l 222 -250 q 242 -257 231 -254 q 292 -264 263 -264 q 399 -224 360 -264 q 438 -104 438 -183 q 409 -21 438 -56 q 338 42 381 14 q 247 95 296 69 q 155 153 197 121 q 84 226 113 185 q 56 326 56 267 q 101 438 56 386 q 243 514 146 490 q 183 559 211 535 q 132 613 154 583 q 97 680 110 643 q 83 764 83 717 q 102 851 83 811 q 159 922 121 892 q 256 969 197 951 q 396 986 315 986 q 504 973 458 986 q 580 938 550 960 q 624 890 610 917 q 639 833 639 863 q 610 758 639 786 q 535 729 582 729 q 513 730 524 729 q 496 732 503 731 q 479 736 486 733 l 479 951 q 461 954 469 953 q 444 957 453 956 q 424 958 435 958 q 347 919 382 958 q 313 806 313 879 q 339 720 313 756 q 404 656 365 685 q 490 600 443 626 q 575 542 536 574 q 640 468 614 510 q 667 368 667 426 q 622 265 667 315 q 479 194 578 215 q 548 151 514 175 q 608 98 582 128 q 651 28 635 68 q 667 -62 667 -11 q 647 -154 667 -112 q 586 -226 628 -196 q 478 -274 544 -257 q 319 -292 413 -292 m 444 208 q 451 228 447 215 q 456 256 454 239 q 458 299 458 272 q 430 379 458 343 q 368 440 401 415 q 278 493 328 469 q 271 474 274 486 q 266 446 268 463 q 264 403 264 429 q 292 322 264 358 q 354 261 319 286 q 444 208 393 232 z "},"™":{"ha":1236,"x_min":42,"x_max":1188,"o":"m 500 799 l 472 799 q 444 838 457 815 q 425 883 433 857 q 417 944 417 910 l 347 944 l 347 549 l 403 535 l 403 514 l 139 514 l 139 535 l 194 549 l 194 944 l 125 944 q 117 883 125 910 q 97 838 108 857 q 69 799 85 815 l 42 799 l 42 972 l 500 972 l 500 799 m 694 535 l 694 514 l 521 514 l 521 535 l 590 556 l 590 938 l 535 951 l 535 972 l 653 972 q 719 947 689 972 q 764 896 749 922 l 879 692 l 972 896 q 1012 947 983 922 q 1076 972 1040 972 l 1188 972 l 1188 951 l 1132 938 l 1132 549 l 1188 535 l 1188 514 l 924 514 l 924 535 l 979 549 l 979 819 l 833 500 l 806 500 l 625 819 l 625 556 l 694 535 z "},"¶":{"ha":819,"x_min":49,"x_max":785,"o":"m 375 -278 l 375 375 q 131 453 213 375 q 49 674 49 532 q 131 894 49 815 q 375 972 213 972 l 785 972 l 785 931 l 674 931 l 674 -278 l 597 -278 l 597 931 l 451 931 l 451 -278 l 375 -278 z "},"»":{"ha":611,"x_min":42,"x_max":590,"o":"m 229 28 l 194 63 l 451 347 l 194 632 l 229 667 l 590 347 l 229 28 m 76 104 l 42 139 l 208 347 l 42 556 l 76 590 l 340 347 l 76 104 z "},"«":{"ha":611,"x_min":21,"x_max":569,"o":"m 21 347 l 382 667 l 417 632 l 160 347 l 417 63 l 382 28 l 21 347 m 271 347 l 535 590 l 569 556 l 403 347 l 569 139 l 535 104 l 271 347 z "},"º":{"ha":542,"x_min":42,"x_max":500,"o":"m 347 743 q 340 850 347 808 q 322 916 333 892 q 297 949 311 940 q 271 958 283 958 q 244 949 258 958 q 219 916 231 940 q 201 850 208 892 q 194 743 194 808 q 201 636 194 678 q 219 570 208 594 q 244 537 231 546 q 271 528 258 528 q 297 537 283 528 q 322 570 311 546 q 340 636 333 594 q 347 743 347 678 m 500 743 q 483 644 500 689 q 435 567 465 599 q 363 517 404 535 q 271 500 321 500 q 179 517 221 500 q 107 567 138 535 q 59 644 76 599 q 42 743 42 689 q 59 842 42 797 q 107 919 76 888 q 179 969 138 951 q 271 986 221 986 q 363 969 321 986 q 435 919 404 951 q 483 842 465 888 q 500 743 500 797 z "},"¹":{"ha":396,"x_min":42,"x_max":354,"o":"m 299 549 l 354 535 l 354 514 l 90 514 l 90 535 l 146 549 l 146 861 l 63 799 l 42 819 l 194 972 l 299 972 l 299 549 z "},"²":{"ha":479,"x_min":42,"x_max":438,"o":"m 243 986 q 390 945 342 986 q 438 847 438 904 q 417 776 438 806 q 365 726 397 747 q 292 688 332 704 q 212 656 251 672 q 138 622 172 640 q 83 576 104 603 l 347 576 q 359 620 350 600 q 378 656 368 640 q 403 688 389 672 l 431 688 l 431 514 l 42 514 l 42 556 q 60 626 42 597 q 105 678 78 656 q 163 721 132 701 q 222 762 194 740 q 267 810 249 783 q 285 875 285 836 q 263 935 285 911 q 215 958 242 958 q 195 957 204 958 q 178 954 186 956 q 160 951 168 953 l 160 813 q 146 808 153 810 q 131 806 139 807 q 111 806 122 806 q 60 824 79 806 q 42 875 42 843 q 53 916 42 896 q 88 951 64 936 q 150 976 111 967 q 243 986 189 986 z "},"³":{"ha":500,"x_min":42,"x_max":458,"o":"m 243 500 q 150 510 189 500 q 88 535 111 519 q 53 570 64 550 q 42 611 42 590 q 60 662 42 643 q 111 681 79 681 q 131 679 122 681 q 146 676 139 678 q 160 674 153 675 l 160 535 q 178 531 168 532 q 195 528 186 529 q 215 528 204 528 q 281 554 257 528 q 306 632 306 581 q 282 710 306 685 q 222 736 258 736 l 186 736 l 186 764 l 222 764 q 264 789 243 764 q 285 861 285 814 q 264 933 285 908 q 222 958 243 958 q 202 957 211 958 q 185 954 193 956 q 167 951 175 953 l 167 813 q 153 808 160 810 q 138 806 146 807 q 118 806 129 806 q 67 824 86 806 q 49 875 49 843 q 60 916 49 896 q 94 951 71 936 q 157 976 118 967 q 250 986 196 986 q 332 976 297 986 q 390 947 367 965 q 426 907 414 929 q 438 861 438 885 q 413 799 438 821 q 361 767 389 778 q 285 750 326 753 q 371 732 333 746 q 431 697 403 721 q 458 632 458 674 q 408 540 458 579 q 243 500 357 500 z "},"¼":{"ha":979,"x_min":28,"x_max":938,"o":"m 882 972 l 167 0 l 90 0 l 806 972 l 882 972 m 285 549 l 340 535 l 340 514 l 76 514 l 76 535 l 132 549 l 132 861 l 49 799 l 28 819 l 181 972 l 285 972 l 285 549 m 743 472 q 890 431 842 472 q 938 333 938 390 q 917 263 938 292 q 865 212 897 233 q 792 174 832 190 q 712 142 751 158 q 638 108 672 126 q 583 63 604 89 l 847 63 q 859 106 850 86 q 878 142 868 126 q 903 174 889 158 l 931 174 l 931 0 l 542 0 l 542 42 q 560 113 542 83 q 605 165 578 142 q 663 207 632 188 q 722 248 694 226 q 767 296 749 269 q 785 361 785 322 q 763 421 785 397 q 715 444 742 444 q 695 443 704 444 q 678 440 686 442 q 660 438 668 439 l 660 299 q 646 294 653 296 q 631 292 639 293 q 611 292 622 292 q 560 310 579 292 q 542 361 542 329 q 553 402 542 382 q 588 438 564 422 q 650 463 611 453 q 743 472 689 472 z "},"½":{"ha":954,"x_min":28,"x_max":913,"o":"m 896 972 l 181 0 l 104 0 l 819 972 l 896 972 m 285 549 l 340 535 l 340 514 l 76 514 l 76 535 l 132 549 l 132 861 l 49 799 l 28 819 l 181 972 l 285 972 l 285 549 m 451 139 l 743 458 l 826 458 l 826 146 l 913 146 l 913 104 l 826 104 l 826 35 l 882 21 l 882 0 l 618 0 l 618 21 l 674 35 l 674 104 l 472 104 l 451 139 m 507 146 l 674 146 l 674 326 l 507 146 z "},"¾":{"ha":982,"x_min":42,"x_max":940,"o":"m 479 139 l 771 458 l 854 458 l 854 146 l 940 146 l 940 104 l 854 104 l 854 35 l 910 21 l 910 0 l 646 0 l 646 21 l 701 35 l 701 104 l 500 104 l 479 139 m 535 146 l 701 146 l 701 326 l 535 146 m 938 972 l 222 0 l 146 0 l 861 972 l 938 972 m 243 500 q 150 510 189 500 q 88 535 111 519 q 53 570 64 550 q 42 611 42 590 q 60 662 42 643 q 111 681 79 681 q 131 679 122 681 q 146 676 139 678 q 160 674 153 675 l 160 535 q 178 531 168 532 q 195 528 186 529 q 215 528 204 528 q 281 554 257 528 q 306 632 306 581 q 282 710 306 685 q 222 736 258 736 l 186 736 l 186 764 l 222 764 q 264 789 243 764 q 285 861 285 814 q 264 933 285 908 q 222 958 243 958 q 202 957 211 958 q 185 954 193 956 q 167 951 175 953 l 167 813 q 153 808 160 810 q 138 806 146 807 q 118 806 129 806 q 67 824 86 806 q 49 875 49 843 q 60 916 49 896 q 94 951 71 936 q 157 976 118 967 q 250 986 196 986 q 332 976 297 986 q 390 947 367 965 q 426 907 414 929 q 438 861 438 885 q 413 799 438 821 q 361 767 389 778 q 285 750 326 753 q 371 732 333 746 q 431 697 403 721 q 458 632 458 674 q 408 540 458 579 q 243 500 357 500 z "},"ª":{"ha":576,"x_min":42,"x_max":535,"o":"m 215 722 q 204 699 210 713 q 194 639 194 672 q 215 560 194 586 q 257 535 236 535 q 285 546 272 535 q 307 571 297 557 q 326 608 318 586 l 326 729 q 285 728 306 729 q 250 725 265 726 q 215 722 232 724 m 271 986 q 425 932 371 986 q 479 778 479 878 l 479 549 l 535 535 l 535 514 l 451 514 q 393 524 415 514 q 360 549 371 535 q 340 583 346 564 q 314 542 331 560 q 275 513 299 526 q 215 500 251 500 q 84 536 126 500 q 42 625 42 572 q 46 663 42 646 q 56 690 50 679 q 69 715 61 704 q 151 736 108 726 q 233 750 188 743 q 326 757 279 757 l 326 806 q 303 926 326 894 q 243 958 279 958 q 223 957 232 958 q 206 954 214 956 q 188 951 196 953 l 188 813 q 174 808 181 810 q 158 806 167 807 q 139 806 150 806 q 88 824 107 806 q 69 875 69 843 q 81 916 69 896 q 115 951 92 936 q 178 976 139 967 q 271 986 217 986 z "},"i":{"ha":472,"x_min":56,"x_max":444,"o":"m 132 868 q 142 913 132 892 q 167 951 151 935 q 205 976 183 967 q 250 986 226 986 q 295 976 274 986 q 333 951 317 967 q 358 913 349 935 q 368 868 368 892 q 358 823 368 844 q 333 785 349 801 q 295 760 317 769 q 250 750 274 750 q 205 760 226 750 q 167 785 183 769 q 142 823 151 801 q 132 868 132 844 m 236 694 q 361 569 361 694 l 361 42 l 444 21 l 444 0 l 56 0 l 56 21 l 139 42 l 139 653 l 56 674 l 56 694 l 236 694 z "},"`":{"ha":306,"x_min":28,"x_max":264,"o":"m 208 972 l 264 764 l 215 764 l 28 972 l 208 972 z "},"|":{"ha":313,"x_min":118,"x_max":194,"o":"m 194 972 l 194 -278 l 118 -278 l 118 972 l 194 972 z "},"~":{"ha":715,"x_min":42,"x_max":674,"o":"m 528 479 q 607 510 575 479 q 639 583 639 542 l 674 583 q 622 387 674 447 q 486 326 571 326 q 400 342 436 326 q 331 378 364 358 q 265 415 299 399 q 188 431 232 431 q 108 399 140 431 q 76 326 76 368 l 42 326 q 94 523 42 463 q 229 583 146 583 q 316 567 279 583 q 386 531 353 551 q 453 495 419 511 q 528 479 486 479 z "},"‚":{"ha":340,"x_min":63,"x_max":278,"o":"m 97 -146 q 156 -114 129 -135 q 200 -67 179 -96 q 229 7 221 -37 q 211 -4 221 1 q 167 -14 192 -14 q 94 17 125 -14 q 63 90 63 49 q 94 163 63 132 q 167 194 125 194 q 246 161 214 194 q 278 69 278 128 q 252 -55 278 -7 q 194 -131 226 -103 q 111 -181 158 -164 l 97 -146 z "},"„":{"ha":604,"x_min":63,"x_max":542,"o":"m 97 -146 q 156 -114 129 -135 q 200 -67 179 -96 q 229 7 221 -37 q 211 -4 221 1 q 167 -14 192 -14 q 94 17 125 -14 q 63 90 63 49 q 94 163 63 132 q 167 194 125 194 q 246 161 214 194 q 278 69 278 128 q 252 -55 278 -7 q 194 -131 226 -103 q 111 -181 158 -164 l 97 -146 m 361 -146 q 419 -114 393 -135 q 464 -67 443 -96 q 493 7 485 -37 q 475 -4 485 1 q 431 -14 456 -14 q 358 17 389 -14 q 326 90 326 49 q 358 163 326 132 q 431 194 389 194 q 510 161 478 194 q 542 69 542 128 q 516 -55 542 -7 q 458 -131 490 -103 q 375 -181 422 -164 l 361 -146 z "},"”":{"ha":604,"x_min":63,"x_max":542,"o":"m 97 646 q 156 678 129 657 q 200 725 179 696 q 229 799 221 754 q 211 788 221 793 q 167 778 192 778 q 94 809 125 778 q 63 882 63 840 q 94 955 63 924 q 167 986 125 986 q 246 953 214 986 q 278 861 278 919 q 252 737 278 785 q 194 661 226 689 q 111 611 158 628 l 97 646 m 361 646 q 419 678 393 657 q 464 725 443 696 q 493 799 485 754 q 475 788 485 793 q 431 778 456 778 q 358 809 389 778 q 326 882 326 840 q 358 955 326 924 q 431 986 389 986 q 510 953 478 986 q 542 861 542 919 q 516 737 542 785 q 458 661 490 689 q 375 611 422 628 l 361 646 z "},"“":{"ha":604,"x_min":63,"x_max":542,"o":"m 507 951 q 449 919 475 940 q 403 872 425 901 q 375 799 382 843 q 393 808 383 803 q 413 816 401 813 q 438 819 424 819 q 510 788 479 819 q 542 715 542 757 q 510 642 542 674 q 438 611 479 611 q 358 644 390 611 q 326 736 326 678 q 352 860 326 811 q 410 936 378 908 q 493 986 446 969 l 507 951 m 243 951 q 185 919 211 940 q 140 872 161 901 q 111 799 118 843 q 129 808 119 803 q 149 816 138 813 q 174 819 160 819 q 247 788 215 819 q 278 715 278 757 q 247 642 278 674 q 174 611 215 611 q 94 644 126 611 q 63 736 63 678 q 88 860 63 811 q 146 936 114 908 q 229 986 182 969 l 243 951 z "},"–":{"ha":778,"x_min":42,"x_max":736,"o":"m 42 410 l 42 465 l 736 465 l 736 410 l 42 410 z "},"—":{"ha":1083,"x_min":42,"x_max":1042,"o":"m 42 410 l 42 465 l 1042 465 l 1042 410 l 42 410 z "},"›":{"ha":507,"x_min":42,"x_max":486,"o":"m 486 347 l 83 14 l 42 63 l 368 347 l 42 632 l 83 681 l 486 347 z "},"¬":{"ha":653,"x_min":42,"x_max":611,"o":"m 549 444 l 42 444 l 42 507 l 611 507 l 611 306 l 549 306 l 549 444 z "},"¨":{"ha":507,"x_min":28,"x_max":479,"o":"m 28 875 q 56 944 28 917 q 125 972 83 972 q 194 944 167 972 q 222 875 222 917 q 194 806 222 833 q 125 778 167 778 q 56 806 83 778 q 28 875 28 833 m 285 875 q 313 944 285 917 q 382 972 340 972 q 451 944 424 972 q 479 875 479 917 q 451 806 479 833 q 382 778 424 778 q 313 806 340 778 q 285 875 285 833 z "},"·":{"ha":389,"x_min":90,"x_max":299,"o":"m 299 486 q 267 407 299 439 q 194 375 236 375 q 122 407 153 375 q 90 486 90 439 q 122 565 90 533 q 194 597 153 597 q 267 565 236 597 q 299 486 299 533 z "},"•":{"ha":458,"x_min":90,"x_max":368,"o":"m 368 458 q 330 358 368 396 q 229 319 292 319 q 128 358 167 319 q 90 458 90 396 q 128 559 90 521 q 229 597 167 597 q 330 559 292 597 q 368 458 368 521 z "},"´":{"ha":306,"x_min":42,"x_max":278,"o":"m 278 972 l 90 764 l 42 764 l 97 972 l 278 972 z "},"¡":{"ha":431,"x_min":83,"x_max":347,"o":"m 347 -139 q 308 -256 347 -212 q 215 -299 268 -299 q 123 -256 163 -299 q 83 -139 83 -212 l 194 396 l 236 396 l 347 -139 m 319 597 q 288 518 319 550 q 215 486 257 486 q 142 518 174 486 q 111 597 111 550 q 142 676 111 644 q 215 708 174 708 q 288 676 257 708 q 319 597 319 644 z "},"¿":{"ha":778,"x_min":49,"x_max":757,"o":"m 486 -264 q 533 -261 513 -264 q 568 -254 553 -258 q 597 -243 585 -249 l 597 -21 q 614 -18 604 -19 q 631 -15 621 -17 q 653 -14 642 -14 q 728 -42 700 -14 q 757 -118 757 -71 q 739 -182 757 -150 q 683 -240 721 -214 q 590 -282 646 -265 q 458 -299 533 -299 q 274 -276 351 -299 q 147 -216 197 -254 q 73 -126 97 -178 q 49 -14 49 -74 q 133 180 49 101 q 396 285 218 258 l 403 396 l 458 396 l 465 264 q 394 226 426 249 q 340 172 363 204 q 304 94 317 139 q 292 -14 292 49 q 341 -207 292 -150 q 486 -264 390 -264 m 333 597 q 365 676 333 644 q 438 708 396 708 q 510 676 479 708 q 542 597 542 644 q 510 518 542 550 q 438 486 479 486 q 365 518 396 486 q 333 597 333 550 z "},"÷":{"ha":694,"x_min":42,"x_max":653,"o":"m 42 431 l 42 493 l 653 493 l 653 431 l 42 431 m 451 208 q 420 135 451 167 q 347 104 389 104 q 274 135 306 104 q 243 208 243 167 q 274 281 243 250 q 347 313 306 313 q 420 281 389 313 q 451 208 451 250 m 451 715 q 420 642 451 674 q 347 611 389 611 q 274 642 306 611 q 243 715 243 674 q 274 788 243 757 q 347 819 306 819 q 420 788 389 819 q 451 715 451 757 z "},"×":{"ha":564,"x_min":42,"x_max":522,"o":"m 478 232 l 282 428 l 86 232 l 42 275 l 238 472 l 42 668 l 86 713 l 282 517 l 478 713 l 522 668 l 326 472 l 522 275 l 478 232 z "},"…":{"ha":972,"x_min":63,"x_max":910,"o":"m 271 90 q 240 17 271 49 q 167 -14 208 -14 q 94 17 125 -14 q 63 90 63 49 q 94 163 63 132 q 167 194 125 194 q 240 163 208 194 q 271 90 271 132 m 590 90 q 559 17 590 49 q 486 -14 528 -14 q 413 17 444 -14 q 382 90 382 49 q 413 163 382 132 q 486 194 444 194 q 559 163 528 194 q 590 90 590 132 m 910 90 q 878 17 910 49 q 806 -14 847 -14 q 733 17 764 -14 q 701 90 701 49 q 733 163 701 132 q 806 194 764 194 q 878 163 847 194 q 910 90 910 132 z "},"€":{"ha":965,"x_min":14,"x_max":917,"o":"m 131 583 q 180 758 143 682 q 273 887 217 835 q 403 966 329 939 q 564 993 478 993 q 653 978 613 993 q 724 947 694 964 q 785 903 758 928 q 809 935 796 921 q 833 960 822 950 q 861 979 847 971 l 896 979 l 896 715 l 840 715 q 786 836 821 782 q 708 920 757 882 q 590 958 660 958 q 516 940 553 958 q 449 877 479 921 q 399 761 419 833 q 371 583 378 689 l 757 583 l 757 542 l 368 542 l 368 417 l 743 417 l 743 375 l 372 375 q 402 203 381 272 q 457 92 424 133 q 533 32 490 50 q 625 14 576 14 q 721 35 675 14 q 803 94 767 57 q 860 178 839 131 q 882 278 882 225 l 917 278 q 892 164 917 218 q 825 69 868 110 q 724 3 782 28 q 597 -21 665 -21 q 282 81 404 -21 q 132 375 160 182 l 14 375 l 14 417 l 126 417 q 125 443 125 429 l 125 486 l 125 522 q 126 542 125 532 l 28 542 l 28 583 l 131 583 z "},"‰":{"ha":1514,"x_min":42,"x_max":1472,"o":"m 917 972 l 201 0 l 125 0 l 840 972 l 917 972 m 819 229 q 813 336 819 294 q 794 402 806 378 q 769 435 783 426 q 743 444 756 444 q 717 435 731 444 q 692 402 703 426 q 674 336 681 378 q 667 229 667 294 q 674 122 667 164 q 692 56 681 81 q 717 23 703 32 q 743 14 731 14 q 769 23 756 14 q 794 56 783 32 q 813 122 806 81 q 819 229 819 164 m 972 229 q 955 130 972 175 q 907 53 938 85 q 835 3 876 21 q 743 -14 793 -14 q 651 3 693 -14 q 579 53 610 21 q 531 130 549 85 q 514 229 514 175 q 531 328 514 283 q 579 406 549 374 q 651 455 610 438 q 743 472 693 472 q 835 455 793 472 q 907 406 876 438 q 955 328 938 374 q 972 229 972 283 m 347 743 q 340 850 347 808 q 322 916 333 892 q 297 949 311 940 q 271 958 283 958 q 244 949 258 958 q 219 916 231 940 q 201 850 208 892 q 194 743 194 808 q 201 636 194 678 q 219 570 208 594 q 244 537 231 546 q 271 528 258 528 q 297 537 283 528 q 322 570 311 546 q 340 636 333 594 q 347 743 347 678 m 500 743 q 483 644 500 689 q 435 567 465 599 q 363 517 404 535 q 271 500 321 500 q 179 517 221 500 q 107 567 138 535 q 59 644 76 599 q 42 743 42 689 q 59 842 42 797 q 107 919 76 888 q 179 969 138 951 q 271 986 221 986 q 363 969 321 986 q 435 919 404 951 q 483 842 465 888 q 500 743 500 797 m 1319 229 q 1313 336 1319 294 q 1294 402 1306 378 q 1269 435 1283 426 q 1243 444 1256 444 q 1217 435 1231 444 q 1192 402 1203 426 q 1174 336 1181 378 q 1167 229 1167 294 q 1174 122 1167 164 q 1192 56 1181 81 q 1217 23 1203 32 q 1243 14 1231 14 q 1269 23 1256 14 q 1294 56 1283 32 q 1313 122 1306 81 q 1319 229 1319 164 m 1472 229 q 1455 130 1472 175 q 1407 53 1438 85 q 1335 3 1376 21 q 1243 -14 1293 -14 q 1151 3 1193 -14 q 1079 53 1110 21 q 1031 130 1049 85 q 1014 229 1014 175 q 1031 328 1014 283 q 1079 406 1049 374 q 1151 455 1110 438 q 1243 472 1193 472 q 1335 455 1293 472 q 1407 406 1376 438 q 1455 328 1438 374 q 1472 229 1472 283 z "},"­":{"ha":639,"x_min":42,"x_max":597,"o":"m 597 479 l 597 417 l 42 417 l 42 479 l 597 479 z "},"°":{"ha":514,"x_min":42,"x_max":472,"o":"m 472 771 q 457 688 472 726 q 414 619 442 649 q 347 573 386 590 q 257 556 307 556 q 167 573 207 556 q 100 619 128 590 q 57 688 72 649 q 42 771 42 726 q 57 854 42 815 q 100 922 72 893 q 167 969 128 951 q 257 986 207 986 q 347 969 307 986 q 414 922 386 951 q 457 854 442 893 q 472 771 472 815 m 368 771 q 336 881 368 844 q 257 917 304 917 q 178 881 210 917 q 146 771 146 844 q 178 661 146 697 q 257 625 210 625 q 336 661 304 625 q 368 771 368 697 z "},"±":{"ha":701,"x_min":42,"x_max":660,"o":"m 319 188 l 319 444 l 42 444 l 42 507 l 319 507 l 319 792 l 382 792 l 382 507 l 660 507 l 660 444 l 382 444 l 382 188 l 319 188 m 646 132 l 646 69 l 56 69 l 56 132 l 646 132 z "},"¦":{"ha":313,"x_min":118,"x_max":194,"o":"m 194 972 l 194 472 l 118 472 l 118 972 l 194 972 m 118 -278 l 118 222 l 194 222 l 194 -278 l 118 -278 z "},"¥":{"ha":924,"x_min":0,"x_max":938,"o":"m 181 306 l 354 306 l 354 361 l 340 389 l 181 389 l 181 431 l 319 431 l 69 931 l 0 951 l 0 972 l 174 972 q 242 963 213 972 q 293 939 271 954 q 332 902 315 924 q 361 854 349 881 l 567 447 l 778 910 l 674 951 l 674 972 l 938 972 l 938 951 l 826 910 l 607 431 l 757 431 l 757 389 l 589 389 l 583 375 l 583 306 l 757 306 l 757 264 l 583 264 l 583 42 l 667 21 l 667 0 l 271 0 l 271 21 l 354 42 l 354 264 l 181 264 l 181 306 z "},"¢":{"ha":736,"x_min":56,"x_max":694,"o":"m 458 806 l 458 714 q 561 697 518 711 q 633 663 604 683 q 674 615 661 642 q 688 563 688 589 q 659 487 688 515 q 583 458 631 458 q 562 459 572 458 q 544 461 551 460 q 528 465 535 463 l 528 674 q 508 681 519 676 q 486 685 499 683 q 458 688 474 688 l 458 14 q 537 29 500 14 q 601 70 574 44 q 644 128 628 96 q 660 194 660 161 l 694 194 q 678 117 694 154 q 630 51 661 81 q 556 3 599 22 q 458 -19 513 -15 l 458 -111 l 417 -111 l 417 -21 q 149 81 243 -17 q 56 347 56 178 q 150 613 56 515 q 417 715 244 711 l 417 806 l 458 806 m 292 347 q 301 203 292 263 q 326 106 310 144 q 366 47 343 68 q 417 18 389 26 l 417 682 q 366 654 389 675 q 326 594 343 633 q 301 494 310 554 q 292 347 292 433 z "},"¤":{"ha":958,"x_min":69,"x_max":910,"o":"m 69 285 l 174 285 l 174 375 l 69 375 l 69 417 l 174 417 l 174 931 l 90 951 l 90 972 l 479 972 q 681 952 599 972 q 815 893 764 932 q 888 799 865 854 q 910 674 910 744 q 888 548 910 603 q 815 454 865 493 q 681 395 764 415 q 479 375 599 375 l 403 375 l 403 285 l 750 285 l 750 243 l 403 243 l 403 42 l 486 21 l 486 0 l 90 0 l 90 21 l 174 42 l 174 243 l 69 243 l 69 285 m 479 417 q 618 480 563 417 q 674 674 674 543 q 618 873 674 808 q 479 938 563 938 l 403 938 l 403 417 l 479 417 z "},"˜":{"ha":438,"x_min":28,"x_max":410,"o":"m 285 806 q 231 817 253 806 q 191 840 210 828 q 156 864 172 853 q 118 875 139 875 q 74 857 92 875 q 56 813 56 839 l 28 813 q 61 934 28 896 q 153 972 94 972 q 206 961 183 972 q 247 938 228 950 q 282 914 265 925 q 319 903 299 903 q 364 921 346 903 q 382 965 382 939 l 410 965 q 376 844 410 882 q 285 806 343 806 z "},"<":{"ha":701,"x_min":35,"x_max":653,"o":"m 653 694 l 653 618 l 174 347 l 653 76 l 653 0 l 35 347 l 653 694 z "},"‹":{"ha":507,"x_min":21,"x_max":465,"o":"m 424 681 l 465 632 l 139 347 l 465 63 l 424 14 l 21 347 l 424 681 z "},"ˇ":{"ha":458,"x_min":28,"x_max":431,"o":"m 271 986 l 188 986 l 28 1194 l 76 1194 l 229 1083 l 382 1194 l 431 1194 l 271 986 z "},"ˆ":{"ha":458,"x_min":28,"x_max":431,"o":"m 229 993 l 431 764 l 382 764 l 229 861 l 76 764 l 28 764 l 229 993 z "},"µ":{"ha":910,"x_min":42,"x_max":882,"o":"m 42 -278 l 42 -257 l 125 -236 l 125 653 l 42 674 l 42 694 l 222 694 q 347 569 347 694 l 347 222 q 357 141 347 175 q 381 85 367 107 q 415 52 396 63 q 451 42 433 42 q 506 59 483 42 q 544 97 529 76 q 576 153 563 122 l 576 653 l 493 674 l 493 694 l 882 694 l 882 674 l 799 653 l 799 -7 l 785 -7 q 687 13 724 -7 q 631 56 650 32 q 597 118 607 82 q 564 56 585 82 q 518 13 546 32 q 451 -7 490 -7 q 406 0 425 -7 q 374 17 386 7 q 347 42 358 28 l 347 -153 q 222 -278 347 -278 l 42 -278 z "},"ĸ":{"ha":833,"x_min":56,"x_max":847,"o":"m 236 694 q 361 569 361 694 l 361 361 l 618 632 l 514 674 l 514 694 l 778 694 l 778 674 l 667 632 l 507 465 l 778 42 l 847 21 l 847 0 l 667 0 q 603 8 631 0 q 553 33 575 17 q 513 70 531 49 q 479 118 496 92 l 361 306 l 361 42 l 444 21 l 444 0 l 56 0 l 56 21 l 139 42 l 139 653 l 56 674 l 56 694 l 236 694 z "},"Ł":{"ha":861,"x_min":49,"x_max":826,"o":"m 479 972 l 479 951 l 396 931 l 396 626 l 507 694 l 507 646 l 396 578 l 396 35 l 694 35 q 708 129 694 89 q 739 197 722 169 q 785 250 758 229 l 826 250 l 826 0 l 83 0 l 83 21 l 167 42 l 167 439 l 49 368 l 49 417 l 167 488 l 167 931 l 83 951 l 83 972 l 479 972 z "},"¸":{"ha":279,"x_min":28,"x_max":251,"o":"m 71 0 l 119 0 l 119 -69 q 217 -101 182 -69 q 251 -174 251 -132 q 215 -247 251 -215 q 106 -278 179 -278 q 76 -277 90 -278 q 51 -275 63 -276 q 28 -271 39 -274 l 28 -229 q 42 -236 33 -233 q 78 -243 56 -243 q 128 -224 110 -243 q 147 -174 147 -206 q 127 -123 147 -142 q 71 -104 107 -104 l 71 0 z "},"æ":{"ha":1222,"x_min":69,"x_max":1174,"o":"m 875 -21 q 756 -1 804 -21 q 679 44 708 19 q 625 111 644 74 q 557 44 596 74 q 472 -1 522 19 q 354 -21 422 -21 q 225 -6 279 -21 q 136 34 171 8 q 85 94 101 60 q 69 167 69 128 q 76 223 69 199 q 93 267 83 247 q 118 306 104 288 q 242 331 176 319 q 367 349 297 340 q 507 361 436 358 l 507 417 q 497 550 507 497 q 467 633 486 603 q 419 676 447 664 q 354 688 390 688 q 326 685 339 688 q 304 681 314 683 q 285 674 293 676 l 285 465 q 267 461 275 463 q 249 459 258 460 q 229 458 240 458 q 153 487 182 458 q 125 563 125 515 q 140 619 125 592 q 185 667 154 646 q 265 702 217 689 q 382 715 314 715 q 496 696 450 715 q 571 653 542 676 q 625 590 604 625 q 676 653 644 625 q 748 696 704 676 q 854 715 792 715 q 985 693 926 715 q 1086 633 1044 671 q 1151 545 1128 596 q 1174 438 1174 494 q 1172 410 1174 422 q 1167 388 1169 397 q 1160 368 1163 376 q 1031 347 1099 356 q 896 333 972 339 q 736 326 819 326 l 736 296 q 750 160 738 214 q 785 74 763 106 q 837 28 807 42 q 903 14 867 14 q 981 29 944 14 q 1045 70 1018 44 q 1088 128 1072 96 q 1104 194 1104 161 l 1139 194 q 1120 114 1139 153 q 1067 45 1101 75 q 983 -3 1032 15 q 875 -21 935 -21 m 736 361 q 819 363 783 361 q 881 368 856 365 q 931 375 910 371 q 938 404 933 389 q 942 433 940 417 q 944 465 944 450 q 935 570 944 528 q 910 639 925 613 q 877 676 896 665 q 840 688 858 688 q 804 675 822 688 q 772 628 786 663 q 747 531 757 593 q 736 368 738 468 l 736 361 m 326 313 q 313 271 318 294 q 303 225 307 251 q 299 167 299 199 q 324 49 299 83 q 382 14 350 14 q 442 34 418 14 q 481 79 465 54 q 507 146 497 108 l 507 326 q 443 324 475 326 q 385 319 411 322 q 326 313 354 315 z "},"œ":{"ha":1278,"x_min":56,"x_max":1229,"o":"m 931 -21 q 807 -1 857 -21 q 725 42 757 18 q 667 104 689 68 q 614 42 649 68 q 535 -1 585 18 q 410 -21 485 -21 q 264 4 329 -21 q 152 77 199 29 q 81 193 106 125 q 56 347 56 261 q 81 501 56 433 q 152 617 106 569 q 264 690 199 665 q 410 715 329 715 q 535 696 485 715 q 614 653 585 676 q 667 590 649 625 q 718 653 685 625 q 792 696 746 676 q 910 715 839 715 q 1041 693 982 715 q 1142 633 1100 671 q 1206 545 1183 596 q 1229 438 1229 494 q 1227 401 1229 417 q 1222 375 1225 386 q 1215 354 1218 363 q 1086 333 1154 342 q 951 319 1028 325 q 792 313 875 313 q 804 169 792 226 q 839 77 817 111 q 892 28 861 43 q 958 14 922 14 q 1037 29 1000 14 q 1101 70 1074 44 q 1144 128 1128 96 q 1160 194 1160 161 l 1194 194 q 1176 114 1194 153 q 1122 45 1157 75 q 1039 -3 1088 15 q 931 -21 990 -21 m 424 7 q 471 22 447 7 q 513 76 494 38 q 544 180 532 114 q 556 347 556 246 q 544 515 556 449 q 513 619 532 581 q 471 672 494 657 q 424 688 447 688 q 376 672 400 688 q 334 619 353 657 q 303 515 315 581 q 292 347 292 449 q 303 180 292 246 q 334 76 315 114 q 376 22 353 38 q 424 7 400 7 m 792 347 q 875 349 839 347 q 936 354 911 351 q 986 361 965 357 q 993 392 989 375 q 998 426 996 407 q 1000 465 1000 444 q 990 570 1000 528 q 966 639 981 613 q 933 676 951 665 q 896 688 914 688 q 859 674 878 688 q 826 624 840 661 q 801 521 811 588 q 792 347 792 454 z "},"Æ":{"ha":1376,"x_min":-42,"x_max":1319,"o":"m 646 368 l 289 368 l 119 63 l 224 21 l 224 0 l -42 0 l -42 21 l 69 63 l 578 972 l 1292 972 l 1292 722 l 1250 722 q 1204 775 1224 743 q 1174 842 1188 803 q 1160 938 1160 882 l 875 938 l 875 500 l 1021 500 q 1036 553 1026 528 q 1057 599 1046 579 q 1083 639 1069 621 l 1125 639 l 1125 326 l 1083 326 q 1057 367 1069 344 q 1036 411 1046 386 q 1021 465 1026 436 l 875 465 l 875 35 l 1188 35 q 1201 129 1188 89 q 1232 197 1215 169 q 1278 250 1251 229 l 1319 250 l 1319 0 l 563 0 l 563 21 l 646 42 l 646 368 m 310 403 l 646 403 l 646 938 l 608 938 l 310 403 z "},"Œ":{"ha":1368,"x_min":63,"x_max":1313,"o":"m 1285 972 l 1285 722 l 1243 722 q 1197 775 1217 743 q 1167 842 1181 803 q 1153 938 1153 882 l 868 938 l 868 500 l 1014 500 q 1029 553 1019 528 q 1050 599 1039 579 q 1076 639 1063 621 l 1118 639 l 1118 326 l 1076 326 q 1050 367 1063 344 q 1029 411 1039 386 q 1014 465 1019 436 l 868 465 l 868 35 l 1181 35 q 1194 129 1181 89 q 1225 197 1208 169 q 1271 250 1244 229 l 1313 250 l 1313 0 l 576 0 q 194 128 326 0 q 63 486 63 257 q 194 844 63 715 q 576 972 326 972 l 1285 972 m 576 938 q 467 915 517 938 q 381 839 417 892 q 326 700 346 786 q 306 486 306 614 q 326 272 306 358 q 381 133 346 186 q 467 58 417 81 q 576 35 517 35 l 639 35 l 639 938 l 576 938 z "},"Þ":{"ha":972,"x_min":69,"x_max":931,"o":"m 444 847 q 661 820 569 847 q 813 745 753 793 q 901 631 872 697 q 931 486 931 564 q 901 342 931 408 q 813 227 872 275 q 661 152 753 179 q 444 125 569 125 l 382 125 l 382 42 l 465 21 l 465 0 l 69 0 l 69 21 l 153 42 l 153 931 l 69 951 l 69 972 l 465 972 l 465 951 l 382 931 l 382 847 l 444 847 m 382 160 l 444 160 q 538 181 494 160 q 615 242 582 201 q 668 344 649 283 q 688 486 688 406 q 668 628 688 567 q 615 730 649 689 q 538 792 582 771 q 444 813 494 813 l 382 813 l 382 160 z "},"þ":{"ha":868,"x_min":42,"x_max":813,"o":"m 222 972 q 347 847 347 972 l 347 625 q 393 669 367 650 q 450 701 417 686 q 528 715 483 715 q 640 692 588 715 q 730 622 692 668 q 790 508 768 576 q 813 347 813 439 q 790 187 813 256 q 728 72 768 118 q 631 3 688 26 q 507 -21 575 -21 q 441 -12 471 -21 q 390 7 411 -4 q 347 35 365 19 l 347 -236 l 431 -257 l 431 -278 l 42 -278 l 42 -257 l 125 -236 l 125 931 l 42 951 l 42 972 l 222 972 m 347 76 q 378 49 361 61 q 412 29 393 38 q 451 21 431 21 q 501 34 478 21 q 540 83 524 47 q 567 182 557 118 q 576 347 576 246 q 567 508 576 446 q 542 606 557 571 q 509 654 528 642 q 472 667 490 667 q 420 649 443 667 q 381 611 397 632 q 347 556 361 586 l 347 76 z "}," ":{"ha":389,"x_min":0,"x_max":0,"o":""},"ð":{"ha":840,"x_min":49,"x_max":785,"o":"m 486 915 q 706 719 628 853 q 785 375 785 585 q 687 81 785 182 q 415 -21 589 -21 q 262 4 329 -21 q 147 74 194 29 q 74 181 99 118 q 49 319 49 244 q 73 458 49 396 q 141 565 97 521 q 244 635 185 610 q 375 660 304 660 q 459 643 424 660 q 518 607 494 626 q 563 556 544 583 q 526 719 557 651 q 444 840 494 788 l 388 736 l 358 754 l 419 865 q 190 944 324 944 l 190 972 q 331 961 265 972 q 454 929 396 950 l 510 1031 l 539 1013 l 486 915 m 285 319 q 297 168 285 228 q 327 72 308 108 q 369 22 346 36 q 415 7 392 7 q 463 22 439 7 q 506 72 488 36 q 537 168 525 108 q 549 319 549 228 l 549 333 q 537 474 549 417 q 504 566 525 531 q 457 617 483 601 q 401 632 431 632 q 363 617 383 632 q 326 567 343 603 q 297 471 308 531 q 285 319 285 411 z "},"¯":{"ha":417,"x_min":28,"x_max":389,"o":"m 28 910 l 28 972 l 389 972 l 389 910 l 28 910 z "},"ß":{"ha":958,"x_min":42,"x_max":924,"o":"m 653 14 q 691 36 674 14 q 708 111 708 58 q 689 189 708 156 q 640 249 669 222 q 576 302 611 276 q 513 357 542 328 q 464 424 483 386 q 444 514 444 461 q 463 606 444 571 q 503 672 482 642 q 544 734 525 701 q 563 819 563 767 q 531 923 563 888 q 458 958 500 958 q 415 947 435 958 q 379 907 394 936 q 356 826 364 878 q 347 694 347 775 l 347 0 l 42 0 l 42 21 l 125 42 l 125 694 q 148 815 125 760 q 214 909 171 869 q 319 971 257 949 q 458 993 381 993 q 576 974 524 993 q 666 926 629 956 q 723 861 703 897 q 743 792 743 825 q 730 700 743 735 q 701 639 717 665 q 673 588 686 613 q 660 528 660 564 q 679 467 660 493 q 728 419 699 442 q 792 375 757 397 q 856 326 826 353 q 904 264 885 299 q 924 181 924 229 q 863 35 924 92 q 681 -21 801 -21 q 618 -11 644 -21 q 575 10 592 -1 q 542 42 556 24 q 517 17 531 26 q 493 1 504 7 q 465 -7 479 -4 l 431 -7 l 431 229 l 486 229 q 531 121 506 168 q 583 47 553 81 q 653 14 613 14 z "},"£":{"ha":833,"x_min":49,"x_max":785,"o":"m 394 528 l 639 528 l 639 486 l 393 486 l 382 236 q 358 149 379 181 q 314 101 338 118 q 250 76 286 82 l 660 76 q 678 149 665 118 q 707 201 692 181 q 743 243 724 226 l 785 243 l 785 0 l 49 0 l 49 33 q 88 47 69 36 q 119 80 106 57 q 141 141 132 103 q 153 236 150 179 l 164 486 l 63 486 l 63 528 l 165 528 l 174 708 q 261 916 181 839 q 493 993 342 993 q 608 980 561 993 q 683 946 654 967 q 724 898 711 925 q 736 842 736 871 q 708 766 736 794 q 632 738 679 738 q 610 738 621 738 q 593 740 600 739 q 576 744 583 742 l 576 953 q 564 958 571 956 q 547 963 557 961 q 521 965 536 965 q 477 954 497 965 q 442 915 457 943 q 417 836 426 886 q 403 708 407 786 l 394 528 z "},"†":{"ha":750,"x_min":42,"x_max":708,"o":"m 708 563 l 625 472 l 417 542 l 507 -83 l 375 -292 l 243 -83 l 333 542 l 125 472 l 42 563 l 125 653 l 333 583 l 271 861 l 375 986 l 479 861 l 417 583 l 625 653 l 708 563 z "},"‡":{"ha":750,"x_min":42,"x_max":708,"o":"m 481 382 l 417 188 l 583 257 l 667 167 l 583 76 l 417 146 l 493 -153 l 375 -292 l 257 -153 l 333 146 l 167 76 l 83 167 l 167 257 l 333 188 l 271 382 l 333 563 l 125 493 l 42 583 l 125 674 l 333 604 l 278 868 l 375 986 l 472 868 l 417 604 l 625 674 l 708 583 l 625 493 l 417 563 l 481 382 z "},"Š":{"ha":826,"x_min":49,"x_max":792,"o":"m 49 0 m 382 14 q 508 61 461 14 q 556 188 556 108 q 519 281 556 242 q 428 356 482 321 q 309 425 374 390 q 190 504 244 460 q 99 608 136 549 q 63 750 63 667 q 83 844 63 800 q 147 921 104 888 q 253 974 189 954 q 403 993 317 993 q 493 978 451 993 q 564 947 535 964 q 625 903 599 928 q 649 935 636 921 q 674 960 663 950 q 701 979 688 971 l 736 979 l 736 715 l 681 715 q 626 836 661 782 q 549 920 597 882 q 431 958 500 958 q 381 947 404 958 q 339 916 357 936 q 310 867 321 896 q 299 806 299 839 q 335 703 299 746 q 426 625 372 661 q 545 554 481 589 q 664 477 610 519 q 755 381 718 435 q 792 250 792 326 q 768 147 792 196 q 697 60 744 97 q 578 1 650 22 q 410 -21 506 -21 q 303 -7 349 -21 q 225 24 257 7 q 160 69 188 43 q 135 36 149 50 q 111 13 122 22 q 83 -7 97 1 l 49 -7 l 49 257 l 104 257 q 163 135 125 189 q 200 90 179 111 q 248 51 221 68 q 308 24 275 35 q 382 14 342 14 m 454 1063 l 371 1063 l 211 1271 l 260 1271 l 413 1160 l 565 1271 l 614 1271 l 454 1063 z "},"Ž":{"ha":882,"x_min":56,"x_max":826,"o":"m 56 0 m 688 35 q 701 129 688 89 q 732 197 715 169 q 778 250 751 229 l 819 250 l 819 0 l 56 0 l 56 35 l 571 938 l 208 938 q 194 842 208 882 q 163 775 179 803 q 118 722 143 743 l 76 722 l 76 972 l 826 972 l 826 938 l 313 35 l 688 35 m 475 1063 l 392 1063 l 232 1271 l 281 1271 l 433 1160 l 586 1271 l 635 1271 l 475 1063 z "},"š":{"ha":750,"x_min":63,"x_max":701,"o":"m 63 0 m 382 -21 q 294 -10 332 -21 q 228 17 256 1 q 174 56 196 33 q 149 28 163 40 q 125 8 136 15 q 97 -7 111 -1 l 63 -7 l 63 229 l 118 229 q 171 121 138 168 q 243 47 199 81 q 354 14 288 14 q 442 43 413 14 q 472 125 472 72 q 442 192 472 164 q 368 244 413 219 q 271 295 324 269 q 174 353 218 321 q 99 426 129 385 q 69 528 69 468 q 85 601 69 567 q 137 660 101 635 q 228 701 172 686 q 361 715 283 715 q 438 703 403 715 q 497 676 472 692 q 550 639 526 660 q 574 666 561 654 q 599 686 588 678 q 626 701 613 694 l 661 701 l 661 465 l 606 465 q 554 572 585 525 q 488 647 528 613 q 389 681 447 681 q 326 653 353 681 q 299 583 299 625 q 328 511 299 542 q 403 454 358 481 q 500 403 447 428 q 597 347 553 378 q 672 276 642 315 q 701 181 701 236 q 685 99 701 136 q 631 35 668 63 q 532 -6 593 8 q 382 -21 471 -21 m 410 786 l 326 786 l 167 994 l 215 994 l 368 883 l 521 994 l 569 994 l 410 786 z "},"ž":{"ha":757,"x_min":56,"x_max":701,"o":"m 56 0 m 201 660 q 187 572 201 610 q 156 506 172 533 q 111 451 136 474 l 69 451 l 69 694 l 701 694 l 701 660 l 306 35 l 569 35 q 583 122 569 83 q 614 189 597 161 q 660 243 633 221 l 701 243 l 701 0 l 56 0 l 56 35 l 451 660 l 201 660 m 417 786 l 333 786 l 174 994 l 222 994 l 375 883 l 528 994 l 576 994 l 417 786 z "},"Ÿ":{"ha":924,"x_min":0,"x_max":938,"o":"m 0 0 m 69 931 l 0 951 l 0 972 l 174 972 q 242 963 213 972 q 293 939 271 954 q 332 902 315 924 q 361 854 349 881 l 567 444 l 778 910 l 674 951 l 674 972 l 938 972 l 938 951 l 826 910 l 583 375 l 583 42 l 667 21 l 667 0 l 271 0 l 271 21 l 354 42 l 354 361 l 69 931 m 264 1146 q 292 1215 264 1188 q 361 1243 319 1243 q 431 1215 403 1243 q 458 1146 458 1188 q 431 1076 458 1104 q 361 1049 403 1049 q 292 1076 319 1049 q 264 1146 264 1104 m 521 1146 q 549 1215 521 1188 q 618 1243 576 1243 q 688 1215 660 1243 q 715 1146 715 1188 q 688 1076 715 1104 q 618 1049 660 1049 q 549 1076 576 1049 q 521 1146 521 1104 z "},"‘":{"ha":340,"x_min":63,"x_max":278,"o":"m 243 951 q 185 919 211 940 q 140 872 161 901 q 111 799 118 843 q 129 808 119 803 q 149 816 138 813 q 174 819 160 819 q 247 788 215 819 q 278 715 278 757 q 247 642 278 674 q 174 611 215 611 q 94 644 126 611 q 63 736 63 678 q 88 860 63 811 q 146 936 114 908 q 229 986 182 969 l 243 951 z "},"’":{"ha":340,"x_min":63,"x_max":278,"o":"m 97 646 q 156 678 129 657 q 200 725 179 696 q 229 799 221 754 q 211 788 221 793 q 167 778 192 778 q 94 809 125 778 q 63 882 63 840 q 94 955 63 924 q 167 986 125 986 q 246 953 214 986 q 278 861 278 919 q 252 737 278 785 q 194 661 226 689 q 111 611 158 628 l 97 646 z "},"À":{"ha":944,"x_min":-28,"x_max":972,"o":"m 0 0 m 229 21 l 229 0 l -28 0 l -28 21 l 83 63 l 465 986 l 507 986 l 903 42 l 972 21 l 972 0 l 806 0 q 683 35 728 0 q 619 118 639 71 l 549 285 l 217 285 l 125 63 l 229 21 m 231 319 l 535 319 l 382 685 l 231 319 m 458 1250 l 514 1042 l 465 1042 l 278 1250 l 458 1250 z "},"Á":{"ha":944,"x_min":-28,"x_max":972,"o":"m 0 0 m 229 21 l 229 0 l -28 0 l -28 21 l 83 63 l 465 986 l 507 986 l 903 42 l 972 21 l 972 0 l 806 0 q 683 35 728 0 q 619 118 639 71 l 549 285 l 217 285 l 125 63 l 229 21 m 231 319 l 535 319 l 382 685 l 231 319 m 694 1250 l 507 1042 l 458 1042 l 514 1250 l 694 1250 z "},"Â":{"ha":944,"x_min":-28,"x_max":972,"o":"m 0 0 m 229 21 l 229 0 l -28 0 l -28 21 l 83 63 l 465 986 l 507 986 l 903 42 l 972 21 l 972 0 l 806 0 q 683 35 728 0 q 619 118 639 71 l 549 285 l 217 285 l 125 63 l 229 21 m 231 319 l 535 319 l 382 685 l 231 319 m 493 1257 l 694 1028 l 646 1028 l 493 1125 l 340 1028 l 292 1028 l 493 1257 z "},"Ã":{"ha":944,"x_min":-28,"x_max":972,"o":"m 0 0 m 229 21 l 229 0 l -28 0 l -28 21 l 83 63 l 465 986 l 507 986 l 903 42 l 972 21 l 972 0 l 806 0 q 683 35 728 0 q 619 118 639 71 l 549 285 l 217 285 l 125 63 l 229 21 m 231 319 l 535 319 l 382 685 l 231 319 m 558 1063 q 505 1074 526 1063 q 465 1097 483 1085 q 429 1121 446 1110 q 392 1132 413 1132 q 347 1114 365 1132 q 329 1069 329 1096 l 301 1069 q 335 1191 301 1153 q 426 1229 368 1229 q 479 1218 457 1229 q 520 1194 501 1207 q 556 1171 539 1182 q 593 1160 572 1160 q 638 1178 619 1160 q 656 1222 656 1196 l 683 1222 q 650 1101 683 1139 q 558 1063 617 1063 z "},"Ä":{"ha":944,"x_min":-28,"x_max":972,"o":"m 0 0 m 229 21 l 229 0 l -28 0 l -28 21 l 83 63 l 465 986 l 507 986 l 903 42 l 972 21 l 972 0 l 806 0 q 683 35 728 0 q 619 118 639 71 l 549 285 l 217 285 l 125 63 l 229 21 m 231 319 l 535 319 l 382 685 l 231 319 m 267 1153 q 294 1222 267 1194 q 364 1250 322 1250 q 433 1222 406 1250 q 461 1153 461 1194 q 433 1083 461 1111 q 364 1056 406 1056 q 294 1083 322 1056 q 267 1153 267 1111 m 524 1153 q 551 1222 524 1194 q 621 1250 579 1250 q 690 1222 663 1250 q 718 1153 718 1194 q 690 1083 718 1111 q 621 1056 663 1056 q 551 1083 579 1056 q 524 1153 524 1111 z "},"Ç":{"ha":903,"x_min":63,"x_max":854,"o":"m 501 993 q 591 978 550 993 q 661 947 632 964 q 722 903 696 928 q 747 935 733 921 q 771 960 760 950 q 799 979 785 971 l 833 979 l 833 715 l 778 715 q 724 836 758 782 q 646 920 694 882 q 528 958 597 958 q 446 935 486 958 q 374 858 406 913 q 324 712 343 803 q 306 486 306 621 q 325 260 306 350 q 379 115 344 169 q 461 37 414 60 q 563 14 508 14 q 658 35 613 14 q 740 94 704 57 q 798 178 776 131 q 819 278 819 225 l 854 278 q 830 164 854 218 q 763 69 806 110 q 661 3 719 28 q 535 -21 603 -21 l 518 -21 l 518 -69 q 615 -101 581 -69 q 650 -174 650 -132 q 614 -247 650 -215 q 504 -278 578 -278 q 475 -277 489 -278 q 450 -275 461 -276 q 426 -271 438 -274 l 426 -229 q 440 -236 432 -233 q 476 -243 454 -243 q 527 -224 508 -243 q 546 -174 546 -206 q 526 -123 546 -142 q 469 -104 506 -104 l 469 -17 q 170 130 278 1 q 63 486 63 258 q 94 703 63 608 q 185 862 126 797 q 324 960 243 926 q 501 993 404 993 z "},"È":{"ha":896,"x_min":69,"x_max":840,"o":"m 69 0 m 542 500 q 557 553 547 528 q 578 599 567 579 q 604 639 590 621 l 646 639 l 646 326 l 604 326 q 578 367 590 344 q 557 411 567 386 q 542 465 547 436 l 382 465 l 382 35 l 708 35 q 722 129 708 89 q 753 197 736 169 q 799 250 772 229 l 840 250 l 840 0 l 69 0 l 69 21 l 153 42 l 153 931 l 69 951 l 69 972 l 813 972 l 813 722 l 771 722 q 725 775 744 743 q 694 842 708 803 q 681 938 681 882 l 382 938 l 382 500 l 542 500 m 482 1250 l 538 1042 l 489 1042 l 301 1250 l 482 1250 z "},"É":{"ha":896,"x_min":69,"x_max":840,"o":"m 69 0 m 542 500 q 557 553 547 528 q 578 599 567 579 q 604 639 590 621 l 646 639 l 646 326 l 604 326 q 578 367 590 344 q 557 411 567 386 q 542 465 547 436 l 382 465 l 382 35 l 708 35 q 722 129 708 89 q 753 197 736 169 q 799 250 772 229 l 840 250 l 840 0 l 69 0 l 69 21 l 153 42 l 153 931 l 69 951 l 69 972 l 813 972 l 813 722 l 771 722 q 725 775 744 743 q 694 842 708 803 q 681 938 681 882 l 382 938 l 382 500 l 542 500 m 649 1250 l 461 1042 l 413 1042 l 468 1250 l 649 1250 z "},"Ê":{"ha":896,"x_min":69,"x_max":840,"o":"m 69 0 m 542 500 q 557 553 547 528 q 578 599 567 579 q 604 639 590 621 l 646 639 l 646 326 l 604 326 q 578 367 590 344 q 557 411 567 386 q 542 465 547 436 l 382 465 l 382 35 l 708 35 q 722 129 708 89 q 753 197 736 169 q 799 250 772 229 l 840 250 l 840 0 l 69 0 l 69 21 l 153 42 l 153 931 l 69 951 l 69 972 l 813 972 l 813 722 l 771 722 q 725 775 744 743 q 694 842 708 803 q 681 938 681 882 l 382 938 l 382 500 l 542 500 m 475 1285 l 676 1056 l 628 1056 l 475 1153 l 322 1056 l 274 1056 l 475 1285 z "},"Ë":{"ha":896,"x_min":69,"x_max":840,"o":"m 69 0 m 542 500 q 557 553 547 528 q 578 599 567 579 q 604 639 590 621 l 646 639 l 646 326 l 604 326 q 578 367 590 344 q 557 411 567 386 q 542 465 547 436 l 382 465 l 382 35 l 708 35 q 722 129 708 89 q 753 197 736 169 q 799 250 772 229 l 840 250 l 840 0 l 69 0 l 69 21 l 153 42 l 153 931 l 69 951 l 69 972 l 813 972 l 813 722 l 771 722 q 725 775 744 743 q 694 842 708 803 q 681 938 681 882 l 382 938 l 382 500 l 542 500 m 250 1167 q 278 1236 250 1208 q 347 1264 306 1264 q 417 1236 389 1264 q 444 1167 444 1208 q 417 1097 444 1125 q 347 1069 389 1069 q 278 1097 306 1069 q 250 1167 250 1125 m 507 1167 q 535 1236 507 1208 q 604 1264 563 1264 q 674 1236 646 1264 q 701 1167 701 1208 q 674 1097 701 1125 q 604 1069 646 1069 q 535 1097 563 1069 q 507 1167 507 1125 z "},"Ì":{"ha":535,"x_min":65,"x_max":465,"o":"m 65 0 m 69 951 l 69 972 l 465 972 l 465 951 l 382 931 l 382 42 l 465 21 l 465 0 l 69 0 l 69 21 l 153 42 l 153 931 l 69 951 m 246 1250 l 301 1042 l 253 1042 l 65 1250 l 246 1250 z "},"Í":{"ha":535,"x_min":69,"x_max":468,"o":"m 69 0 m 69 951 l 69 972 l 465 972 l 465 951 l 382 931 l 382 42 l 465 21 l 465 0 l 69 0 l 69 21 l 153 42 l 153 931 l 69 951 m 468 1250 l 281 1042 l 232 1042 l 288 1250 l 468 1250 z "},"Î":{"ha":535,"x_min":65,"x_max":468,"o":"m 65 0 m 69 951 l 69 972 l 465 972 l 465 951 l 382 931 l 382 42 l 465 21 l 465 0 l 69 0 l 69 21 l 153 42 l 153 931 l 69 951 m 267 1292 l 468 1063 l 419 1063 l 267 1160 l 114 1063 l 65 1063 l 267 1292 z "},"Ï":{"ha":535,"x_min":42,"x_max":493,"o":"m 42 0 m 69 951 l 69 972 l 465 972 l 465 951 l 382 931 l 382 42 l 465 21 l 465 0 l 69 0 l 69 21 l 153 42 l 153 931 l 69 951 m 42 1174 q 69 1243 42 1215 q 139 1271 97 1271 q 208 1243 181 1271 q 236 1174 236 1215 q 208 1104 236 1132 q 139 1076 181 1076 q 69 1104 97 1076 q 42 1174 42 1132 m 299 1174 q 326 1243 299 1215 q 396 1271 354 1271 q 465 1243 438 1271 q 493 1174 493 1215 q 465 1104 493 1132 q 396 1076 438 1076 q 326 1104 354 1076 q 299 1174 299 1132 z "},"Ñ":{"ha":1028,"x_min":42,"x_max":993,"o":"m 42 0 m 840 910 l 729 951 l 729 972 l 993 972 l 993 951 l 882 910 l 882 -21 l 840 -21 l 194 736 l 194 63 l 306 21 l 306 0 l 42 0 l 42 21 l 153 63 l 153 924 l 56 951 l 56 972 l 201 972 q 274 963 243 972 q 327 940 304 954 q 367 908 350 925 q 396 875 383 890 l 840 354 l 840 910 m 611 1063 q 558 1074 579 1063 q 517 1097 536 1085 q 482 1121 499 1110 q 444 1132 465 1132 q 400 1114 418 1132 q 382 1069 382 1096 l 354 1069 q 388 1191 354 1153 q 479 1229 421 1229 q 532 1218 510 1229 q 573 1194 554 1207 q 608 1171 592 1182 q 646 1160 625 1160 q 690 1178 672 1160 q 708 1222 708 1196 l 736 1222 q 703 1101 736 1139 q 611 1063 669 1063 z "},"Ò":{"ha":1028,"x_min":63,"x_max":965,"o":"m 63 0 m 722 486 q 703 716 722 624 q 655 864 685 808 q 588 942 625 919 q 514 965 550 965 q 440 942 478 965 q 373 864 403 919 q 324 716 343 808 q 306 486 306 624 q 324 256 306 349 q 373 108 343 164 q 440 30 403 53 q 514 7 478 7 q 588 30 550 7 q 655 108 625 53 q 703 256 685 164 q 722 486 722 349 m 965 486 q 933 269 965 364 q 841 110 900 175 q 699 13 782 46 q 514 -21 615 -21 q 329 13 413 -21 q 187 110 246 46 q 95 269 128 175 q 63 486 63 364 q 95 703 63 608 q 187 862 128 797 q 329 960 246 926 q 514 993 413 993 q 699 960 615 993 q 841 862 782 926 q 933 703 900 797 q 965 486 965 608 m 493 1250 l 549 1042 l 500 1042 l 313 1250 l 493 1250 z "},"Ó":{"ha":1028,"x_min":63,"x_max":965,"o":"m 63 0 m 722 486 q 703 716 722 624 q 655 864 685 808 q 588 942 625 919 q 514 965 550 965 q 440 942 478 965 q 373 864 403 919 q 324 716 343 808 q 306 486 306 624 q 324 256 306 349 q 373 108 343 164 q 440 30 403 53 q 514 7 478 7 q 588 30 550 7 q 655 108 625 53 q 703 256 685 164 q 722 486 722 349 m 965 486 q 933 269 965 364 q 841 110 900 175 q 699 13 782 46 q 514 -21 615 -21 q 329 13 413 -21 q 187 110 246 46 q 95 269 128 175 q 63 486 63 364 q 95 703 63 608 q 187 862 128 797 q 329 960 246 926 q 514 993 413 993 q 699 960 615 993 q 841 862 782 926 q 933 703 900 797 q 965 486 965 608 m 715 1250 l 528 1042 l 479 1042 l 535 1250 l 715 1250 z "},"Ô":{"ha":1028,"x_min":63,"x_max":965,"o":"m 63 0 m 722 486 q 703 716 722 624 q 655 864 685 808 q 588 942 625 919 q 514 965 550 965 q 440 942 478 965 q 373 864 403 919 q 324 716 343 808 q 306 486 306 624 q 324 256 306 349 q 373 108 343 164 q 440 30 403 53 q 514 7 478 7 q 588 30 550 7 q 655 108 625 53 q 703 256 685 164 q 722 486 722 349 m 965 486 q 933 269 965 364 q 841 110 900 175 q 699 13 782 46 q 514 -21 615 -21 q 329 13 413 -21 q 187 110 246 46 q 95 269 128 175 q 63 486 63 364 q 95 703 63 608 q 187 862 128 797 q 329 960 246 926 q 514 993 413 993 q 699 960 615 993 q 841 862 782 926 q 933 703 900 797 q 965 486 965 608 m 514 1292 l 715 1063 l 667 1063 l 514 1160 l 361 1063 l 313 1063 l 514 1292 z "},"Õ":{"ha":1028,"x_min":63,"x_max":965,"o":"m 63 0 m 722 486 q 703 716 722 624 q 655 864 685 808 q 588 942 625 919 q 514 965 550 965 q 440 942 478 965 q 373 864 403 919 q 324 716 343 808 q 306 486 306 624 q 324 256 306 349 q 373 108 343 164 q 440 30 403 53 q 514 7 478 7 q 588 30 550 7 q 655 108 625 53 q 703 256 685 164 q 722 486 722 349 m 965 486 q 933 269 965 364 q 841 110 900 175 q 699 13 782 46 q 514 -21 615 -21 q 329 13 413 -21 q 187 110 246 46 q 95 269 128 175 q 63 486 63 364 q 95 703 63 608 q 187 862 128 797 q 329 960 246 926 q 514 993 413 993 q 699 960 615 993 q 841 862 782 926 q 933 703 900 797 q 965 486 965 608 m 586 1076 q 533 1088 554 1076 q 492 1111 511 1099 q 457 1135 474 1124 q 419 1146 440 1146 q 375 1128 393 1146 q 357 1083 357 1110 l 329 1083 q 363 1205 329 1167 q 454 1243 396 1243 q 507 1232 485 1243 q 548 1208 529 1221 q 583 1185 567 1196 q 621 1174 600 1174 q 665 1192 647 1174 q 683 1236 683 1210 l 711 1236 q 678 1115 711 1153 q 586 1076 644 1076 z "},"Ö":{"ha":1028,"x_min":63,"x_max":965,"o":"m 63 0 m 722 486 q 703 716 722 624 q 655 864 685 808 q 588 942 625 919 q 514 965 550 965 q 440 942 478 965 q 373 864 403 919 q 324 716 343 808 q 306 486 306 624 q 324 256 306 349 q 373 108 343 164 q 440 30 403 53 q 514 7 478 7 q 588 30 550 7 q 655 108 625 53 q 703 256 685 164 q 722 486 722 349 m 965 486 q 933 269 965 364 q 841 110 900 175 q 699 13 782 46 q 514 -21 615 -21 q 329 13 413 -21 q 187 110 246 46 q 95 269 128 175 q 63 486 63 364 q 95 703 63 608 q 187 862 128 797 q 329 960 246 926 q 514 993 413 993 q 699 960 615 993 q 841 862 782 926 q 933 703 900 797 q 965 486 965 608 m 288 1174 q 315 1243 288 1215 q 385 1271 343 1271 q 454 1243 426 1271 q 482 1174 482 1215 q 454 1104 482 1132 q 385 1076 426 1076 q 315 1104 343 1076 q 288 1174 288 1132 m 544 1174 q 572 1243 544 1215 q 642 1271 600 1271 q 711 1243 683 1271 q 739 1174 739 1215 q 711 1104 739 1132 q 642 1076 683 1076 q 572 1104 600 1076 q 544 1174 544 1132 z "},"Ù":{"ha":986,"x_min":49,"x_max":979,"o":"m 49 0 m 826 910 l 715 951 l 715 972 l 979 972 l 979 951 l 868 910 l 868 347 q 844 193 868 261 q 776 77 819 125 q 675 4 733 29 q 549 -21 617 -21 q 236 77 340 -21 q 132 347 132 175 l 132 931 l 49 951 l 49 972 l 444 972 l 444 951 l 361 931 l 361 347 q 376 190 361 253 q 419 87 392 126 q 487 31 447 47 q 576 14 526 14 q 668 37 624 14 q 748 103 713 60 q 805 208 783 146 q 826 347 826 269 l 826 910 m 556 1250 l 611 1042 l 563 1042 l 375 1250 l 556 1250 z "},"Ú":{"ha":986,"x_min":49,"x_max":979,"o":"m 49 0 m 826 910 l 715 951 l 715 972 l 979 972 l 979 951 l 868 910 l 868 347 q 844 193 868 261 q 776 77 819 125 q 675 4 733 29 q 549 -21 617 -21 q 236 77 340 -21 q 132 347 132 175 l 132 931 l 49 951 l 49 972 l 444 972 l 444 951 l 361 931 l 361 347 q 376 190 361 253 q 419 87 392 126 q 487 31 447 47 q 576 14 526 14 q 668 37 624 14 q 748 103 713 60 q 805 208 783 146 q 826 347 826 269 l 826 910 m 750 1250 l 563 1042 l 514 1042 l 569 1250 l 750 1250 z "},"Û":{"ha":986,"x_min":49,"x_max":979,"o":"m 49 0 m 826 910 l 715 951 l 715 972 l 979 972 l 979 951 l 868 910 l 868 347 q 844 193 868 261 q 776 77 819 125 q 675 4 733 29 q 549 -21 617 -21 q 236 77 340 -21 q 132 347 132 175 l 132 931 l 49 951 l 49 972 l 444 972 l 444 951 l 361 931 l 361 347 q 376 190 361 253 q 419 87 392 126 q 487 31 447 47 q 576 14 526 14 q 668 37 624 14 q 748 103 713 60 q 805 208 783 146 q 826 347 826 269 l 826 910 m 563 1285 l 764 1056 l 715 1056 l 563 1153 l 410 1056 l 361 1056 l 563 1285 z "},"Ü":{"ha":986,"x_min":49,"x_max":979,"o":"m 49 0 m 826 910 l 715 951 l 715 972 l 979 972 l 979 951 l 868 910 l 868 347 q 844 193 868 261 q 776 77 819 125 q 675 4 733 29 q 549 -21 617 -21 q 236 77 340 -21 q 132 347 132 175 l 132 931 l 49 951 l 49 972 l 444 972 l 444 951 l 361 931 l 361 347 q 376 190 361 253 q 419 87 392 126 q 487 31 447 47 q 576 14 526 14 q 668 37 624 14 q 748 103 713 60 q 805 208 783 146 q 826 347 826 269 l 826 910 m 322 1167 q 350 1236 322 1208 q 419 1264 378 1264 q 489 1236 461 1264 q 517 1167 517 1208 q 489 1097 517 1125 q 419 1069 461 1069 q 350 1097 378 1069 q 322 1167 322 1125 m 579 1167 q 607 1236 579 1208 q 676 1264 635 1264 q 746 1236 718 1264 q 774 1167 774 1208 q 746 1097 774 1125 q 676 1069 718 1069 q 607 1097 635 1069 q 579 1167 579 1125 z "},"Ý":{"ha":924,"x_min":0,"x_max":938,"o":"m 0 0 m 69 931 l 0 951 l 0 972 l 174 972 q 242 963 213 972 q 293 939 271 954 q 332 902 315 924 q 361 854 349 881 l 567 444 l 778 910 l 674 951 l 674 972 l 938 972 l 938 951 l 826 910 l 583 375 l 583 42 l 667 21 l 667 0 l 271 0 l 271 21 l 354 42 l 354 361 l 69 931 m 676 1250 l 489 1042 l 440 1042 l 496 1250 l 676 1250 z "},"˚":{"ha":375,"x_min":42,"x_max":333,"o":"m 333 833 q 322 779 333 804 q 292 735 311 754 q 245 706 272 717 q 188 694 218 694 q 129 706 156 694 q 83 735 103 717 q 53 779 64 754 q 42 833 42 804 q 53 888 42 863 q 83 931 64 913 q 129 961 103 950 q 188 972 156 972 q 245 961 218 972 q 292 931 272 950 q 322 888 311 913 q 333 833 333 863 m 264 833 q 242 899 264 875 q 188 924 219 924 q 133 899 156 924 q 111 833 111 875 q 133 767 111 792 q 188 743 156 743 q 242 767 219 743 q 264 833 264 792 z "},"˛":{"ha":306,"x_min":28,"x_max":278,"o":"m 278 0 q 211 -43 240 -18 q 166 -97 186 -65 q 146 -174 146 -129 q 201 -229 146 -229 q 226 -225 214 -229 q 246 -215 238 -221 q 264 -201 256 -210 l 264 -243 q 239 -254 253 -249 q 174 -264 213 -264 q 64 -233 100 -264 q 28 -160 28 -201 q 56 -85 28 -115 q 121 -36 85 -56 q 215 0 163 -14 l 278 0 z "},"Ā":{"ha":944,"x_min":-28,"x_max":972,"o":"m 0 0 m 229 21 l 229 0 l -28 0 l -28 21 l 83 63 l 465 986 l 507 986 l 903 42 l 972 21 l 972 0 l 806 0 q 683 35 728 0 q 619 118 639 71 l 549 285 l 217 285 l 125 63 l 229 21 m 231 319 l 535 319 l 382 685 l 231 319 m 319 1089 l 319 1151 l 681 1151 l 681 1089 l 319 1089 z "},"Ą":{"ha":944,"x_min":-28,"x_max":972,"o":"m 229 21 l 229 0 l -28 0 l -28 21 l 83 63 l 465 986 l 507 986 l 903 42 l 972 21 l 972 0 q 906 -43 935 -18 q 860 -97 881 -65 q 840 -174 840 -129 q 896 -229 840 -229 q 920 -225 908 -229 q 940 -215 932 -221 q 958 -201 950 -210 l 958 -243 q 933 -254 947 -249 q 868 -264 907 -264 q 758 -233 794 -264 q 722 -160 722 -201 q 735 -109 722 -132 q 767 -69 747 -86 q 809 -39 786 -51 q 853 -18 832 -26 q 889 -6 874 -10 q 908 0 904 -1 l 806 0 q 683 35 728 0 q 619 118 639 71 l 549 285 l 217 285 l 125 63 l 229 21 m 231 319 l 535 319 l 382 685 l 231 319 z "},"Å":{"ha":944,"x_min":-28,"x_max":972,"o":"m 229 21 l 229 0 l -28 0 l -28 21 l 83 63 l 447 942 q 369 991 399 954 q 340 1076 340 1028 q 351 1131 340 1106 q 382 1174 363 1156 q 428 1204 401 1193 q 486 1215 454 1215 q 544 1204 517 1215 q 590 1174 571 1193 q 621 1131 610 1156 q 632 1076 632 1106 q 602 991 632 1028 q 525 942 572 954 l 903 42 l 972 21 l 972 0 l 806 0 q 683 35 728 0 q 619 118 639 71 l 549 285 l 217 285 l 125 63 l 229 21 m 231 319 l 535 319 l 382 685 l 231 319 m 563 1076 q 540 1142 563 1118 q 486 1167 518 1167 q 432 1142 454 1167 q 410 1076 410 1118 q 432 1010 410 1035 q 486 986 454 986 q 540 1010 518 986 q 563 1076 563 1035 z "},"Ć":{"ha":903,"x_min":63,"x_max":854,"o":"m 63 0 m 501 993 q 591 978 550 993 q 661 947 632 964 q 722 903 696 928 q 747 935 733 921 q 771 960 760 950 q 799 979 785 971 l 833 979 l 833 715 l 778 715 q 724 836 758 782 q 646 920 694 882 q 528 958 597 958 q 446 935 486 958 q 374 858 406 913 q 324 712 343 803 q 306 486 306 621 q 325 260 306 350 q 379 115 344 169 q 461 37 414 60 q 563 14 508 14 q 658 35 613 14 q 740 94 704 57 q 798 178 776 131 q 819 278 819 225 l 854 278 q 830 164 854 218 q 763 69 806 110 q 661 3 719 28 q 535 -21 603 -21 q 338 13 425 -21 q 189 110 250 46 q 95 269 128 175 q 63 486 63 364 q 94 703 63 608 q 185 862 126 797 q 324 960 243 926 q 501 993 404 993 m 683 1250 l 496 1042 l 447 1042 l 503 1250 l 683 1250 z "},"Č":{"ha":903,"x_min":63,"x_max":854,"o":"m 63 0 m 501 993 q 591 978 550 993 q 661 947 632 964 q 722 903 696 928 q 747 935 733 921 q 771 960 760 950 q 799 979 785 971 l 833 979 l 833 715 l 778 715 q 724 836 758 782 q 646 920 694 882 q 528 958 597 958 q 446 935 486 958 q 374 858 406 913 q 324 712 343 803 q 306 486 306 621 q 325 260 306 350 q 379 115 344 169 q 461 37 414 60 q 563 14 508 14 q 658 35 613 14 q 740 94 704 57 q 798 178 776 131 q 819 278 819 225 l 854 278 q 830 164 854 218 q 763 69 806 110 q 661 3 719 28 q 535 -21 603 -21 q 338 13 425 -21 q 189 110 250 46 q 95 269 128 175 q 63 486 63 364 q 94 703 63 608 q 185 862 126 797 q 324 960 243 926 q 501 993 404 993 m 531 1063 l 447 1063 l 288 1271 l 336 1271 l 489 1160 l 642 1271 l 690 1271 l 531 1063 z "},"Ĉ":{"ha":903,"x_min":63,"x_max":854,"o":"m 63 0 m 501 993 q 591 978 550 993 q 661 947 632 964 q 722 903 696 928 q 747 935 733 921 q 771 960 760 950 q 799 979 785 971 l 833 979 l 833 715 l 778 715 q 724 836 758 782 q 646 920 694 882 q 528 958 597 958 q 446 935 486 958 q 374 858 406 913 q 324 712 343 803 q 306 486 306 621 q 325 260 306 350 q 379 115 344 169 q 461 37 414 60 q 563 14 508 14 q 658 35 613 14 q 740 94 704 57 q 798 178 776 131 q 819 278 819 225 l 854 278 q 830 164 854 218 q 763 69 806 110 q 661 3 719 28 q 535 -21 603 -21 q 338 13 425 -21 q 189 110 250 46 q 95 269 128 175 q 63 486 63 364 q 94 703 63 608 q 185 862 126 797 q 324 960 243 926 q 501 993 404 993 m 482 1292 l 683 1063 l 635 1063 l 482 1160 l 329 1063 l 281 1063 l 482 1292 z "},"Ď":{"ha":993,"x_min":69,"x_max":938,"o":"m 69 0 m 424 972 q 806 844 674 972 q 938 486 938 715 q 806 128 938 257 q 424 0 674 0 l 69 0 l 69 21 l 153 42 l 153 931 l 69 951 l 69 972 l 424 972 m 382 938 l 382 35 l 424 35 q 533 58 483 35 q 619 133 583 81 q 674 272 654 186 q 694 486 694 358 q 674 700 694 614 q 619 839 654 786 q 533 915 583 892 q 424 938 483 938 l 382 938 m 510 1056 l 426 1056 l 267 1264 l 315 1264 l 468 1153 l 621 1264 l 669 1264 l 510 1056 z "},"Đ":{"ha":1000,"x_min":69,"x_max":944,"o":"m 160 514 l 160 931 l 76 951 l 76 972 l 431 972 q 813 844 681 972 q 944 486 944 715 q 813 128 944 257 q 431 0 681 0 l 76 0 l 76 21 l 160 42 l 160 472 l 69 472 l 69 514 l 160 514 m 389 938 l 389 514 l 556 514 l 556 472 l 389 472 l 389 35 l 431 35 q 540 58 490 35 q 626 133 590 81 q 681 272 661 186 q 701 486 701 358 q 681 700 701 614 q 626 839 661 786 q 540 915 590 892 q 431 938 490 938 l 389 938 z "},"Ě":{"ha":896,"x_min":69,"x_max":840,"o":"m 69 0 m 542 500 q 557 553 547 528 q 578 599 567 579 q 604 639 590 621 l 646 639 l 646 326 l 604 326 q 578 367 590 344 q 557 411 567 386 q 542 465 547 436 l 382 465 l 382 35 l 708 35 q 722 129 708 89 q 753 197 736 169 q 799 250 772 229 l 840 250 l 840 0 l 69 0 l 69 21 l 153 42 l 153 931 l 69 951 l 69 972 l 813 972 l 813 722 l 771 722 q 725 775 744 743 q 694 842 708 803 q 681 938 681 882 l 382 938 l 382 500 l 542 500 m 531 1056 l 447 1056 l 288 1264 l 336 1264 l 489 1153 l 642 1264 l 690 1264 l 531 1056 z "},"Ē":{"ha":896,"x_min":69,"x_max":840,"o":"m 69 0 m 542 500 q 557 553 547 528 q 578 599 567 579 q 604 639 590 621 l 646 639 l 646 326 l 604 326 q 578 367 590 344 q 557 411 567 386 q 542 465 547 436 l 382 465 l 382 35 l 708 35 q 722 129 708 89 q 753 197 736 169 q 799 250 772 229 l 840 250 l 840 0 l 69 0 l 69 21 l 153 42 l 153 931 l 69 951 l 69 972 l 813 972 l 813 722 l 771 722 q 725 775 744 743 q 694 842 708 803 q 681 938 681 882 l 382 938 l 382 500 l 542 500 m 308 1103 l 308 1165 l 669 1165 l 669 1103 l 308 1103 z "},"Ę":{"ha":896,"x_min":69,"x_max":840,"o":"m 69 951 l 69 972 l 813 972 l 813 722 l 771 722 q 725 775 744 743 q 694 842 708 803 q 681 938 681 882 l 382 938 l 382 500 l 542 500 q 557 553 547 528 q 578 599 567 579 q 604 639 590 621 l 646 639 l 646 326 l 604 326 q 578 367 590 344 q 557 411 567 386 q 542 465 547 436 l 382 465 l 382 35 l 708 35 q 722 129 708 89 q 753 197 736 169 q 799 250 772 229 l 840 250 l 840 0 l 618 0 q 551 -43 581 -18 q 506 -97 526 -65 q 486 -174 486 -129 q 542 -229 486 -229 q 566 -225 554 -229 q 586 -215 578 -221 q 604 -201 596 -210 l 604 -243 q 579 -254 593 -249 q 514 -264 553 -264 q 404 -233 440 -264 q 368 -160 368 -201 q 381 -109 368 -132 q 413 -69 393 -86 q 455 -39 432 -51 q 499 -18 478 -26 q 535 -6 519 -10 q 554 0 550 -1 l 69 0 l 69 21 l 153 42 l 153 931 l 69 951 z "},"Ĝ":{"ha":972,"x_min":63,"x_max":944,"o":"m 63 0 m 507 28 q 562 45 539 28 q 600 83 585 63 q 632 139 618 108 l 632 458 l 549 479 l 549 500 l 944 500 l 944 479 l 861 458 l 861 -7 l 840 -7 q 742 10 779 -7 q 686 49 706 28 q 653 104 663 74 q 607 42 635 68 q 544 -1 583 18 q 451 -21 506 -21 q 303 13 374 -21 q 178 110 232 46 q 94 269 125 175 q 63 486 63 364 q 94 703 63 608 q 185 862 126 797 q 324 960 243 926 q 501 993 404 993 q 591 978 550 993 q 661 947 632 964 q 722 903 696 928 q 747 935 733 921 q 771 960 760 950 q 799 979 785 971 l 833 979 l 833 715 l 778 715 q 724 836 758 782 q 646 920 694 882 q 528 958 597 958 q 446 935 486 958 q 374 858 406 913 q 324 712 343 803 q 306 486 306 621 q 322 262 306 350 q 367 122 339 174 q 432 49 396 69 q 507 28 468 28 m 493 1299 l 694 1069 l 646 1069 l 493 1167 l 340 1069 l 292 1069 l 493 1299 z "},"Ī":{"ha":535,"x_min":69,"x_max":465,"o":"m 69 0 m 69 951 l 69 972 l 465 972 l 465 951 l 382 931 l 382 42 l 465 21 l 465 0 l 69 0 l 69 21 l 153 42 l 153 931 l 69 951 m 83 1083 l 83 1146 l 444 1146 l 444 1083 l 83 1083 z "},"Į":{"ha":535,"x_min":69,"x_max":465,"o":"m 69 951 l 69 972 l 465 972 l 465 951 l 382 931 l 382 42 l 465 21 l 465 0 l 382 0 q 315 -43 344 -18 q 270 -97 290 -65 q 250 -174 250 -129 q 306 -229 250 -229 q 330 -225 318 -229 q 350 -215 342 -221 q 368 -201 360 -210 l 368 -243 q 343 -254 357 -249 q 278 -264 317 -264 q 168 -233 204 -264 q 132 -160 132 -201 q 144 -109 132 -132 q 176 -69 157 -86 q 219 -39 196 -51 q 263 -18 242 -26 q 299 -6 283 -10 q 318 0 314 -1 l 69 0 l 69 21 l 153 42 l 153 931 l 69 951 z "},"Ĩ":{"ha":521,"x_min":64,"x_max":460,"o":"m 64 0 m 64 951 l 64 972 l 460 972 l 460 951 l 376 931 l 376 42 l 460 21 l 460 0 l 64 0 l 64 21 l 147 42 l 147 931 l 64 951 m 326 1076 q 273 1088 294 1076 q 233 1111 251 1099 q 197 1135 214 1124 q 160 1146 181 1146 q 115 1128 133 1146 q 97 1083 97 1110 l 69 1083 q 103 1205 69 1167 q 194 1243 136 1243 q 247 1232 225 1243 q 288 1208 269 1221 q 324 1185 307 1196 q 361 1174 340 1174 q 406 1192 388 1174 q 424 1236 424 1210 l 451 1236 q 418 1115 451 1153 q 326 1076 385 1076 z "},"Ĵ":{"ha":764,"x_min":0,"x_max":708,"o":"m 0 0 m 229 7 q 296 21 265 7 q 349 67 326 35 q 383 151 371 99 q 396 278 396 203 l 396 931 l 313 951 l 313 972 l 708 972 l 708 951 l 625 931 l 625 278 q 538 58 625 138 q 257 -21 450 -21 q 140 -8 189 -21 q 60 27 92 6 q 15 76 29 49 q 0 132 0 103 q 28 208 0 179 q 104 236 57 236 q 124 235 115 236 q 142 232 133 233 q 160 229 150 231 l 160 21 q 179 14 168 17 q 229 7 200 7 m 503 1285 l 704 1056 l 656 1056 l 503 1153 l 350 1056 l 301 1056 l 503 1285 z "},"Ĺ":{"ha":847,"x_min":69,"x_max":813,"o":"m 69 0 m 465 972 l 465 951 l 382 931 l 382 35 l 681 35 q 694 129 681 89 q 725 197 708 169 q 771 250 744 229 l 813 250 l 813 0 l 69 0 l 69 21 l 153 42 l 153 931 l 69 951 l 69 972 l 465 972 m 458 1250 l 271 1042 l 222 1042 l 278 1250 l 458 1250 z "},"Ľ":{"ha":847,"x_min":69,"x_max":813,"o":"m 69 0 m 465 972 l 465 951 l 382 931 l 382 35 l 681 35 q 694 129 681 89 q 725 197 708 169 q 771 250 744 229 l 813 250 l 813 0 l 69 0 l 69 21 l 153 42 l 153 931 l 69 951 l 69 972 l 465 972 m 544 651 q 596 682 572 663 q 635 727 615 699 q 663 797 654 756 q 647 786 656 792 q 607 776 631 776 q 538 804 565 776 q 510 874 510 832 q 538 943 510 915 q 607 971 565 971 q 683 941 654 971 q 711 853 711 911 q 687 741 711 785 q 635 671 663 697 q 558 624 600 640 l 544 651 z "},"Ń":{"ha":1028,"x_min":42,"x_max":993,"o":"m 42 0 m 840 910 l 729 951 l 729 972 l 993 972 l 993 951 l 882 910 l 882 -21 l 840 -21 l 194 736 l 194 63 l 306 21 l 306 0 l 42 0 l 42 21 l 153 63 l 153 924 l 56 951 l 56 972 l 201 972 q 274 963 243 972 q 327 940 304 954 q 367 908 350 925 q 396 875 383 890 l 840 354 l 840 910 m 704 1236 l 517 1028 l 468 1028 l 524 1236 l 704 1236 z "},"Ň":{"ha":1028,"x_min":42,"x_max":993,"o":"m 42 0 m 840 910 l 729 951 l 729 972 l 993 972 l 993 951 l 882 910 l 882 -21 l 840 -21 l 194 736 l 194 63 l 306 21 l 306 0 l 42 0 l 42 21 l 153 63 l 153 924 l 56 951 l 56 972 l 201 972 q 274 963 243 972 q 327 940 304 954 q 367 908 350 925 q 396 875 383 890 l 840 354 l 840 910 m 572 1028 l 489 1028 l 329 1236 l 378 1236 l 531 1125 l 683 1236 l 732 1236 l 572 1028 z "},"Ō":{"ha":1028,"x_min":63,"x_max":965,"o":"m 63 0 m 722 486 q 703 716 722 624 q 655 864 685 808 q 588 942 625 919 q 514 965 550 965 q 440 942 478 965 q 373 864 403 919 q 324 716 343 808 q 306 486 306 624 q 324 256 306 349 q 373 108 343 164 q 440 30 403 53 q 514 7 478 7 q 588 30 550 7 q 655 108 625 53 q 703 256 685 164 q 722 486 722 349 m 965 486 q 933 269 965 364 q 841 110 900 175 q 699 13 782 46 q 514 -21 615 -21 q 329 13 413 -21 q 187 110 246 46 q 95 269 128 175 q 63 486 63 364 q 95 703 63 608 q 187 862 128 797 q 329 960 246 926 q 514 993 413 993 q 699 960 615 993 q 841 862 782 926 q 933 703 900 797 q 965 486 965 608 m 333 1104 l 333 1167 l 694 1167 l 694 1104 l 333 1104 z "},"Ŕ":{"ha":972,"x_min":69,"x_max":972,"o":"m 69 0 m 556 444 q 646 429 603 443 q 719 392 682 418 q 778 319 757 367 l 903 42 l 972 21 l 972 0 l 778 0 q 675 33 715 0 q 611 118 635 65 l 472 431 l 382 431 l 382 42 l 479 21 l 479 0 l 69 0 l 69 21 l 153 42 l 153 931 l 69 951 l 69 972 l 438 972 q 647 952 563 972 q 784 897 732 932 q 859 811 836 861 q 882 701 882 761 q 868 619 882 654 q 831 556 854 583 q 778 511 808 529 q 718 482 749 493 q 556 451 646 454 l 556 444 m 438 465 q 589 526 532 465 q 646 701 646 586 q 589 877 646 817 q 438 938 532 938 l 382 938 l 382 465 l 438 465 m 663 1250 l 475 1042 l 426 1042 l 482 1250 l 663 1250 z "},"Ř":{"ha":972,"x_min":69,"x_max":972,"o":"m 69 0 m 556 444 q 646 429 603 443 q 719 392 682 418 q 778 319 757 367 l 903 42 l 972 21 l 972 0 l 778 0 q 675 33 715 0 q 611 118 635 65 l 472 431 l 382 431 l 382 42 l 479 21 l 479 0 l 69 0 l 69 21 l 153 42 l 153 931 l 69 951 l 69 972 l 438 972 q 647 952 563 972 q 784 897 732 932 q 859 811 836 861 q 882 701 882 761 q 868 619 882 654 q 831 556 854 583 q 778 511 808 529 q 718 482 749 493 q 556 451 646 454 l 556 444 m 438 465 q 589 526 532 465 q 646 701 646 586 q 589 877 646 817 q 438 938 532 938 l 382 938 l 382 465 l 438 465 m 531 1056 l 447 1056 l 288 1264 l 336 1264 l 489 1153 l 642 1264 l 690 1264 l 531 1056 z "},"Ś":{"ha":826,"x_min":49,"x_max":792,"o":"m 49 0 m 382 14 q 508 61 461 14 q 556 188 556 108 q 519 281 556 242 q 428 356 482 321 q 309 425 374 390 q 190 504 244 460 q 99 608 136 549 q 63 750 63 667 q 83 844 63 800 q 147 921 104 888 q 253 974 189 954 q 403 993 317 993 q 493 978 451 993 q 564 947 535 964 q 625 903 599 928 q 649 935 636 921 q 674 960 663 950 q 701 979 688 971 l 736 979 l 736 715 l 681 715 q 626 836 661 782 q 549 920 597 882 q 431 958 500 958 q 381 947 404 958 q 339 916 357 936 q 310 867 321 896 q 299 806 299 839 q 335 703 299 746 q 426 625 372 661 q 545 554 481 589 q 664 477 610 519 q 755 381 718 435 q 792 250 792 326 q 768 147 792 196 q 697 60 744 97 q 578 1 650 22 q 410 -21 506 -21 q 303 -7 349 -21 q 225 24 257 7 q 160 69 188 43 q 135 36 149 50 q 111 13 122 22 q 83 -7 97 1 l 49 -7 l 49 257 l 104 257 q 163 135 125 189 q 200 90 179 111 q 248 51 221 68 q 308 24 275 35 q 382 14 342 14 m 600 1250 l 413 1042 l 364 1042 l 419 1250 l 600 1250 z "},"Ş":{"ha":826,"x_min":49,"x_max":792,"o":"m 382 14 q 508 61 461 14 q 556 188 556 108 q 519 281 556 242 q 429 356 483 321 q 313 425 375 390 q 196 504 250 460 q 106 608 142 549 q 69 750 69 667 q 90 844 69 800 q 153 921 111 888 q 260 974 196 954 q 410 993 324 993 q 500 978 458 993 q 571 947 542 964 q 632 903 606 928 q 656 935 643 921 q 681 960 669 950 q 708 979 694 971 l 743 979 l 743 715 l 688 715 q 633 836 668 782 q 556 920 604 882 q 438 958 507 958 q 388 947 411 958 q 346 916 364 936 q 317 867 328 896 q 306 806 306 839 q 342 703 306 746 q 432 625 378 661 q 549 554 486 589 q 665 477 611 519 q 756 381 719 435 q 792 250 792 326 q 769 149 792 197 q 703 65 747 101 q 591 5 658 28 q 435 -21 524 -18 l 435 -69 q 532 -101 497 -69 q 567 -174 567 -132 q 531 -247 567 -215 q 421 -278 494 -278 q 392 -277 406 -278 q 367 -275 378 -276 q 343 -271 354 -274 l 343 -229 q 357 -236 349 -233 q 393 -243 371 -243 q 444 -224 425 -243 q 463 -174 463 -206 q 442 -123 463 -142 q 386 -104 422 -104 l 386 -19 q 289 -2 331 -17 q 218 28 247 13 q 160 69 183 46 q 135 36 149 50 q 111 13 122 22 q 83 -7 97 1 l 49 -7 l 49 257 l 104 257 q 163 135 125 189 q 200 90 179 111 q 248 51 221 68 q 308 24 275 35 q 382 14 342 14 z "},"Ŝ":{"ha":826,"x_min":49,"x_max":792,"o":"m 49 0 m 382 14 q 508 61 461 14 q 556 188 556 108 q 519 281 556 242 q 428 356 482 321 q 309 425 374 390 q 190 504 244 460 q 99 608 136 549 q 63 750 63 667 q 83 844 63 800 q 147 921 104 888 q 253 974 189 954 q 403 993 317 993 q 493 978 451 993 q 564 947 535 964 q 625 903 599 928 q 649 935 636 921 q 674 960 663 950 q 701 979 688 971 l 736 979 l 736 715 l 681 715 q 626 836 661 782 q 549 920 597 882 q 431 958 500 958 q 381 947 404 958 q 339 916 357 936 q 310 867 321 896 q 299 806 299 839 q 335 703 299 746 q 426 625 372 661 q 545 554 481 589 q 664 477 610 519 q 755 381 718 435 q 792 250 792 326 q 768 147 792 196 q 697 60 744 97 q 578 1 650 22 q 410 -21 506 -21 q 303 -7 349 -21 q 225 24 257 7 q 160 69 188 43 q 135 36 149 50 q 111 13 122 22 q 83 -7 97 1 l 49 -7 l 49 257 l 104 257 q 163 135 125 189 q 200 90 179 111 q 248 51 221 68 q 308 24 275 35 q 382 14 342 14 m 419 1306 l 621 1076 l 572 1076 l 419 1174 l 267 1076 l 218 1076 l 419 1306 z "},"Ť":{"ha":882,"x_min":35,"x_max":847,"o":"m 35 0 m 243 0 l 243 21 l 326 42 l 326 938 l 167 938 q 152 842 167 882 q 121 775 138 803 q 76 722 101 743 l 35 722 l 35 972 l 847 972 l 847 722 l 806 722 q 760 775 779 743 q 729 842 743 803 q 715 938 715 882 l 556 938 l 556 42 l 639 21 l 639 0 l 243 0 m 482 1056 l 399 1056 l 239 1264 l 288 1264 l 440 1153 l 593 1264 l 642 1264 l 482 1056 z "},"Ū":{"ha":986,"x_min":49,"x_max":979,"o":"m 49 0 m 826 910 l 715 951 l 715 972 l 979 972 l 979 951 l 868 910 l 868 347 q 844 193 868 261 q 776 77 819 125 q 675 4 733 29 q 549 -21 617 -21 q 236 77 340 -21 q 132 347 132 175 l 132 931 l 49 951 l 49 972 l 444 972 l 444 951 l 361 931 l 361 347 q 376 190 361 253 q 419 87 392 126 q 487 31 447 47 q 576 14 526 14 q 668 37 624 14 q 748 103 713 60 q 805 208 783 146 q 826 347 826 269 l 826 910 m 382 1089 l 382 1151 l 743 1151 l 743 1089 l 382 1089 z "},"Ų":{"ha":986,"x_min":49,"x_max":979,"o":"m 826 910 l 715 951 l 715 972 l 979 972 l 979 951 l 868 910 l 868 347 q 806 116 868 207 q 646 -6 744 25 q 614 -26 633 -12 q 575 -60 594 -39 q 542 -109 556 -81 q 528 -174 528 -137 q 583 -229 528 -229 q 608 -225 596 -229 q 628 -215 619 -221 q 646 -201 638 -210 l 646 -243 q 621 -254 635 -249 q 556 -264 594 -264 q 446 -233 482 -264 q 410 -160 410 -201 q 422 -111 410 -133 q 451 -72 433 -89 q 491 -42 469 -54 q 533 -21 513 -29 q 232 81 332 -17 q 132 347 132 178 l 132 931 l 49 951 l 49 972 l 444 972 l 444 951 l 361 931 l 361 347 q 376 190 361 253 q 419 87 392 126 q 487 31 447 47 q 576 14 526 14 q 668 37 624 14 q 748 103 713 60 q 805 208 783 146 q 826 347 826 269 l 826 910 z "},"Ů":{"ha":986,"x_min":49,"x_max":979,"o":"m 49 0 m 826 910 l 715 951 l 715 972 l 979 972 l 979 951 l 868 910 l 868 347 q 844 193 868 261 q 776 77 819 125 q 675 4 733 29 q 549 -21 617 -21 q 236 77 340 -21 q 132 347 132 175 l 132 931 l 49 951 l 49 972 l 444 972 l 444 951 l 361 931 l 361 347 q 376 190 361 253 q 419 87 392 126 q 487 31 447 47 q 576 14 526 14 q 668 37 624 14 q 748 103 713 60 q 805 208 783 146 q 826 347 826 269 l 826 910 m 722 1153 q 711 1099 722 1124 q 681 1055 700 1074 q 634 1025 661 1036 q 576 1014 607 1014 q 518 1025 544 1014 q 472 1055 492 1036 q 442 1099 453 1074 q 431 1153 431 1124 q 442 1207 431 1182 q 472 1251 453 1232 q 518 1281 492 1269 q 576 1292 544 1292 q 634 1281 607 1292 q 681 1251 661 1269 q 711 1207 700 1232 q 722 1153 722 1182 m 653 1153 q 631 1219 653 1194 q 576 1243 608 1243 q 522 1219 544 1243 q 500 1153 500 1194 q 522 1087 500 1111 q 576 1063 544 1063 q 631 1087 608 1063 q 653 1153 653 1111 z "},"Ũ":{"ha":986,"x_min":49,"x_max":979,"o":"m 49 0 m 826 910 l 715 951 l 715 972 l 979 972 l 979 951 l 868 910 l 868 347 q 844 193 868 261 q 776 77 819 125 q 675 4 733 29 q 549 -21 617 -21 q 236 77 340 -21 q 132 347 132 175 l 132 931 l 49 951 l 49 972 l 444 972 l 444 951 l 361 931 l 361 347 q 376 190 361 253 q 419 87 392 126 q 487 31 447 47 q 576 14 526 14 q 668 37 624 14 q 748 103 713 60 q 805 208 783 146 q 826 347 826 269 l 826 910 m 628 1063 q 574 1074 596 1063 q 534 1097 553 1085 q 499 1121 515 1110 q 461 1132 482 1132 q 417 1114 435 1132 q 399 1069 399 1096 l 371 1069 q 404 1191 371 1153 q 496 1229 438 1229 q 549 1218 526 1229 q 590 1194 571 1207 q 625 1171 608 1182 q 663 1160 642 1160 q 707 1178 689 1160 q 725 1222 725 1196 l 753 1222 q 719 1101 753 1139 q 628 1063 686 1063 z "},"Ẃ":{"ha":1368,"x_min":-28,"x_max":1396,"o":"m 0 0 m 49 938 l -28 951 l -28 972 l 139 972 q 263 937 218 972 q 326 854 308 901 l 536 319 l 658 678 l 556 938 l 479 951 l 479 972 l 646 972 q 769 937 725 972 q 833 854 814 901 l 1043 319 l 1243 910 l 1139 951 l 1139 972 l 1396 972 l 1396 951 l 1285 910 l 972 -14 l 931 -14 l 681 621 l 465 -14 l 424 -14 l 49 938 m 878 1250 l 690 1042 l 642 1042 l 697 1250 l 878 1250 z "},"Ŵ":{"ha":1368,"x_min":-28,"x_max":1396,"o":"m 0 0 m 49 938 l -28 951 l -28 972 l 139 972 q 263 937 218 972 q 326 854 308 901 l 536 319 l 658 678 l 556 938 l 479 951 l 479 972 l 646 972 q 769 937 725 972 q 833 854 814 901 l 1043 319 l 1243 910 l 1139 951 l 1139 972 l 1396 972 l 1396 951 l 1285 910 l 972 -14 l 931 -14 l 681 621 l 465 -14 l 424 -14 l 49 938 m 690 1299 l 892 1069 l 843 1069 l 690 1167 l 538 1069 l 489 1069 l 690 1299 z "},"Ẅ":{"ha":1368,"x_min":-28,"x_max":1396,"o":"m 0 0 m 49 938 l -28 951 l -28 972 l 139 972 q 263 937 218 972 q 326 854 308 901 l 536 319 l 658 678 l 556 938 l 479 951 l 479 972 l 646 972 q 769 937 725 972 q 833 854 814 901 l 1043 319 l 1243 910 l 1139 951 l 1139 972 l 1396 972 l 1396 951 l 1285 910 l 972 -14 l 931 -14 l 681 621 l 465 -14 l 424 -14 l 49 938 m 465 1167 q 493 1236 465 1208 q 563 1264 521 1264 q 632 1236 604 1264 q 660 1167 660 1208 q 632 1097 660 1125 q 563 1069 604 1069 q 493 1097 521 1069 q 465 1167 465 1125 m 722 1167 q 750 1236 722 1208 q 819 1264 778 1264 q 889 1236 861 1264 q 917 1167 917 1208 q 889 1097 917 1125 q 819 1069 861 1069 q 750 1097 778 1069 q 722 1167 722 1125 z "},"Ẁ":{"ha":1368,"x_min":-28,"x_max":1396,"o":"m 0 0 m 49 938 l -28 951 l -28 972 l 139 972 q 263 937 218 972 q 326 854 308 901 l 536 319 l 658 678 l 556 938 l 479 951 l 479 972 l 646 972 q 769 937 725 972 q 833 854 814 901 l 1043 319 l 1243 910 l 1139 951 l 1139 972 l 1396 972 l 1396 951 l 1285 910 l 972 -14 l 931 -14 l 681 621 l 465 -14 l 424 -14 l 49 938 m 642 1250 l 697 1042 l 649 1042 l 461 1250 l 642 1250 z "},"Ŷ":{"ha":924,"x_min":0,"x_max":938,"o":"m 0 0 m 69 931 l 0 951 l 0 972 l 174 972 q 242 963 213 972 q 293 939 271 954 q 332 902 315 924 q 361 854 349 881 l 567 444 l 778 910 l 674 951 l 674 972 l 938 972 l 938 951 l 826 910 l 583 375 l 583 42 l 667 21 l 667 0 l 271 0 l 271 21 l 354 42 l 354 361 l 69 931 m 489 1271 l 690 1042 l 642 1042 l 489 1139 l 336 1042 l 288 1042 l 489 1271 z "},"Ỳ":{"ha":924,"x_min":0,"x_max":938,"o":"m 0 0 m 69 931 l 0 951 l 0 972 l 174 972 q 242 963 213 972 q 293 939 271 954 q 332 902 315 924 q 361 854 349 881 l 567 444 l 778 910 l 674 951 l 674 972 l 938 972 l 938 951 l 826 910 l 583 375 l 583 42 l 667 21 l 667 0 l 271 0 l 271 21 l 354 42 l 354 361 l 69 931 m 482 1250 l 538 1042 l 489 1042 l 301 1250 l 482 1250 z "},"Ź":{"ha":882,"x_min":56,"x_max":826,"o":"m 56 0 m 688 35 q 701 129 688 89 q 732 197 715 169 q 778 250 751 229 l 819 250 l 819 0 l 56 0 l 56 35 l 571 938 l 208 938 q 194 842 208 882 q 163 775 179 803 q 118 722 143 743 l 76 722 l 76 972 l 826 972 l 826 938 l 313 35 l 688 35 m 621 1250 l 433 1042 l 385 1042 l 440 1250 l 621 1250 z "},"Ĥ":{"ha":1063,"x_min":69,"x_max":993,"o":"m 69 0 m 69 951 l 69 972 l 465 972 l 465 951 l 382 931 l 382 500 l 681 500 l 681 931 l 597 951 l 597 972 l 993 972 l 993 951 l 910 931 l 910 42 l 993 21 l 993 0 l 597 0 l 597 21 l 681 42 l 681 465 l 382 465 l 382 42 l 465 21 l 465 0 l 69 0 l 69 21 l 153 42 l 153 931 l 69 951 m 531 1292 l 732 1063 l 683 1063 l 531 1160 l 378 1063 l 329 1063 l 531 1292 z "},"˙":{"ha":250,"x_min":28,"x_max":222,"o":"m 28 875 q 56 944 28 917 q 125 972 83 972 q 194 944 167 972 q 222 875 222 917 q 194 806 222 833 q 125 778 167 778 q 56 806 83 778 q 28 875 28 833 z "},"˝":{"ha":438,"x_min":28,"x_max":410,"o":"m 229 972 l 76 764 l 28 764 l 90 972 l 229 972 m 410 972 l 257 764 l 208 764 l 271 972 l 410 972 z "},"Ű":{"ha":986,"x_min":49,"x_max":979,"o":"m 49 0 m 826 910 l 715 951 l 715 972 l 979 972 l 979 951 l 868 910 l 868 347 q 844 193 868 261 q 776 77 819 125 q 675 4 733 29 q 549 -21 617 -21 q 236 77 340 -21 q 132 347 132 175 l 132 931 l 49 951 l 49 972 l 444 972 l 444 951 l 361 931 l 361 347 q 376 190 361 253 q 419 87 392 126 q 487 31 447 47 q 576 14 526 14 q 668 37 624 14 q 748 103 713 60 q 805 208 783 146 q 826 347 826 269 l 826 910 m 632 1257 l 479 1049 l 431 1049 l 493 1257 l 632 1257 m 813 1257 l 660 1049 l 611 1049 l 674 1257 l 813 1257 z "},"Ő":{"ha":1028,"x_min":63,"x_max":965,"o":"m 63 0 m 722 486 q 703 716 722 624 q 655 864 685 808 q 588 942 625 919 q 514 965 550 965 q 440 942 478 965 q 373 864 403 919 q 324 716 343 808 q 306 486 306 624 q 324 256 306 349 q 373 108 343 164 q 440 30 403 53 q 514 7 478 7 q 588 30 550 7 q 655 108 625 53 q 703 256 685 164 q 722 486 722 349 m 965 486 q 933 269 965 364 q 841 110 900 175 q 699 13 782 46 q 514 -21 615 -21 q 329 13 413 -21 q 187 110 246 46 q 95 269 128 175 q 63 486 63 364 q 95 703 63 608 q 187 862 128 797 q 329 960 246 926 q 514 993 413 993 q 699 960 615 993 q 841 862 782 926 q 933 703 900 797 q 965 486 965 608 m 593 1257 l 440 1049 l 392 1049 l 454 1257 l 593 1257 m 774 1257 l 621 1049 l 572 1049 l 635 1257 l 774 1257 z "},"Ø":{"ha":1028,"x_min":63,"x_max":965,"o":"m 965 486 q 933 269 965 364 q 841 110 900 175 q 699 13 782 46 q 514 -21 615 -21 q 226 78 340 -21 l 167 0 l 118 0 l 197 104 q 99 265 136 169 q 63 486 63 360 q 95 703 63 608 q 187 862 128 797 q 329 960 246 926 q 514 993 413 993 q 801 894 686 993 l 861 972 l 910 972 l 829 867 q 928 707 892 801 q 965 486 965 613 m 722 486 q 717 606 722 551 q 706 704 713 660 l 332 217 q 367 118 346 158 q 412 53 388 78 q 463 17 436 28 q 514 7 489 7 q 588 30 550 7 q 655 108 625 53 q 703 256 685 164 q 722 486 722 349 m 306 486 q 322 267 306 356 l 694 754 q 659 853 679 813 q 615 918 639 893 q 565 954 590 943 q 514 965 539 965 q 440 942 478 965 q 373 864 403 919 q 324 716 343 808 q 306 486 306 624 z "},"Ċ":{"ha":903,"x_min":63,"x_max":854,"o":"m 63 0 m 501 993 q 591 978 550 993 q 661 947 632 964 q 722 903 696 928 q 747 935 733 921 q 771 960 760 950 q 799 979 785 971 l 833 979 l 833 715 l 778 715 q 724 836 758 782 q 646 920 694 882 q 528 958 597 958 q 446 935 486 958 q 374 858 406 913 q 324 712 343 803 q 306 486 306 621 q 325 260 306 350 q 379 115 344 169 q 461 37 414 60 q 563 14 508 14 q 658 35 613 14 q 740 94 704 57 q 798 178 776 131 q 819 278 819 225 l 854 278 q 830 164 854 218 q 763 69 806 110 q 661 3 719 28 q 535 -21 603 -21 q 338 13 425 -21 q 189 110 250 46 q 95 269 128 175 q 63 486 63 364 q 94 703 63 608 q 185 862 126 797 q 324 960 243 926 q 501 993 404 993 m 399 1174 q 426 1243 399 1215 q 496 1271 454 1271 q 565 1243 538 1271 q 593 1174 593 1215 q 565 1104 593 1132 q 496 1076 538 1076 q 426 1104 454 1076 q 399 1174 399 1132 z "},"İ":{"ha":535,"x_min":69,"x_max":465,"o":"m 69 0 m 69 951 l 69 972 l 465 972 l 465 951 l 382 931 l 382 42 l 465 21 l 465 0 l 69 0 l 69 21 l 153 42 l 153 931 l 69 951 m 169 1167 q 197 1236 169 1208 q 267 1264 225 1264 q 336 1236 308 1264 q 364 1167 364 1208 q 336 1097 364 1125 q 267 1069 308 1069 q 197 1097 225 1069 q 169 1167 169 1125 z "},"Ė":{"ha":896,"x_min":69,"x_max":840,"o":"m 69 0 m 542 500 q 557 553 547 528 q 578 599 567 579 q 604 639 590 621 l 646 639 l 646 326 l 604 326 q 578 367 590 344 q 557 411 567 386 q 542 465 547 436 l 382 465 l 382 35 l 708 35 q 722 129 708 89 q 753 197 736 169 q 799 250 772 229 l 840 250 l 840 0 l 69 0 l 69 21 l 153 42 l 153 931 l 69 951 l 69 972 l 813 972 l 813 722 l 771 722 q 725 775 744 743 q 694 842 708 803 q 681 938 681 882 l 382 938 l 382 500 l 542 500 m 392 1167 q 419 1236 392 1208 q 489 1264 447 1264 q 558 1236 531 1264 q 586 1167 586 1208 q 558 1097 586 1125 q 489 1069 531 1069 q 419 1097 447 1069 q 392 1167 392 1125 z "},"Ġ":{"ha":972,"x_min":63,"x_max":944,"o":"m 63 0 m 507 28 q 562 45 539 28 q 600 83 585 63 q 632 139 618 108 l 632 458 l 549 479 l 549 500 l 944 500 l 944 479 l 861 458 l 861 -7 l 840 -7 q 742 10 779 -7 q 686 49 706 28 q 653 104 663 74 q 607 42 635 68 q 544 -1 583 18 q 451 -21 506 -21 q 303 13 374 -21 q 178 110 232 46 q 94 269 125 175 q 63 486 63 364 q 94 703 63 608 q 185 862 126 797 q 324 960 243 926 q 501 993 404 993 q 591 978 550 993 q 661 947 632 964 q 722 903 696 928 q 747 935 733 921 q 771 960 760 950 q 799 979 785 971 l 833 979 l 833 715 l 778 715 q 724 836 758 782 q 646 920 694 882 q 528 958 597 958 q 446 935 486 958 q 374 858 406 913 q 324 712 343 803 q 306 486 306 621 q 322 262 306 350 q 367 122 339 174 q 432 49 396 69 q 507 28 468 28 m 396 1174 q 424 1243 396 1215 q 493 1271 451 1271 q 563 1243 535 1271 q 590 1174 590 1215 q 563 1104 590 1132 q 493 1076 535 1076 q 424 1104 451 1076 q 396 1174 396 1132 z "},"Ż":{"ha":882,"x_min":56,"x_max":826,"o":"m 56 0 m 688 35 q 701 129 688 89 q 732 197 715 169 q 778 250 751 229 l 819 250 l 819 0 l 56 0 l 56 35 l 571 938 l 208 938 q 194 842 208 882 q 163 775 179 803 q 118 722 143 743 l 76 722 l 76 972 l 826 972 l 826 938 l 313 35 l 688 35 m 350 1167 q 378 1236 350 1208 q 447 1264 406 1264 q 517 1236 489 1264 q 544 1167 544 1208 q 517 1097 544 1125 q 447 1069 489 1069 q 378 1097 406 1069 q 350 1167 350 1125 z "},"˘":{"ha":458,"x_min":21,"x_max":438,"o":"m 229 792 q 285 799 265 792 q 306 806 306 807 l 306 958 q 322 961 314 960 q 338 964 329 963 q 354 965 346 965 q 414 942 390 965 q 438 882 438 918 q 390 799 438 835 q 229 764 343 764 q 133 774 172 764 q 68 799 93 783 q 32 837 43 815 q 21 882 21 858 q 44 942 21 918 q 104 965 68 965 q 120 964 111 965 q 136 961 129 963 q 153 958 144 960 l 153 806 q 173 799 153 807 q 229 792 193 792 z "},"Ă":{"ha":944,"x_min":-28,"x_max":972,"o":"m 0 0 m 229 21 l 229 0 l -28 0 l -28 21 l 83 63 l 465 986 l 507 986 l 903 42 l 972 21 l 972 0 l 806 0 q 683 35 728 0 q 619 118 639 71 l 549 285 l 217 285 l 125 63 l 229 21 m 231 319 l 535 319 l 382 685 l 231 319 m 486 1076 q 542 1084 522 1076 q 563 1090 563 1092 l 563 1243 q 579 1246 571 1244 q 594 1249 586 1247 q 611 1250 603 1250 q 671 1226 647 1250 q 694 1167 694 1203 q 647 1084 694 1119 q 486 1049 600 1049 q 390 1058 429 1049 q 325 1084 350 1068 q 289 1122 300 1100 q 278 1167 278 1143 q 301 1226 278 1203 q 361 1250 325 1250 q 377 1249 368 1250 q 393 1246 386 1247 q 410 1243 401 1244 l 410 1090 q 430 1084 410 1092 q 486 1076 450 1076 z "},"Ĕ":{"ha":896,"x_min":69,"x_max":840,"o":"m 69 0 m 542 500 q 557 553 547 528 q 578 599 567 579 q 604 639 590 621 l 646 639 l 646 326 l 604 326 q 578 367 590 344 q 557 411 567 386 q 542 465 547 436 l 382 465 l 382 35 l 708 35 q 722 129 708 89 q 753 197 736 169 q 799 250 772 229 l 840 250 l 840 0 l 69 0 l 69 21 l 153 42 l 153 931 l 69 951 l 69 972 l 813 972 l 813 722 l 771 722 q 725 775 744 743 q 694 842 708 803 q 681 938 681 882 l 382 938 l 382 500 l 542 500 m 475 1097 q 531 1105 511 1097 q 551 1111 551 1113 l 551 1264 q 568 1267 560 1265 q 583 1269 575 1268 q 600 1271 592 1271 q 660 1247 636 1271 q 683 1188 683 1224 q 636 1105 683 1140 q 475 1069 589 1069 q 378 1079 418 1069 q 314 1105 339 1089 q 278 1142 289 1121 q 267 1188 267 1164 q 290 1247 267 1224 q 350 1271 314 1271 q 366 1269 357 1271 q 382 1267 375 1268 q 399 1264 390 1265 l 399 1111 q 419 1105 399 1113 q 475 1097 439 1097 z "},"Ğ":{"ha":972,"x_min":63,"x_max":944,"o":"m 63 0 m 507 28 q 562 45 539 28 q 600 83 585 63 q 632 139 618 108 l 632 458 l 549 479 l 549 500 l 944 500 l 944 479 l 861 458 l 861 -7 l 840 -7 q 742 10 779 -7 q 686 49 706 28 q 653 104 663 74 q 607 42 635 68 q 544 -1 583 18 q 451 -21 506 -21 q 303 13 374 -21 q 178 110 232 46 q 94 269 125 175 q 63 486 63 364 q 94 703 63 608 q 185 862 126 797 q 324 960 243 926 q 501 993 404 993 q 591 978 550 993 q 661 947 632 964 q 722 903 696 928 q 747 935 733 921 q 771 960 760 950 q 799 979 785 971 l 833 979 l 833 715 l 778 715 q 724 836 758 782 q 646 920 694 882 q 528 958 597 958 q 446 935 486 958 q 374 858 406 913 q 324 712 343 803 q 306 486 306 621 q 322 262 306 350 q 367 122 339 174 q 432 49 396 69 q 507 28 468 28 m 486 1097 q 542 1105 522 1097 q 563 1111 563 1113 l 563 1264 q 579 1267 571 1265 q 594 1269 586 1268 q 611 1271 603 1271 q 671 1247 647 1271 q 694 1188 694 1224 q 647 1105 694 1140 q 486 1069 600 1069 q 390 1079 429 1069 q 325 1105 350 1089 q 289 1142 300 1121 q 278 1188 278 1164 q 301 1247 278 1224 q 361 1271 325 1271 q 377 1269 368 1271 q 393 1267 386 1268 q 410 1264 401 1265 l 410 1111 q 430 1105 410 1113 q 486 1097 450 1097 z "},"Ģ":{"ha":972,"x_min":63,"x_max":944,"o":"m 63 0 m 507 28 q 562 45 539 28 q 600 83 585 63 q 632 139 618 108 l 632 458 l 549 479 l 549 500 l 944 500 l 944 479 l 861 458 l 861 -7 l 840 -7 q 742 10 779 -7 q 686 49 706 28 q 653 104 663 74 q 607 42 635 68 q 544 -1 583 18 q 451 -21 506 -21 q 303 13 374 -21 q 178 110 232 46 q 94 269 125 175 q 63 486 63 364 q 94 703 63 608 q 185 862 126 797 q 324 960 243 926 q 501 993 404 993 q 591 978 550 993 q 661 947 632 964 q 722 903 696 928 q 747 935 733 921 q 771 960 760 950 q 799 979 785 971 l 833 979 l 833 715 l 778 715 q 724 836 758 782 q 646 920 694 882 q 528 958 597 958 q 446 935 486 958 q 374 858 406 913 q 324 712 343 803 q 306 486 306 621 q 322 262 306 350 q 367 122 339 174 q 432 49 396 69 q 507 28 468 28 m 426 -401 q 478 -371 454 -390 q 517 -326 497 -354 q 544 -256 536 -297 q 529 -267 538 -261 q 489 -276 513 -276 q 419 -249 447 -276 q 392 -179 392 -221 q 419 -110 392 -137 q 489 -82 447 -82 q 565 -112 536 -82 q 593 -200 593 -142 q 569 -312 593 -268 q 517 -382 544 -356 q 440 -429 482 -412 l 426 -401 z "},"Ĭ":{"ha":535,"x_min":63,"x_max":479,"o":"m 63 0 m 69 951 l 69 972 l 465 972 l 465 951 l 382 931 l 382 42 l 465 21 l 465 0 l 69 0 l 69 21 l 153 42 l 153 931 l 69 951 m 271 1090 q 327 1098 307 1090 q 347 1104 347 1106 l 347 1257 q 364 1260 356 1258 q 379 1263 371 1261 q 396 1264 388 1264 q 456 1240 432 1264 q 479 1181 479 1217 q 432 1098 479 1133 q 271 1063 385 1063 q 174 1072 214 1063 q 110 1098 135 1082 q 74 1135 85 1114 q 63 1181 63 1157 q 86 1240 63 1217 q 146 1264 110 1264 q 162 1263 153 1264 q 178 1260 171 1261 q 194 1257 186 1258 l 194 1104 q 215 1098 194 1106 q 271 1090 235 1090 z "},"Ķ":{"ha":958,"x_min":69,"x_max":972,"o":"m 69 0 m 972 21 l 972 0 l 778 0 q 666 35 710 0 q 590 118 622 71 l 382 438 l 382 42 l 465 21 l 465 0 l 69 0 l 69 21 l 153 42 l 153 931 l 69 951 l 69 972 l 465 972 l 465 951 l 382 931 l 382 494 l 722 910 l 618 951 l 618 972 l 882 972 l 882 951 l 771 910 l 528 611 l 903 42 l 972 21 m 458 -367 q 510 -336 486 -356 q 549 -291 529 -319 q 576 -221 568 -262 q 561 -232 569 -226 q 521 -242 544 -242 q 451 -214 479 -242 q 424 -144 424 -186 q 451 -75 424 -103 q 521 -47 479 -47 q 597 -77 568 -47 q 625 -165 625 -107 q 601 -277 625 -233 q 549 -347 576 -321 q 472 -394 514 -378 l 458 -367 z "},"Ļ":{"ha":847,"x_min":69,"x_max":813,"o":"m 69 0 m 465 972 l 465 951 l 382 931 l 382 35 l 681 35 q 694 129 681 89 q 725 197 708 169 q 771 250 744 229 l 813 250 l 813 0 l 69 0 l 69 21 l 153 42 l 153 931 l 69 951 l 69 972 l 465 972 m 426 -394 q 478 -364 454 -383 q 517 -319 497 -347 q 544 -249 536 -290 q 529 -260 538 -254 q 489 -269 513 -269 q 419 -242 447 -269 q 392 -172 392 -214 q 419 -103 392 -131 q 489 -75 447 -75 q 565 -105 536 -75 q 593 -193 593 -135 q 569 -305 593 -261 q 517 -375 544 -349 q 440 -422 482 -406 l 426 -394 z "},"Ŀ":{"ha":847,"x_min":69,"x_max":813,"o":"m 69 0 m 465 972 l 465 951 l 382 931 l 382 35 l 681 35 q 694 129 681 89 q 725 197 708 169 q 771 250 744 229 l 813 250 l 813 0 l 69 0 l 69 21 l 153 42 l 153 931 l 69 951 l 69 972 l 465 972 m 479 488 q 507 557 479 529 q 576 585 535 585 q 646 557 618 585 q 674 488 674 529 q 646 418 674 446 q 576 390 618 390 q 507 418 535 390 q 479 488 479 446 z "},"Ņ":{"ha":1028,"x_min":42,"x_max":993,"o":"m 42 0 m 840 910 l 729 951 l 729 972 l 993 972 l 993 951 l 882 910 l 882 -21 l 840 -21 l 194 736 l 194 63 l 306 21 l 306 0 l 42 0 l 42 21 l 153 63 l 153 924 l 56 951 l 56 972 l 201 972 q 274 963 243 972 q 327 940 304 954 q 367 908 350 925 q 396 875 383 890 l 840 354 l 840 910 m 451 -312 q 503 -282 479 -301 q 542 -237 522 -265 q 569 -167 561 -208 q 554 -178 563 -172 q 514 -187 538 -187 q 444 -160 472 -187 q 417 -90 417 -132 q 444 -21 417 -49 q 514 7 472 7 q 590 -23 561 7 q 618 -111 618 -53 q 594 -223 618 -179 q 542 -293 569 -267 q 465 -340 507 -324 l 451 -312 z "},"Ŏ":{"ha":1028,"x_min":63,"x_max":965,"o":"m 63 0 m 722 486 q 703 716 722 624 q 655 864 685 808 q 588 942 625 919 q 514 965 550 965 q 440 942 478 965 q 373 864 403 919 q 324 716 343 808 q 306 486 306 624 q 324 256 306 349 q 373 108 343 164 q 440 30 403 53 q 514 7 478 7 q 588 30 550 7 q 655 108 625 53 q 703 256 685 164 q 722 486 722 349 m 965 486 q 933 269 965 364 q 841 110 900 175 q 699 13 782 46 q 514 -21 615 -21 q 329 13 413 -21 q 187 110 246 46 q 95 269 128 175 q 63 486 63 364 q 95 703 63 608 q 187 862 128 797 q 329 960 246 926 q 514 993 413 993 q 699 960 615 993 q 841 862 782 926 q 933 703 900 797 q 965 486 965 608 m 514 1090 q 570 1098 550 1090 q 590 1104 590 1106 l 590 1257 q 607 1260 599 1258 q 622 1263 614 1261 q 639 1264 631 1264 q 699 1240 675 1264 q 722 1181 722 1217 q 675 1098 722 1133 q 514 1063 628 1063 q 417 1072 457 1063 q 353 1098 378 1082 q 317 1135 328 1114 q 306 1181 306 1157 q 329 1240 306 1217 q 389 1264 353 1264 q 405 1263 396 1264 q 421 1260 414 1261 q 438 1257 429 1258 l 438 1104 q 458 1098 438 1106 q 514 1090 478 1090 z "},"Ǿ":{"ha":1028,"x_min":63,"x_max":965,"o":"m 965 486 q 933 269 965 364 q 841 110 900 175 q 699 13 782 46 q 514 -21 615 -21 q 226 78 340 -21 l 167 0 l 118 0 l 197 104 q 99 265 136 169 q 63 486 63 360 q 95 703 63 608 q 187 862 128 797 q 329 960 246 926 q 514 993 413 993 q 801 894 686 993 l 861 972 l 910 972 l 829 867 q 928 707 892 801 q 965 486 965 613 m 722 486 q 717 606 722 551 q 706 704 713 660 l 332 217 q 367 118 346 158 q 412 53 388 78 q 463 17 436 28 q 514 7 489 7 q 588 30 550 7 q 655 108 625 53 q 703 256 685 164 q 722 486 722 349 m 306 486 q 322 267 306 356 l 694 754 q 659 853 679 813 q 615 918 639 893 q 565 954 590 943 q 514 965 539 965 q 440 942 478 965 q 373 864 403 919 q 324 716 343 808 q 306 486 306 624 m 701 1250 l 514 1042 l 465 1042 l 521 1250 l 701 1250 z "},"Ŗ":{"ha":972,"x_min":69,"x_max":972,"o":"m 69 0 m 556 444 q 646 429 603 443 q 719 392 682 418 q 778 319 757 367 l 903 42 l 972 21 l 972 0 l 778 0 q 675 33 715 0 q 611 118 635 65 l 472 431 l 382 431 l 382 42 l 479 21 l 479 0 l 69 0 l 69 21 l 153 42 l 153 931 l 69 951 l 69 972 l 438 972 q 647 952 563 972 q 784 897 732 932 q 859 811 836 861 q 882 701 882 761 q 868 619 882 654 q 831 556 854 583 q 778 511 808 529 q 718 482 749 493 q 556 451 646 454 l 556 444 m 438 465 q 589 526 532 465 q 646 701 646 586 q 589 877 646 817 q 438 938 532 938 l 382 938 l 382 465 l 438 465 m 469 -367 q 521 -336 497 -356 q 560 -291 540 -319 q 588 -221 579 -262 q 572 -232 581 -226 q 532 -242 556 -242 q 463 -214 490 -242 q 435 -144 435 -186 q 463 -75 435 -103 q 532 -47 490 -47 q 608 -77 579 -47 q 636 -165 636 -107 q 612 -277 636 -233 q 560 -347 588 -321 q 483 -394 525 -378 l 469 -367 z "},"Ș":{"ha":826,"x_min":49,"x_max":792,"o":"m 49 0 m 382 14 q 508 61 461 14 q 556 188 556 108 q 519 281 556 242 q 428 356 482 321 q 309 425 374 390 q 190 504 244 460 q 99 608 136 549 q 63 750 63 667 q 83 844 63 800 q 147 921 104 888 q 253 974 189 954 q 403 993 317 993 q 493 978 451 993 q 564 947 535 964 q 625 903 599 928 q 649 935 636 921 q 674 960 663 950 q 701 979 688 971 l 736 979 l 736 715 l 681 715 q 626 836 661 782 q 549 920 597 882 q 431 958 500 958 q 381 947 404 958 q 339 916 357 936 q 310 867 321 896 q 299 806 299 839 q 335 703 299 746 q 426 625 372 661 q 545 554 481 589 q 664 477 610 519 q 755 381 718 435 q 792 250 792 326 q 768 147 792 196 q 697 60 744 97 q 578 1 650 22 q 410 -21 506 -21 q 303 -7 349 -21 q 225 24 257 7 q 160 69 188 43 q 135 36 149 50 q 111 13 122 22 q 83 -7 97 1 l 49 -7 l 49 257 l 104 257 q 163 135 125 189 q 200 90 179 111 q 248 51 221 68 q 308 24 275 35 q 382 14 342 14 m 372 -394 q 424 -364 400 -383 q 463 -319 443 -347 q 490 -249 482 -290 q 475 -260 483 -254 q 435 -269 458 -269 q 365 -242 393 -269 q 338 -172 338 -214 q 365 -103 338 -131 q 435 -75 393 -75 q 510 -105 482 -75 q 539 -193 539 -135 q 515 -305 539 -261 q 463 -375 490 -349 q 386 -422 428 -406 l 372 -394 z "},"Ţ":{"ha":882,"x_min":35,"x_max":847,"o":"m 35 0 m 243 0 l 243 21 l 326 42 l 326 938 l 167 938 q 152 842 167 882 q 121 775 138 803 q 76 722 101 743 l 35 722 l 35 972 l 847 972 l 847 722 l 806 722 q 760 775 779 743 q 729 842 743 803 q 715 938 715 882 l 556 938 l 556 42 l 639 21 l 639 0 l 243 0 m 375 -394 q 426 -364 403 -383 q 465 -319 446 -347 q 493 -249 485 -290 q 478 -260 486 -254 q 438 -269 461 -269 q 368 -242 396 -269 q 340 -172 340 -214 q 368 -103 340 -131 q 438 -75 396 -75 q 513 -105 485 -75 q 542 -193 542 -135 q 517 -305 542 -261 q 465 -375 493 -349 q 389 -422 431 -406 l 375 -394 z "},"Ŭ":{"ha":986,"x_min":49,"x_max":979,"o":"m 49 0 m 826 910 l 715 951 l 715 972 l 979 972 l 979 951 l 868 910 l 868 347 q 844 193 868 261 q 776 77 819 125 q 675 4 733 29 q 549 -21 617 -21 q 236 77 340 -21 q 132 347 132 175 l 132 931 l 49 951 l 49 972 l 444 972 l 444 951 l 361 931 l 361 347 q 376 190 361 253 q 419 87 392 126 q 487 31 447 47 q 576 14 526 14 q 668 37 624 14 q 748 103 713 60 q 805 208 783 146 q 826 347 826 269 l 826 910 m 556 1076 q 612 1084 592 1076 q 632 1090 632 1092 l 632 1243 q 649 1246 640 1244 q 664 1249 656 1247 q 681 1250 672 1250 q 740 1226 717 1250 q 764 1167 764 1203 q 717 1084 764 1119 q 556 1049 669 1049 q 459 1058 499 1049 q 394 1084 419 1068 q 358 1122 369 1100 q 347 1167 347 1143 q 371 1226 347 1203 q 431 1250 394 1250 q 447 1249 438 1250 q 463 1246 456 1247 q 479 1243 471 1244 l 479 1090 q 499 1084 479 1092 q 556 1076 519 1076 z "},"á":{"ha":840,"x_min":69,"x_max":813,"o":"m 69 0 m 326 326 q 313 285 318 308 q 303 239 307 265 q 299 181 299 213 q 324 63 299 97 q 382 28 350 28 q 437 45 414 28 q 475 83 460 63 q 507 139 493 108 l 507 340 q 443 338 475 340 q 385 333 411 336 q 326 326 354 329 m 382 715 q 530 693 465 715 q 639 631 594 671 q 706 537 683 592 q 729 417 729 482 l 729 42 l 813 21 l 813 0 l 688 0 q 607 16 638 0 q 558 51 576 32 q 528 104 538 75 q 482 42 510 68 q 419 -1 458 18 q 326 -21 381 -21 q 213 -6 261 -21 q 133 34 165 8 q 85 94 101 60 q 69 167 69 128 q 76 226 69 199 q 93 274 83 253 q 118 319 104 299 q 242 344 176 333 q 367 363 297 354 q 507 375 436 372 l 507 417 q 497 550 507 497 q 467 633 486 603 q 419 676 447 664 q 354 688 390 688 q 326 685 339 688 q 304 681 314 683 q 285 674 293 676 l 285 465 q 267 461 275 463 q 249 459 258 460 q 229 458 240 458 q 153 487 182 458 q 125 563 125 515 q 140 619 125 592 q 185 667 154 646 q 265 702 217 689 q 382 715 314 715 m 590 986 l 403 778 l 354 778 l 410 986 l 590 986 z "},"ă":{"ha":840,"x_min":69,"x_max":813,"o":"m 69 0 m 326 326 q 313 285 318 308 q 303 239 307 265 q 299 181 299 213 q 324 63 299 97 q 382 28 350 28 q 437 45 414 28 q 475 83 460 63 q 507 139 493 108 l 507 340 q 443 338 475 340 q 385 333 411 336 q 326 326 354 329 m 382 715 q 530 693 465 715 q 639 631 594 671 q 706 537 683 592 q 729 417 729 482 l 729 42 l 813 21 l 813 0 l 688 0 q 607 16 638 0 q 558 51 576 32 q 528 104 538 75 q 482 42 510 68 q 419 -1 458 18 q 326 -21 381 -21 q 213 -6 261 -21 q 133 34 165 8 q 85 94 101 60 q 69 167 69 128 q 76 226 69 199 q 93 274 83 253 q 118 319 104 299 q 242 344 176 333 q 367 363 297 354 q 507 375 436 372 l 507 417 q 497 550 507 497 q 467 633 486 603 q 419 676 447 664 q 354 688 390 688 q 326 685 339 688 q 304 681 314 683 q 285 674 293 676 l 285 465 q 267 461 275 463 q 249 459 258 460 q 229 458 240 458 q 153 487 182 458 q 125 563 125 515 q 140 619 125 592 q 185 667 154 646 q 265 702 217 689 q 382 715 314 715 m 417 826 q 473 834 453 826 q 493 840 493 842 l 493 993 q 510 996 501 994 q 525 999 517 997 q 542 1000 533 1000 q 601 976 578 1000 q 625 917 625 953 q 578 834 625 869 q 417 799 531 799 q 320 808 360 799 q 256 834 281 818 q 219 872 231 850 q 208 917 208 893 q 232 976 208 953 q 292 1000 256 1000 q 308 999 299 1000 q 324 996 317 997 q 340 993 332 994 l 340 840 q 360 834 340 842 q 417 826 381 826 z "},"â":{"ha":840,"x_min":69,"x_max":813,"o":"m 69 0 m 326 326 q 313 285 318 308 q 303 239 307 265 q 299 181 299 213 q 324 63 299 97 q 382 28 350 28 q 437 45 414 28 q 475 83 460 63 q 507 139 493 108 l 507 340 q 443 338 475 340 q 385 333 411 336 q 326 326 354 329 m 382 715 q 530 693 465 715 q 639 631 594 671 q 706 537 683 592 q 729 417 729 482 l 729 42 l 813 21 l 813 0 l 688 0 q 607 16 638 0 q 558 51 576 32 q 528 104 538 75 q 482 42 510 68 q 419 -1 458 18 q 326 -21 381 -21 q 213 -6 261 -21 q 133 34 165 8 q 85 94 101 60 q 69 167 69 128 q 76 226 69 199 q 93 274 83 253 q 118 319 104 299 q 242 344 176 333 q 367 363 297 354 q 507 375 436 372 l 507 417 q 497 550 507 497 q 467 633 486 603 q 419 676 447 664 q 354 688 390 688 q 326 685 339 688 q 304 681 314 683 q 285 674 293 676 l 285 465 q 267 461 275 463 q 249 459 258 460 q 229 458 240 458 q 153 487 182 458 q 125 563 125 515 q 140 619 125 592 q 185 667 154 646 q 265 702 217 689 q 382 715 314 715 m 417 1014 l 618 785 l 569 785 l 417 882 l 264 785 l 215 785 l 417 1014 z "},"ä":{"ha":840,"x_min":69,"x_max":813,"o":"m 69 0 m 326 326 q 313 285 318 308 q 303 239 307 265 q 299 181 299 213 q 324 63 299 97 q 382 28 350 28 q 437 45 414 28 q 475 83 460 63 q 507 139 493 108 l 507 340 q 443 338 475 340 q 385 333 411 336 q 326 326 354 329 m 382 715 q 530 693 465 715 q 639 631 594 671 q 706 537 683 592 q 729 417 729 482 l 729 42 l 813 21 l 813 0 l 688 0 q 607 16 638 0 q 558 51 576 32 q 528 104 538 75 q 482 42 510 68 q 419 -1 458 18 q 326 -21 381 -21 q 213 -6 261 -21 q 133 34 165 8 q 85 94 101 60 q 69 167 69 128 q 76 226 69 199 q 93 274 83 253 q 118 319 104 299 q 242 344 176 333 q 367 363 297 354 q 507 375 436 372 l 507 417 q 497 550 507 497 q 467 633 486 603 q 419 676 447 664 q 354 688 390 688 q 326 685 339 688 q 304 681 314 683 q 285 674 293 676 l 285 465 q 267 461 275 463 q 249 459 258 460 q 229 458 240 458 q 153 487 182 458 q 125 563 125 515 q 140 619 125 592 q 185 667 154 646 q 265 702 217 689 q 382 715 314 715 m 190 896 q 218 965 190 938 q 288 993 246 993 q 357 965 329 993 q 385 896 385 938 q 357 826 385 854 q 288 799 329 799 q 218 826 246 799 q 190 896 190 854 m 447 896 q 475 965 447 938 q 544 993 503 993 q 614 965 586 993 q 642 896 642 938 q 614 826 642 854 q 544 799 586 799 q 475 826 503 799 q 447 896 447 854 z "},"à":{"ha":840,"x_min":69,"x_max":813,"o":"m 69 0 m 326 326 q 313 285 318 308 q 303 239 307 265 q 299 181 299 213 q 324 63 299 97 q 382 28 350 28 q 437 45 414 28 q 475 83 460 63 q 507 139 493 108 l 507 340 q 443 338 475 340 q 385 333 411 336 q 326 326 354 329 m 382 715 q 530 693 465 715 q 639 631 594 671 q 706 537 683 592 q 729 417 729 482 l 729 42 l 813 21 l 813 0 l 688 0 q 607 16 638 0 q 558 51 576 32 q 528 104 538 75 q 482 42 510 68 q 419 -1 458 18 q 326 -21 381 -21 q 213 -6 261 -21 q 133 34 165 8 q 85 94 101 60 q 69 167 69 128 q 76 226 69 199 q 93 274 83 253 q 118 319 104 299 q 242 344 176 333 q 367 363 297 354 q 507 375 436 372 l 507 417 q 497 550 507 497 q 467 633 486 603 q 419 676 447 664 q 354 688 390 688 q 326 685 339 688 q 304 681 314 683 q 285 674 293 676 l 285 465 q 267 461 275 463 q 249 459 258 460 q 229 458 240 458 q 153 487 182 458 q 125 563 125 515 q 140 619 125 592 q 185 667 154 646 q 265 702 217 689 q 382 715 314 715 m 396 986 l 451 778 l 403 778 l 215 986 l 396 986 z "},"ā":{"ha":840,"x_min":69,"x_max":813,"o":"m 69 0 m 326 326 q 313 285 318 308 q 303 239 307 265 q 299 181 299 213 q 324 63 299 97 q 382 28 350 28 q 437 45 414 28 q 475 83 460 63 q 507 139 493 108 l 507 340 q 443 338 475 340 q 385 333 411 336 q 326 326 354 329 m 382 715 q 530 693 465 715 q 639 631 594 671 q 706 537 683 592 q 729 417 729 482 l 729 42 l 813 21 l 813 0 l 688 0 q 607 16 638 0 q 558 51 576 32 q 528 104 538 75 q 482 42 510 68 q 419 -1 458 18 q 326 -21 381 -21 q 213 -6 261 -21 q 133 34 165 8 q 85 94 101 60 q 69 167 69 128 q 76 226 69 199 q 93 274 83 253 q 118 319 104 299 q 242 344 176 333 q 367 363 297 354 q 507 375 436 372 l 507 417 q 497 550 507 497 q 467 633 486 603 q 419 676 447 664 q 354 688 390 688 q 326 685 339 688 q 304 681 314 683 q 285 674 293 676 l 285 465 q 267 461 275 463 q 249 459 258 460 q 229 458 240 458 q 153 487 182 458 q 125 563 125 515 q 140 619 125 592 q 185 667 154 646 q 265 702 217 689 q 382 715 314 715 m 236 835 l 236 897 l 597 897 l 597 835 l 236 835 z "},"ą":{"ha":840,"x_min":69,"x_max":813,"o":"m 382 715 q 530 693 465 715 q 639 631 594 671 q 706 537 683 592 q 729 417 729 482 l 729 42 l 813 21 l 813 0 q 746 -43 775 -18 q 701 -97 721 -65 q 681 -174 681 -129 q 736 -229 681 -229 q 760 -225 749 -229 q 781 -215 772 -221 q 799 -201 790 -210 l 799 -243 q 774 -254 788 -249 q 708 -264 747 -264 q 599 -233 635 -264 q 563 -160 563 -201 q 575 -109 563 -132 q 607 -69 588 -86 q 649 -39 626 -51 q 693 -18 672 -26 q 729 -6 714 -10 q 749 0 744 -1 l 688 0 q 610 15 640 0 q 561 48 579 29 q 536 83 543 67 q 528 103 529 99 q 516 82 528 101 q 480 40 504 63 q 418 -2 456 17 q 326 -21 381 -21 q 213 -6 261 -21 q 133 34 165 8 q 85 94 101 60 q 69 167 69 128 q 76 226 69 199 q 93 274 83 253 q 118 319 104 299 q 242 344 176 333 q 367 363 297 354 q 507 375 436 372 l 507 417 q 497 550 507 497 q 467 633 486 603 q 419 676 447 664 q 354 688 390 688 q 326 685 339 688 q 304 681 314 683 q 285 674 293 676 l 285 465 q 267 461 275 463 q 249 459 258 460 q 229 458 240 458 q 153 487 182 458 q 125 563 125 515 q 140 619 125 592 q 185 667 154 646 q 265 702 217 689 q 382 715 314 715 m 326 326 q 313 285 318 308 q 303 239 307 265 q 299 181 299 213 q 324 63 299 97 q 382 28 350 28 q 437 45 414 28 q 475 83 460 63 q 507 139 493 108 l 507 340 q 443 338 475 340 q 385 333 411 336 q 326 326 354 329 z "},"å":{"ha":840,"x_min":69,"x_max":813,"o":"m 69 0 m 326 326 q 313 285 318 308 q 303 239 307 265 q 299 181 299 213 q 324 63 299 97 q 382 28 350 28 q 437 45 414 28 q 475 83 460 63 q 507 139 493 108 l 507 340 q 443 338 475 340 q 385 333 411 336 q 326 326 354 329 m 382 715 q 530 693 465 715 q 639 631 594 671 q 706 537 683 592 q 729 417 729 482 l 729 42 l 813 21 l 813 0 l 688 0 q 607 16 638 0 q 558 51 576 32 q 528 104 538 75 q 482 42 510 68 q 419 -1 458 18 q 326 -21 381 -21 q 213 -6 261 -21 q 133 34 165 8 q 85 94 101 60 q 69 167 69 128 q 76 226 69 199 q 93 274 83 253 q 118 319 104 299 q 242 344 176 333 q 367 363 297 354 q 507 375 436 372 l 507 417 q 497 550 507 497 q 467 633 486 603 q 419 676 447 664 q 354 688 390 688 q 326 685 339 688 q 304 681 314 683 q 285 674 293 676 l 285 465 q 267 461 275 463 q 249 459 258 460 q 229 458 240 458 q 153 487 182 458 q 125 563 125 515 q 140 619 125 592 q 185 667 154 646 q 265 702 217 689 q 382 715 314 715 m 563 924 q 551 869 563 894 q 521 826 540 844 q 474 796 501 807 q 417 785 447 785 q 358 796 385 785 q 313 826 332 807 q 282 869 293 844 q 271 924 271 894 q 282 978 271 953 q 313 1022 293 1003 q 358 1051 332 1040 q 417 1063 385 1063 q 474 1051 447 1063 q 521 1022 501 1040 q 551 978 540 1003 q 563 924 563 953 m 493 924 q 471 990 493 965 q 417 1014 449 1014 q 363 990 385 1014 q 340 924 340 965 q 363 858 340 882 q 417 833 385 833 q 471 858 449 833 q 493 924 493 882 z "},"ã":{"ha":840,"x_min":69,"x_max":813,"o":"m 69 0 m 326 326 q 313 285 318 308 q 303 239 307 265 q 299 181 299 213 q 324 63 299 97 q 382 28 350 28 q 437 45 414 28 q 475 83 460 63 q 507 139 493 108 l 507 340 q 443 338 475 340 q 385 333 411 336 q 326 326 354 329 m 382 715 q 530 693 465 715 q 639 631 594 671 q 706 537 683 592 q 729 417 729 482 l 729 42 l 813 21 l 813 0 l 688 0 q 607 16 638 0 q 558 51 576 32 q 528 104 538 75 q 482 42 510 68 q 419 -1 458 18 q 326 -21 381 -21 q 213 -6 261 -21 q 133 34 165 8 q 85 94 101 60 q 69 167 69 128 q 76 226 69 199 q 93 274 83 253 q 118 319 104 299 q 242 344 176 333 q 367 363 297 354 q 507 375 436 372 l 507 417 q 497 550 507 497 q 467 633 486 603 q 419 676 447 664 q 354 688 390 688 q 326 685 339 688 q 304 681 314 683 q 285 674 293 676 l 285 465 q 267 461 275 463 q 249 459 258 460 q 229 458 240 458 q 153 487 182 458 q 125 563 125 515 q 140 619 125 592 q 185 667 154 646 q 265 702 217 689 q 382 715 314 715 m 482 813 q 428 824 450 813 q 388 847 407 835 q 353 871 369 860 q 315 882 336 882 q 271 864 289 882 q 253 819 253 846 l 225 819 q 258 941 225 903 q 350 979 292 979 q 403 968 381 979 q 444 944 425 957 q 479 921 463 932 q 517 910 496 910 q 561 928 543 910 q 579 972 579 946 l 607 972 q 574 851 607 889 q 482 813 540 813 z "},"ć":{"ha":736,"x_min":56,"x_max":694,"o":"m 56 0 m 458 688 q 392 672 422 688 q 339 619 361 657 q 304 515 317 581 q 292 347 292 449 q 304 184 292 249 q 339 82 317 119 q 392 29 361 44 q 458 14 422 14 q 537 29 500 14 q 601 70 574 44 q 644 128 628 96 q 660 194 660 161 l 694 194 q 676 114 694 153 q 622 45 657 75 q 539 -3 588 15 q 431 -21 490 -21 q 154 77 253 -21 q 56 347 56 175 q 154 617 56 519 q 431 715 253 715 q 547 702 499 715 q 627 667 596 689 q 673 619 658 646 q 688 563 688 592 q 659 487 688 515 q 583 458 631 458 q 562 459 572 458 q 544 461 551 460 q 528 465 535 463 l 528 674 q 508 681 519 676 q 486 685 499 683 q 458 688 474 688 m 590 986 l 403 778 l 354 778 l 410 986 l 590 986 z "},"č":{"ha":736,"x_min":56,"x_max":694,"o":"m 56 0 m 458 688 q 392 672 422 688 q 339 619 361 657 q 304 515 317 581 q 292 347 292 449 q 304 184 292 249 q 339 82 317 119 q 392 29 361 44 q 458 14 422 14 q 537 29 500 14 q 601 70 574 44 q 644 128 628 96 q 660 194 660 161 l 694 194 q 676 114 694 153 q 622 45 657 75 q 539 -3 588 15 q 431 -21 490 -21 q 154 77 253 -21 q 56 347 56 175 q 154 617 56 519 q 431 715 253 715 q 547 702 499 715 q 627 667 596 689 q 673 619 658 646 q 688 563 688 592 q 659 487 688 515 q 583 458 631 458 q 562 459 572 458 q 544 461 551 460 q 528 465 535 463 l 528 674 q 508 681 519 676 q 486 685 499 683 q 458 688 474 688 m 424 786 l 340 786 l 181 994 l 229 994 l 382 883 l 535 994 l 583 994 l 424 786 z "},"ç":{"ha":736,"x_min":56,"x_max":694,"o":"m 458 688 q 392 672 422 688 q 339 619 361 657 q 304 515 317 581 q 292 347 292 449 q 304 184 292 249 q 339 82 317 119 q 392 29 361 44 q 458 14 422 14 q 537 29 500 14 q 601 70 574 44 q 644 128 628 96 q 660 194 660 161 l 694 194 q 676 114 694 153 q 622 45 657 75 q 539 -3 588 15 q 431 -21 490 -21 l 424 -21 l 424 -69 q 521 -101 486 -69 q 556 -174 556 -132 q 519 -247 556 -215 q 410 -278 483 -278 q 381 -277 394 -278 q 356 -275 367 -276 q 332 -271 343 -274 l 332 -229 q 346 -236 338 -233 q 382 -243 360 -243 q 433 -224 414 -243 q 451 -174 451 -206 q 431 -123 451 -142 q 375 -104 411 -104 l 375 -18 q 140 92 224 -4 q 56 347 56 189 q 154 617 56 519 q 431 715 253 715 q 547 702 499 715 q 627 667 596 689 q 673 619 658 646 q 688 563 688 592 q 659 487 688 515 q 583 458 631 458 q 562 459 572 458 q 544 461 551 460 q 528 465 535 463 l 528 674 q 508 681 519 676 q 486 685 499 683 q 458 688 474 688 z "},"ĉ":{"ha":736,"x_min":56,"x_max":694,"o":"m 56 0 m 458 688 q 392 672 422 688 q 339 619 361 657 q 304 515 317 581 q 292 347 292 449 q 304 184 292 249 q 339 82 317 119 q 392 29 361 44 q 458 14 422 14 q 537 29 500 14 q 601 70 574 44 q 644 128 628 96 q 660 194 660 161 l 694 194 q 676 114 694 153 q 622 45 657 75 q 539 -3 588 15 q 431 -21 490 -21 q 154 77 253 -21 q 56 347 56 175 q 154 617 56 519 q 431 715 253 715 q 547 702 499 715 q 627 667 596 689 q 673 619 658 646 q 688 563 688 592 q 659 487 688 515 q 583 458 631 458 q 562 459 572 458 q 544 461 551 460 q 528 465 535 463 l 528 674 q 508 681 519 676 q 486 685 499 683 q 458 688 474 688 m 396 1014 l 597 785 l 549 785 l 396 882 l 243 785 l 194 785 l 396 1014 z "},"ċ":{"ha":736,"x_min":56,"x_max":694,"o":"m 56 0 m 458 688 q 392 672 422 688 q 339 619 361 657 q 304 515 317 581 q 292 347 292 449 q 304 184 292 249 q 339 82 317 119 q 392 29 361 44 q 458 14 422 14 q 537 29 500 14 q 601 70 574 44 q 644 128 628 96 q 660 194 660 161 l 694 194 q 676 114 694 153 q 622 45 657 75 q 539 -3 588 15 q 431 -21 490 -21 q 154 77 253 -21 q 56 347 56 175 q 154 617 56 519 q 431 715 253 715 q 547 702 499 715 q 627 667 596 689 q 673 619 658 646 q 688 563 688 592 q 659 487 688 515 q 583 458 631 458 q 562 459 572 458 q 544 461 551 460 q 528 465 535 463 l 528 674 q 508 681 519 676 q 486 685 499 683 q 458 688 474 688 m 313 896 q 340 965 313 938 q 410 993 368 993 q 479 965 451 993 q 507 896 507 938 q 479 826 507 854 q 410 799 451 799 q 340 826 368 799 q 313 896 313 854 z "},"ď":{"ha":1056,"x_min":56,"x_max":1021,"o":"m 56 0 m 521 618 q 489 646 506 633 q 456 665 474 657 q 417 674 438 674 q 367 660 390 674 q 328 612 344 647 q 301 513 311 576 q 292 347 292 449 q 301 186 292 249 q 326 88 311 124 q 359 40 340 53 q 396 28 378 28 q 451 45 428 28 q 489 83 474 63 q 521 139 507 108 l 521 618 m 618 972 q 743 847 743 972 l 743 42 l 826 21 l 826 0 l 701 0 q 621 16 651 0 q 572 51 590 32 q 542 104 551 75 q 496 42 524 68 q 433 -1 472 18 q 340 -21 394 -21 q 228 3 281 -21 q 138 72 176 26 q 78 187 100 118 q 56 347 56 256 q 78 508 56 439 q 140 622 100 576 q 237 692 181 668 q 361 715 293 715 q 427 707 397 715 q 478 688 457 699 q 521 660 503 675 l 521 931 l 438 951 l 438 972 l 618 972 m 854 653 q 906 683 882 664 q 944 728 925 700 q 972 799 964 757 q 957 788 965 793 q 917 778 940 778 q 847 806 875 778 q 819 875 819 833 q 847 944 819 917 q 917 972 875 972 q 992 942 964 972 q 1021 854 1021 913 q 997 742 1021 786 q 944 672 972 699 q 868 625 910 642 l 854 653 z "},"đ":{"ha":868,"x_min":56,"x_max":833,"o":"m 618 972 q 743 847 743 972 l 743 819 l 833 819 l 833 778 l 743 778 l 743 42 l 826 21 l 826 0 l 701 0 q 621 16 651 0 q 572 51 590 32 q 542 104 551 75 q 496 42 524 68 q 433 -1 472 18 q 340 -21 394 -21 q 228 2 281 -21 q 138 70 176 25 q 78 181 100 115 q 56 333 56 247 q 78 485 56 419 q 140 597 100 551 q 237 665 181 642 q 361 688 293 688 q 427 679 397 688 q 478 660 457 671 q 521 632 503 647 l 521 778 l 347 778 l 347 819 l 521 819 l 521 931 l 438 951 l 438 972 l 618 972 m 521 590 q 513 599 521 590 q 490 617 504 607 q 456 637 475 628 q 417 646 438 646 q 367 633 390 646 q 328 586 344 621 q 301 490 311 551 q 292 333 292 429 q 301 180 292 239 q 326 87 311 121 q 359 40 340 53 q 396 28 378 28 q 451 45 428 28 q 489 83 474 63 q 521 139 507 108 l 521 590 z "},"é":{"ha":778,"x_min":56,"x_max":729,"o":"m 56 0 m 292 347 q 375 349 339 347 q 436 354 411 351 q 486 361 465 357 q 493 392 489 375 q 498 426 496 407 q 500 465 500 444 q 490 570 500 528 q 466 639 481 613 q 433 676 451 665 q 396 688 414 688 q 359 674 378 688 q 326 624 340 661 q 301 521 311 588 q 292 347 292 454 m 431 -21 q 154 77 253 -21 q 56 347 56 175 q 81 501 56 433 q 150 617 106 569 q 258 690 194 665 q 396 715 321 715 q 535 693 474 715 q 640 633 597 671 q 706 545 683 596 q 729 438 729 494 q 727 403 729 418 q 722 378 725 389 q 715 354 718 364 q 586 333 654 342 q 451 319 528 325 q 292 313 375 313 q 304 169 292 226 q 339 77 317 111 q 392 28 361 43 q 458 14 422 14 q 537 29 500 14 q 601 70 574 44 q 644 128 628 96 q 660 194 660 161 l 694 194 q 676 114 694 153 q 622 45 657 75 q 539 -3 588 15 q 431 -21 490 -21 m 583 986 l 396 778 l 347 778 l 403 986 l 583 986 z "},"ĕ":{"ha":778,"x_min":56,"x_max":729,"o":"m 56 0 m 292 347 q 375 349 339 347 q 436 354 411 351 q 486 361 465 357 q 493 392 489 375 q 498 426 496 407 q 500 465 500 444 q 490 570 500 528 q 466 639 481 613 q 433 676 451 665 q 396 688 414 688 q 359 674 378 688 q 326 624 340 661 q 301 521 311 588 q 292 347 292 454 m 431 -21 q 154 77 253 -21 q 56 347 56 175 q 81 501 56 433 q 150 617 106 569 q 258 690 194 665 q 396 715 321 715 q 535 693 474 715 q 640 633 597 671 q 706 545 683 596 q 729 438 729 494 q 727 403 729 418 q 722 378 725 389 q 715 354 718 364 q 586 333 654 342 q 451 319 528 325 q 292 313 375 313 q 304 169 292 226 q 339 77 317 111 q 392 28 361 43 q 458 14 422 14 q 537 29 500 14 q 601 70 574 44 q 644 128 628 96 q 660 194 660 161 l 694 194 q 676 114 694 153 q 622 45 657 75 q 539 -3 588 15 q 431 -21 490 -21 m 389 826 q 445 834 425 826 q 465 840 465 842 l 465 993 q 482 996 474 994 q 497 999 489 997 q 514 1000 506 1000 q 574 976 550 1000 q 597 917 597 953 q 550 834 597 869 q 389 799 503 799 q 292 808 332 799 q 228 834 253 818 q 192 872 203 850 q 181 917 181 893 q 204 976 181 953 q 264 1000 228 1000 q 280 999 271 1000 q 296 996 289 997 q 313 993 304 994 l 313 840 q 333 834 313 842 q 389 826 353 826 z "},"ě":{"ha":778,"x_min":56,"x_max":729,"o":"m 56 0 m 292 347 q 375 349 339 347 q 436 354 411 351 q 486 361 465 357 q 493 392 489 375 q 498 426 496 407 q 500 465 500 444 q 490 570 500 528 q 466 639 481 613 q 433 676 451 665 q 396 688 414 688 q 359 674 378 688 q 326 624 340 661 q 301 521 311 588 q 292 347 292 454 m 431 -21 q 154 77 253 -21 q 56 347 56 175 q 81 501 56 433 q 150 617 106 569 q 258 690 194 665 q 396 715 321 715 q 535 693 474 715 q 640 633 597 671 q 706 545 683 596 q 729 438 729 494 q 727 403 729 418 q 722 378 725 389 q 715 354 718 364 q 586 333 654 342 q 451 319 528 325 q 292 313 375 313 q 304 169 292 226 q 339 77 317 111 q 392 28 361 43 q 458 14 422 14 q 537 29 500 14 q 601 70 574 44 q 644 128 628 96 q 660 194 660 161 l 694 194 q 676 114 694 153 q 622 45 657 75 q 539 -3 588 15 q 431 -21 490 -21 m 444 786 l 361 786 l 201 994 l 250 994 l 403 883 l 556 994 l 604 994 l 444 786 z "},"ê":{"ha":778,"x_min":56,"x_max":729,"o":"m 56 0 m 292 347 q 375 349 339 347 q 436 354 411 351 q 486 361 465 357 q 493 392 489 375 q 498 426 496 407 q 500 465 500 444 q 490 570 500 528 q 466 639 481 613 q 433 676 451 665 q 396 688 414 688 q 359 674 378 688 q 326 624 340 661 q 301 521 311 588 q 292 347 292 454 m 431 -21 q 154 77 253 -21 q 56 347 56 175 q 81 501 56 433 q 150 617 106 569 q 258 690 194 665 q 396 715 321 715 q 535 693 474 715 q 640 633 597 671 q 706 545 683 596 q 729 438 729 494 q 727 403 729 418 q 722 378 725 389 q 715 354 718 364 q 586 333 654 342 q 451 319 528 325 q 292 313 375 313 q 304 169 292 226 q 339 77 317 111 q 392 28 361 43 q 458 14 422 14 q 537 29 500 14 q 601 70 574 44 q 644 128 628 96 q 660 194 660 161 l 694 194 q 676 114 694 153 q 622 45 657 75 q 539 -3 588 15 q 431 -21 490 -21 m 396 1014 l 597 785 l 549 785 l 396 882 l 243 785 l 194 785 l 396 1014 z "},"ë":{"ha":778,"x_min":56,"x_max":729,"o":"m 56 0 m 292 347 q 375 349 339 347 q 436 354 411 351 q 486 361 465 357 q 493 392 489 375 q 498 426 496 407 q 500 465 500 444 q 490 570 500 528 q 466 639 481 613 q 433 676 451 665 q 396 688 414 688 q 359 674 378 688 q 326 624 340 661 q 301 521 311 588 q 292 347 292 454 m 431 -21 q 154 77 253 -21 q 56 347 56 175 q 81 501 56 433 q 150 617 106 569 q 258 690 194 665 q 396 715 321 715 q 535 693 474 715 q 640 633 597 671 q 706 545 683 596 q 729 438 729 494 q 727 403 729 418 q 722 378 725 389 q 715 354 718 364 q 586 333 654 342 q 451 319 528 325 q 292 313 375 313 q 304 169 292 226 q 339 77 317 111 q 392 28 361 43 q 458 14 422 14 q 537 29 500 14 q 601 70 574 44 q 644 128 628 96 q 660 194 660 161 l 694 194 q 676 114 694 153 q 622 45 657 75 q 539 -3 588 15 q 431 -21 490 -21 m 169 896 q 197 965 169 938 q 267 993 225 993 q 336 965 308 993 q 364 896 364 938 q 336 826 364 854 q 267 799 308 799 q 197 826 225 799 q 169 896 169 854 m 426 896 q 454 965 426 938 q 524 993 482 993 q 593 965 565 993 q 621 896 621 938 q 593 826 621 854 q 524 799 565 799 q 454 826 482 799 q 426 896 426 854 z "},"ė":{"ha":778,"x_min":56,"x_max":729,"o":"m 56 0 m 292 347 q 375 349 339 347 q 436 354 411 351 q 486 361 465 357 q 493 392 489 375 q 498 426 496 407 q 500 465 500 444 q 490 570 500 528 q 466 639 481 613 q 433 676 451 665 q 396 688 414 688 q 359 674 378 688 q 326 624 340 661 q 301 521 311 588 q 292 347 292 454 m 431 -21 q 154 77 253 -21 q 56 347 56 175 q 81 501 56 433 q 150 617 106 569 q 258 690 194 665 q 396 715 321 715 q 535 693 474 715 q 640 633 597 671 q 706 545 683 596 q 729 438 729 494 q 727 403 729 418 q 722 378 725 389 q 715 354 718 364 q 586 333 654 342 q 451 319 528 325 q 292 313 375 313 q 304 169 292 226 q 339 77 317 111 q 392 28 361 43 q 458 14 422 14 q 537 29 500 14 q 601 70 574 44 q 644 128 628 96 q 660 194 660 161 l 694 194 q 676 114 694 153 q 622 45 657 75 q 539 -3 588 15 q 431 -21 490 -21 m 299 896 q 326 965 299 938 q 396 993 354 993 q 465 965 438 993 q 493 896 493 938 q 465 826 493 854 q 396 799 438 799 q 326 826 354 799 q 299 896 299 854 z "},"è":{"ha":778,"x_min":56,"x_max":729,"o":"m 56 0 m 292 347 q 375 349 339 347 q 436 354 411 351 q 486 361 465 357 q 493 392 489 375 q 498 426 496 407 q 500 465 500 444 q 490 570 500 528 q 466 639 481 613 q 433 676 451 665 q 396 688 414 688 q 359 674 378 688 q 326 624 340 661 q 301 521 311 588 q 292 347 292 454 m 431 -21 q 154 77 253 -21 q 56 347 56 175 q 81 501 56 433 q 150 617 106 569 q 258 690 194 665 q 396 715 321 715 q 535 693 474 715 q 640 633 597 671 q 706 545 683 596 q 729 438 729 494 q 727 403 729 418 q 722 378 725 389 q 715 354 718 364 q 586 333 654 342 q 451 319 528 325 q 292 313 375 313 q 304 169 292 226 q 339 77 317 111 q 392 28 361 43 q 458 14 422 14 q 537 29 500 14 q 601 70 574 44 q 644 128 628 96 q 660 194 660 161 l 694 194 q 676 114 694 153 q 622 45 657 75 q 539 -3 588 15 q 431 -21 490 -21 m 375 986 l 431 778 l 382 778 l 194 986 l 375 986 z "},"ē":{"ha":778,"x_min":56,"x_max":729,"o":"m 56 0 m 292 347 q 375 349 339 347 q 436 354 411 351 q 486 361 465 357 q 493 392 489 375 q 498 426 496 407 q 500 465 500 444 q 490 570 500 528 q 466 639 481 613 q 433 676 451 665 q 396 688 414 688 q 359 674 378 688 q 326 624 340 661 q 301 521 311 588 q 292 347 292 454 m 431 -21 q 154 77 253 -21 q 56 347 56 175 q 81 501 56 433 q 150 617 106 569 q 258 690 194 665 q 396 715 321 715 q 535 693 474 715 q 640 633 597 671 q 706 545 683 596 q 729 438 729 494 q 727 403 729 418 q 722 378 725 389 q 715 354 718 364 q 586 333 654 342 q 451 319 528 325 q 292 313 375 313 q 304 169 292 226 q 339 77 317 111 q 392 28 361 43 q 458 14 422 14 q 537 29 500 14 q 601 70 574 44 q 644 128 628 96 q 660 194 660 161 l 694 194 q 676 114 694 153 q 622 45 657 75 q 539 -3 588 15 q 431 -21 490 -21 m 215 835 l 215 897 l 576 897 l 576 835 l 215 835 z "},"ę":{"ha":778,"x_min":56,"x_max":729,"o":"m 285 -160 q 297 -111 285 -133 q 326 -72 308 -89 q 367 -42 344 -54 q 410 -21 389 -29 q 149 82 242 -15 q 56 347 56 179 q 81 501 56 433 q 150 617 106 569 q 258 690 194 665 q 396 715 321 715 q 535 693 474 715 q 640 633 597 671 q 706 545 683 596 q 729 438 729 494 q 727 401 729 417 q 722 375 725 386 q 715 354 718 363 q 586 333 654 342 q 451 319 528 325 q 292 313 375 313 q 304 169 292 226 q 339 77 317 111 q 392 28 361 43 q 458 14 422 14 q 537 29 500 14 q 601 70 574 44 q 644 128 628 96 q 660 194 660 161 l 694 194 q 682 128 694 161 q 646 69 669 96 q 589 21 622 42 q 514 -10 556 0 q 481 -31 500 -18 q 445 -65 463 -44 q 415 -112 428 -85 q 403 -174 403 -139 q 458 -229 403 -229 q 483 -225 471 -229 q 503 -215 494 -221 q 521 -201 513 -210 l 521 -243 q 496 -254 510 -249 q 431 -264 469 -264 q 321 -233 357 -264 q 285 -160 285 -201 m 292 347 q 375 349 339 347 q 436 354 411 351 q 486 361 465 357 q 493 392 489 375 q 498 426 496 407 q 500 465 500 444 q 490 570 500 528 q 466 639 481 613 q 433 676 451 665 q 396 688 414 688 q 359 674 378 688 q 326 624 340 661 q 301 521 311 588 q 292 347 292 454 z "},"ğ":{"ha":840,"x_min":35,"x_max":840,"o":"m 35 0 m 389 701 q 511 688 457 701 q 597 653 565 674 q 626 694 608 676 q 667 723 642 710 q 729 736 693 736 q 808 703 776 736 q 840 618 840 671 q 818 552 840 576 q 764 528 796 528 q 744 528 753 528 q 729 531 736 529 q 715 535 722 532 l 715 701 q 675 690 692 701 q 647 667 658 679 q 625 632 633 651 q 678 560 661 600 q 694 472 694 519 q 676 381 694 422 q 619 308 657 339 q 524 260 582 278 q 389 243 467 243 q 290 253 336 243 q 208 278 244 263 q 181 264 193 271 q 161 249 169 257 q 153 229 153 240 q 174 194 153 208 q 264 181 196 181 l 528 181 q 691 121 632 181 q 750 -49 750 61 q 728 -147 750 -101 q 663 -226 707 -192 q 548 -279 618 -260 q 382 -299 478 -299 q 217 -285 283 -299 q 110 -249 150 -271 q 52 -199 69 -226 q 35 -146 35 -172 q 63 -70 35 -99 q 139 -42 92 -42 q 162 -43 151 -42 q 179 -46 172 -44 q 194 -49 188 -47 l 194 -243 q 247 -257 219 -251 q 302 -267 271 -262 q 368 -271 333 -271 q 522 -256 460 -271 q 622 -219 583 -242 q 678 -166 661 -196 q 694 -104 694 -136 q 686 -69 694 -86 q 658 -40 678 -53 q 607 -21 639 -28 q 528 -14 575 -14 l 264 -14 q 101 31 154 -14 q 49 139 49 76 q 69 209 49 181 q 114 257 89 238 q 181 292 143 278 q 106 369 128 324 q 83 472 83 414 q 102 564 83 522 q 158 636 121 606 q 253 684 196 667 q 389 701 311 701 m 389 271 q 428 280 410 271 q 458 312 446 289 q 478 374 471 335 q 486 472 486 413 q 478 571 486 532 q 458 633 471 610 q 428 665 446 656 q 389 674 410 674 q 350 665 368 674 q 319 633 332 656 q 299 571 307 610 q 292 472 292 532 q 299 374 292 413 q 319 312 307 335 q 350 280 332 289 q 389 271 368 271 m 389 819 q 445 827 425 819 q 465 833 465 835 l 465 986 q 482 989 474 988 q 497 992 489 990 q 514 993 506 993 q 574 969 550 993 q 597 910 597 946 q 550 827 597 863 q 389 792 503 792 q 292 801 332 792 q 228 827 253 811 q 192 865 203 843 q 181 910 181 886 q 204 969 181 946 q 264 993 228 993 q 280 992 271 993 q 296 989 289 990 q 313 986 304 988 l 313 833 q 333 827 313 835 q 389 819 353 819 z "},"ĝ":{"ha":840,"x_min":35,"x_max":840,"o":"m 35 0 m 389 701 q 511 688 457 701 q 597 653 565 674 q 626 694 608 676 q 667 723 642 710 q 729 736 693 736 q 808 703 776 736 q 840 618 840 671 q 818 552 840 576 q 764 528 796 528 q 744 528 753 528 q 729 531 736 529 q 715 535 722 532 l 715 701 q 675 690 692 701 q 647 667 658 679 q 625 632 633 651 q 678 560 661 600 q 694 472 694 519 q 676 381 694 422 q 619 308 657 339 q 524 260 582 278 q 389 243 467 243 q 290 253 336 243 q 208 278 244 263 q 181 264 193 271 q 161 249 169 257 q 153 229 153 240 q 174 194 153 208 q 264 181 196 181 l 528 181 q 691 121 632 181 q 750 -49 750 61 q 728 -147 750 -101 q 663 -226 707 -192 q 548 -279 618 -260 q 382 -299 478 -299 q 217 -285 283 -299 q 110 -249 150 -271 q 52 -199 69 -226 q 35 -146 35 -172 q 63 -70 35 -99 q 139 -42 92 -42 q 162 -43 151 -42 q 179 -46 172 -44 q 194 -49 188 -47 l 194 -243 q 247 -257 219 -251 q 302 -267 271 -262 q 368 -271 333 -271 q 522 -256 460 -271 q 622 -219 583 -242 q 678 -166 661 -196 q 694 -104 694 -136 q 686 -69 694 -86 q 658 -40 678 -53 q 607 -21 639 -28 q 528 -14 575 -14 l 264 -14 q 101 31 154 -14 q 49 139 49 76 q 69 209 49 181 q 114 257 89 238 q 181 292 143 278 q 106 369 128 324 q 83 472 83 414 q 102 564 83 522 q 158 636 121 606 q 253 684 196 667 q 389 701 311 701 m 389 271 q 428 280 410 271 q 458 312 446 289 q 478 374 471 335 q 486 472 486 413 q 478 571 486 532 q 458 633 471 610 q 428 665 446 656 q 389 674 410 674 q 350 665 368 674 q 319 633 332 656 q 299 571 307 610 q 292 472 292 532 q 299 374 292 413 q 319 312 307 335 q 350 280 332 289 q 389 271 368 271 m 403 1007 l 604 778 l 556 778 l 403 875 l 250 778 l 201 778 l 403 1007 z "},"ģ":{"ha":840,"x_min":35,"x_max":840,"o":"m 35 0 m 389 701 q 511 688 457 701 q 597 653 565 674 q 626 694 608 676 q 667 723 642 710 q 729 736 693 736 q 808 703 776 736 q 840 618 840 671 q 818 552 840 576 q 764 528 796 528 q 744 528 753 528 q 729 531 736 529 q 715 535 722 532 l 715 701 q 675 690 692 701 q 647 667 658 679 q 625 632 633 651 q 678 560 661 600 q 694 472 694 519 q 676 381 694 422 q 619 308 657 339 q 524 260 582 278 q 389 243 467 243 q 290 253 336 243 q 208 278 244 263 q 181 264 193 271 q 161 249 169 257 q 153 229 153 240 q 174 194 153 208 q 264 181 196 181 l 528 181 q 691 121 632 181 q 750 -49 750 61 q 728 -147 750 -101 q 663 -226 707 -192 q 548 -279 618 -260 q 382 -299 478 -299 q 217 -285 283 -299 q 110 -249 150 -271 q 52 -199 69 -226 q 35 -146 35 -172 q 63 -70 35 -99 q 139 -42 92 -42 q 162 -43 151 -42 q 179 -46 172 -44 q 194 -49 188 -47 l 194 -243 q 247 -257 219 -251 q 302 -267 271 -262 q 368 -271 333 -271 q 522 -256 460 -271 q 622 -219 583 -242 q 678 -166 661 -196 q 694 -104 694 -136 q 686 -69 694 -86 q 658 -40 678 -53 q 607 -21 639 -28 q 528 -14 575 -14 l 264 -14 q 101 31 154 -14 q 49 139 49 76 q 69 209 49 181 q 114 257 89 238 q 181 292 143 278 q 106 369 128 324 q 83 472 83 414 q 102 564 83 522 q 158 636 121 606 q 253 684 196 667 q 389 701 311 701 m 389 271 q 428 280 410 271 q 458 312 446 289 q 478 374 471 335 q 486 472 486 413 q 478 571 486 532 q 458 633 471 610 q 428 665 446 656 q 389 674 410 674 q 350 665 368 674 q 319 633 332 656 q 299 571 307 610 q 292 472 292 532 q 299 374 292 413 q 319 312 307 335 q 350 280 332 289 q 389 271 368 271 m 458 1111 q 407 1081 431 1100 q 368 1035 388 1064 q 340 965 349 1007 q 356 976 347 971 q 396 986 372 986 q 465 958 438 986 q 493 889 493 931 q 465 819 493 847 q 396 792 438 792 q 320 822 349 792 q 292 910 292 851 q 316 1022 292 978 q 368 1092 340 1065 q 444 1139 403 1122 l 458 1111 z "},"ġ":{"ha":840,"x_min":35,"x_max":840,"o":"m 35 0 m 389 701 q 511 688 457 701 q 597 653 565 674 q 626 694 608 676 q 667 723 642 710 q 729 736 693 736 q 808 703 776 736 q 840 618 840 671 q 818 552 840 576 q 764 528 796 528 q 744 528 753 528 q 729 531 736 529 q 715 535 722 532 l 715 701 q 675 690 692 701 q 647 667 658 679 q 625 632 633 651 q 678 560 661 600 q 694 472 694 519 q 676 381 694 422 q 619 308 657 339 q 524 260 582 278 q 389 243 467 243 q 290 253 336 243 q 208 278 244 263 q 181 264 193 271 q 161 249 169 257 q 153 229 153 240 q 174 194 153 208 q 264 181 196 181 l 528 181 q 691 121 632 181 q 750 -49 750 61 q 728 -147 750 -101 q 663 -226 707 -192 q 548 -279 618 -260 q 382 -299 478 -299 q 217 -285 283 -299 q 110 -249 150 -271 q 52 -199 69 -226 q 35 -146 35 -172 q 63 -70 35 -99 q 139 -42 92 -42 q 162 -43 151 -42 q 179 -46 172 -44 q 194 -49 188 -47 l 194 -243 q 247 -257 219 -251 q 302 -267 271 -262 q 368 -271 333 -271 q 522 -256 460 -271 q 622 -219 583 -242 q 678 -166 661 -196 q 694 -104 694 -136 q 686 -69 694 -86 q 658 -40 678 -53 q 607 -21 639 -28 q 528 -14 575 -14 l 264 -14 q 101 31 154 -14 q 49 139 49 76 q 69 209 49 181 q 114 257 89 238 q 181 292 143 278 q 106 369 128 324 q 83 472 83 414 q 102 564 83 522 q 158 636 121 606 q 253 684 196 667 q 389 701 311 701 m 389 271 q 428 280 410 271 q 458 312 446 289 q 478 374 471 335 q 486 472 486 413 q 478 571 486 532 q 458 633 471 610 q 428 665 446 656 q 389 674 410 674 q 350 665 368 674 q 319 633 332 656 q 299 571 307 610 q 292 472 292 532 q 299 374 292 413 q 319 312 307 335 q 350 280 332 289 q 389 271 368 271 m 292 889 q 319 958 292 931 q 389 986 347 986 q 458 958 431 986 q 486 889 486 931 q 458 819 486 847 q 389 792 431 792 q 319 819 347 792 q 292 889 292 847 z "},"ħ":{"ha":931,"x_min":56,"x_max":903,"o":"m 368 757 l 368 583 q 411 628 386 608 q 467 659 433 644 q 549 674 501 674 q 658 654 608 674 q 744 603 708 635 q 799 530 779 571 q 819 444 819 489 l 819 42 l 903 21 l 903 0 l 722 0 q 597 125 597 0 l 597 444 q 588 526 597 492 q 563 582 578 560 q 530 615 549 604 q 493 625 511 625 q 438 608 461 625 q 399 569 414 590 q 368 514 381 544 l 368 42 l 451 21 l 451 0 l 63 0 l 63 21 l 146 42 l 146 757 l 56 757 l 56 792 l 146 792 l 146 931 l 63 951 l 63 972 l 243 972 q 368 847 368 972 l 368 792 l 542 792 l 542 757 l 368 757 z "},"ĥ":{"ha":924,"x_min":28,"x_max":896,"o":"m 28 0 m 590 486 q 581 567 590 533 q 556 624 571 601 q 523 656 542 646 q 486 667 504 667 q 431 649 454 667 q 392 611 407 632 q 361 556 374 586 l 361 42 l 444 21 l 444 0 l 56 0 l 56 21 l 139 42 l 139 931 l 56 951 l 56 972 l 236 972 q 361 847 361 972 l 361 625 q 404 669 379 650 q 460 701 426 686 q 542 715 494 715 q 651 696 601 715 q 737 644 701 676 q 792 572 772 613 q 813 486 813 531 l 813 42 l 896 21 l 896 0 l 715 0 q 590 125 590 0 l 590 486 m 229 1257 l 431 1028 l 382 1028 l 229 1125 l 76 1028 l 28 1028 l 229 1257 z "},"ı":{"ha":472,"x_min":56,"x_max":444,"o":"m 236 694 q 361 569 361 694 l 361 42 l 444 21 l 444 0 l 56 0 l 56 21 l 139 42 l 139 653 l 56 674 l 56 694 l 236 694 z "},"í":{"ha":472,"x_min":56,"x_max":444,"o":"m 56 0 m 236 694 q 361 569 361 694 l 361 42 l 444 21 l 444 0 l 56 0 l 56 21 l 139 42 l 139 653 l 56 674 l 56 694 l 236 694 m 424 972 l 236 764 l 188 764 l 243 972 l 424 972 z "},"ĭ":{"ha":472,"x_min":28,"x_max":444,"o":"m 28 0 m 236 694 q 361 569 361 694 l 361 42 l 444 21 l 444 0 l 56 0 l 56 21 l 139 42 l 139 653 l 56 674 l 56 694 l 236 694 m 236 813 q 292 820 272 813 q 313 826 313 828 l 313 979 q 329 982 321 981 q 344 985 336 983 q 361 986 353 986 q 421 963 397 986 q 444 903 444 939 q 397 820 444 856 q 236 785 350 785 q 140 794 179 785 q 75 820 100 804 q 39 858 50 836 q 28 903 28 879 q 51 963 28 939 q 111 986 75 986 q 127 985 118 986 q 143 982 136 983 q 160 979 151 981 l 160 826 q 180 820 160 828 q 236 813 200 813 z "},"î":{"ha":472,"x_min":35,"x_max":444,"o":"m 35 0 m 236 694 q 361 569 361 694 l 361 42 l 444 21 l 444 0 l 56 0 l 56 21 l 139 42 l 139 653 l 56 674 l 56 694 l 236 694 m 236 1007 l 438 778 l 389 778 l 236 875 l 83 778 l 35 778 l 236 1007 z "},"ï":{"ha":472,"x_min":-1,"x_max":450,"o":"m 0 0 m 236 694 q 361 569 361 694 l 361 42 l 444 21 l 444 0 l 56 0 l 56 21 l 139 42 l 139 653 l 56 674 l 56 694 l 236 694 m -1 889 q 26 958 -1 931 q 96 986 54 986 q 165 958 138 986 q 193 889 193 931 q 165 819 193 847 q 96 792 138 792 q 26 819 54 792 q -1 889 -1 847 m 256 889 q 283 958 256 931 q 353 986 311 986 q 422 958 394 986 q 450 889 450 931 q 422 819 450 847 q 353 792 394 792 q 283 819 311 792 q 256 889 256 847 z "},"ì":{"ha":472,"x_min":35,"x_max":444,"o":"m 35 0 m 236 694 q 361 569 361 694 l 361 42 l 444 21 l 444 0 l 56 0 l 56 21 l 139 42 l 139 653 l 56 674 l 56 694 l 236 694 m 215 972 l 271 764 l 222 764 l 35 972 l 215 972 z "},"ī":{"ha":472,"x_min":56,"x_max":444,"o":"m 56 0 m 236 694 q 361 569 361 694 l 361 42 l 444 21 l 444 0 l 56 0 l 56 21 l 139 42 l 139 653 l 56 674 l 56 694 l 236 694 m 56 835 l 56 897 l 417 897 l 417 835 l 56 835 z "},"į":{"ha":472,"x_min":56,"x_max":444,"o":"m 236 694 q 361 569 361 694 l 361 42 l 444 21 l 444 0 l 361 0 q 294 -43 324 -18 q 249 -97 269 -65 q 229 -174 229 -129 q 285 -229 229 -229 q 309 -225 297 -229 q 329 -215 321 -221 q 347 -201 339 -210 l 347 -243 q 322 -254 336 -249 q 257 -264 296 -264 q 147 -233 183 -264 q 111 -160 111 -201 q 124 -109 111 -132 q 156 -69 136 -86 q 198 -39 175 -51 q 242 -18 221 -26 q 278 -6 263 -10 q 297 0 293 -1 l 56 0 l 56 21 l 139 42 l 139 653 l 56 674 l 56 694 l 236 694 m 132 868 q 142 913 132 892 q 167 951 151 935 q 205 976 183 967 q 250 986 226 986 q 295 976 274 986 q 333 951 317 967 q 358 913 349 935 q 368 868 368 892 q 358 823 368 844 q 333 785 349 801 q 295 760 317 769 q 250 750 274 750 q 205 760 226 750 q 167 785 183 769 q 142 823 151 801 q 132 868 132 844 z "},"ĩ":{"ha":476,"x_min":49,"x_max":449,"o":"m 49 0 m 240 694 q 365 569 365 694 l 365 42 l 449 21 l 449 0 l 60 0 l 60 21 l 143 42 l 143 653 l 60 674 l 60 694 l 240 694 m 306 800 q 252 811 274 800 q 212 835 231 822 q 176 858 193 847 q 139 869 160 869 q 94 851 113 869 q 76 807 76 833 l 49 807 q 82 928 49 890 q 174 967 115 967 q 226 956 204 967 q 267 932 249 944 q 303 908 286 919 q 340 897 319 897 q 385 915 367 897 q 403 960 403 933 l 431 960 q 397 838 431 876 q 306 800 364 800 z "},"ĳ":{"ha":889,"x_min":56,"x_max":792,"o":"m 438 -264 q 446 -268 440 -267 q 465 -271 457 -271 q 501 -260 483 -271 q 532 -224 518 -250 q 554 -154 546 -199 q 563 -42 563 -110 l 563 660 l 361 660 l 361 42 l 444 21 l 444 0 l 56 0 l 56 21 l 139 42 l 139 653 l 56 674 l 56 694 l 660 694 q 785 569 785 694 l 785 -42 q 765 -143 785 -96 q 705 -225 744 -190 q 608 -279 665 -260 q 479 -299 551 -299 q 324 -262 369 -299 q 278 -167 278 -225 q 306 -91 278 -119 q 382 -62 335 -62 q 402 -64 393 -62 q 419 -67 411 -65 q 438 -69 428 -68 l 438 -264 m 556 868 q 565 913 556 892 q 591 951 575 935 q 628 976 607 967 q 674 986 650 986 q 719 976 697 986 q 756 951 740 967 q 782 913 772 935 q 792 868 792 892 q 782 823 792 844 q 756 785 772 801 q 719 760 740 769 q 674 750 697 750 q 628 760 650 750 q 591 785 607 769 q 565 823 575 801 q 556 868 556 844 m 132 868 q 142 913 132 892 q 167 951 151 935 q 205 976 183 967 q 250 986 226 986 q 295 976 274 986 q 333 951 317 967 q 358 913 349 935 q 368 868 368 892 q 358 823 368 844 q 333 785 349 801 q 295 760 317 769 q 250 750 274 750 q 205 760 226 750 q 167 785 183 769 q 142 823 151 801 q 132 868 132 844 z "},"ĵ":{"ha":472,"x_min":-153,"x_max":417,"o":"m 7 -264 q 15 -268 10 -267 q 35 -271 26 -271 q 70 -260 53 -271 q 101 -224 88 -250 q 124 -154 115 -199 q 132 -42 132 -110 l 132 653 l 49 674 l 49 694 l 229 694 q 354 569 354 694 l 354 -42 q 334 -143 354 -96 q 274 -225 314 -190 q 178 -279 235 -260 q 49 -299 121 -299 q -107 -262 -61 -299 q -153 -167 -153 -225 q -124 -91 -153 -119 q -49 -62 -96 -62 q -28 -64 -37 -62 q -11 -67 -19 -65 q 7 -69 -3 -68 l 7 -264 m 215 1014 l 417 785 l 368 785 l 215 882 l 63 785 l 14 785 l 215 1014 z "},"ĺ":{"ha":472,"x_min":56,"x_max":444,"o":"m 56 0 m 236 972 q 361 847 361 972 l 361 42 l 444 21 l 444 0 l 56 0 l 56 21 l 139 42 l 139 931 l 56 951 l 56 972 l 236 972 m 426 1250 l 239 1042 l 190 1042 l 246 1250 l 426 1250 z "},"ľ":{"ha":674,"x_min":56,"x_max":639,"o":"m 56 0 m 236 972 q 361 847 361 972 l 361 42 l 444 21 l 444 0 l 56 0 l 56 21 l 139 42 l 139 931 l 56 951 l 56 972 l 236 972 m 472 653 q 524 683 500 664 q 563 728 543 700 q 590 799 582 757 q 575 788 583 793 q 535 778 558 778 q 465 806 493 778 q 438 875 438 833 q 465 944 438 917 q 535 972 493 972 q 610 942 582 972 q 639 854 639 913 q 615 742 639 786 q 563 672 590 699 q 486 625 528 642 l 472 653 z "},"ļ":{"ha":472,"x_min":56,"x_max":444,"o":"m 56 0 m 236 972 q 361 847 361 972 l 361 42 l 444 21 l 444 0 l 56 0 l 56 21 l 139 42 l 139 931 l 56 951 l 56 972 l 236 972 m 192 -394 q 243 -364 219 -383 q 282 -319 263 -347 q 310 -249 301 -290 q 294 -260 303 -254 q 254 -269 278 -269 q 185 -242 213 -269 q 157 -172 157 -214 q 185 -103 157 -131 q 254 -75 213 -75 q 330 -105 301 -75 q 358 -193 358 -135 q 334 -305 358 -261 q 282 -375 310 -349 q 206 -422 247 -406 l 192 -394 z "},"ŀ":{"ha":674,"x_min":56,"x_max":632,"o":"m 56 0 m 236 972 q 361 847 361 972 l 361 42 l 444 21 l 444 0 l 56 0 l 56 21 l 139 42 l 139 931 l 56 951 l 56 972 l 236 972 m 438 488 q 465 557 438 529 q 535 585 493 585 q 604 557 576 585 q 632 488 632 529 q 604 418 632 446 q 535 390 576 390 q 465 418 493 390 q 438 488 438 446 z "},"ł":{"ha":507,"x_min":28,"x_max":479,"o":"m 243 972 q 368 847 368 972 l 368 626 l 479 694 l 479 646 l 368 578 l 368 42 l 451 21 l 451 0 l 63 0 l 63 21 l 146 42 l 146 440 l 28 368 l 28 417 l 146 489 l 146 931 l 63 951 l 63 972 l 243 972 z "},"ń":{"ha":924,"x_min":56,"x_max":896,"o":"m 56 0 m 590 486 q 581 567 590 533 q 556 624 571 601 q 523 656 542 646 q 486 667 504 667 q 431 649 454 667 q 392 611 407 632 q 361 556 374 586 l 361 42 l 444 21 l 444 0 l 56 0 l 56 21 l 139 42 l 139 653 l 56 674 l 56 694 l 181 694 q 260 678 229 694 q 310 642 292 661 q 340 590 331 618 q 386 653 358 625 q 448 696 410 676 q 542 715 486 715 q 651 696 601 715 q 737 644 701 676 q 792 572 772 613 q 813 486 813 531 l 813 42 l 896 21 l 896 0 l 715 0 q 590 125 590 0 l 590 486 m 663 986 l 475 778 l 426 778 l 482 986 l 663 986 z "},"ň":{"ha":924,"x_min":56,"x_max":896,"o":"m 56 0 m 590 486 q 581 567 590 533 q 556 624 571 601 q 523 656 542 646 q 486 667 504 667 q 431 649 454 667 q 392 611 407 632 q 361 556 374 586 l 361 42 l 444 21 l 444 0 l 56 0 l 56 21 l 139 42 l 139 653 l 56 674 l 56 694 l 181 694 q 260 678 229 694 q 310 642 292 661 q 340 590 331 618 q 386 653 358 625 q 448 696 410 676 q 542 715 486 715 q 651 696 601 715 q 737 644 701 676 q 792 572 772 613 q 813 486 813 531 l 813 42 l 896 21 l 896 0 l 715 0 q 590 125 590 0 l 590 486 m 496 786 l 413 786 l 253 994 l 301 994 l 454 883 l 607 994 l 656 994 l 496 786 z "},"ņ":{"ha":924,"x_min":56,"x_max":896,"o":"m 56 0 m 590 486 q 581 567 590 533 q 556 624 571 601 q 523 656 542 646 q 486 667 504 667 q 431 649 454 667 q 392 611 407 632 q 361 556 374 586 l 361 42 l 444 21 l 444 0 l 56 0 l 56 21 l 139 42 l 139 653 l 56 674 l 56 694 l 181 694 q 260 678 229 694 q 310 642 292 661 q 340 590 331 618 q 386 653 358 625 q 448 696 410 676 q 542 715 486 715 q 651 696 601 715 q 737 644 701 676 q 792 572 772 613 q 813 486 813 531 l 813 42 l 896 21 l 896 0 l 715 0 q 590 125 590 0 l 590 486 m 438 -381 q 489 -350 465 -369 q 528 -305 508 -333 q 556 -235 547 -276 q 540 -246 549 -240 q 500 -256 524 -256 q 431 -228 458 -256 q 403 -158 403 -200 q 431 -89 403 -117 q 500 -61 458 -61 q 576 -91 547 -61 q 604 -179 604 -121 q 580 -291 604 -247 q 528 -361 556 -335 q 451 -408 493 -392 l 438 -381 z "},"ñ":{"ha":924,"x_min":56,"x_max":896,"o":"m 56 0 m 590 486 q 581 567 590 533 q 556 624 571 601 q 523 656 542 646 q 486 667 504 667 q 431 649 454 667 q 392 611 407 632 q 361 556 374 586 l 361 42 l 444 21 l 444 0 l 56 0 l 56 21 l 139 42 l 139 653 l 56 674 l 56 694 l 181 694 q 260 678 229 694 q 310 642 292 661 q 340 590 331 618 q 386 653 358 625 q 448 696 410 676 q 542 715 486 715 q 651 696 601 715 q 737 644 701 676 q 792 572 772 613 q 813 486 813 531 l 813 42 l 896 21 l 896 0 l 715 0 q 590 125 590 0 l 590 486 m 542 800 q 488 811 510 800 q 448 835 467 822 q 413 858 429 847 q 375 869 396 869 q 331 851 349 869 q 313 807 313 833 l 285 807 q 318 928 285 890 q 410 967 351 967 q 463 956 440 967 q 503 932 485 944 q 539 908 522 919 q 576 897 556 897 q 621 915 603 897 q 639 960 639 933 l 667 960 q 633 838 667 876 q 542 800 600 800 z "},"ó":{"ha":833,"x_min":50,"x_max":786,"o":"m 50 0 m 418 7 q 465 22 442 7 q 508 76 489 38 q 538 180 526 114 q 550 347 550 246 q 538 515 550 449 q 508 619 526 581 q 465 672 489 657 q 418 688 442 688 q 371 672 394 688 q 328 619 347 657 q 298 515 310 581 q 286 347 286 449 q 298 180 286 246 q 328 76 310 114 q 371 22 347 38 q 418 7 394 7 m 418 715 q 572 690 504 715 q 688 617 640 665 q 761 501 736 569 q 786 347 786 433 q 761 193 786 261 q 688 77 736 125 q 572 4 640 29 q 418 -21 504 -21 q 264 4 332 -21 q 148 77 196 29 q 75 193 100 125 q 50 347 50 261 q 75 501 50 433 q 148 617 100 569 q 264 690 196 665 q 418 715 332 715 m 604 986 l 417 778 l 368 778 l 424 986 l 604 986 z "},"ŏ":{"ha":847,"x_min":56,"x_max":792,"o":"m 56 0 m 424 7 q 471 22 447 7 q 513 76 494 38 q 544 180 532 114 q 556 347 556 246 q 544 515 556 449 q 513 619 532 581 q 471 672 494 657 q 424 688 447 688 q 376 672 400 688 q 334 619 353 657 q 303 515 315 581 q 292 347 292 449 q 303 180 292 246 q 334 76 315 114 q 376 22 353 38 q 424 7 400 7 m 424 715 q 578 690 510 715 q 694 617 646 665 q 767 501 742 569 q 792 347 792 433 q 767 193 792 261 q 694 77 742 125 q 578 4 646 29 q 424 -21 510 -21 q 269 4 338 -21 q 153 77 201 29 q 81 193 106 125 q 56 347 56 261 q 81 501 56 433 q 153 617 106 569 q 269 690 201 665 q 424 715 338 715 m 424 826 q 480 834 460 826 q 500 840 500 842 l 500 993 q 517 996 508 994 q 532 999 524 997 q 549 1000 540 1000 q 608 976 585 1000 q 632 917 632 953 q 585 834 632 869 q 424 799 538 799 q 327 808 367 799 q 263 834 288 818 q 226 872 238 850 q 215 917 215 893 q 239 976 215 953 q 299 1000 263 1000 q 315 999 306 1000 q 331 996 324 997 q 347 993 339 994 l 347 840 q 367 834 347 842 q 424 826 388 826 z "},"ô":{"ha":847,"x_min":56,"x_max":792,"o":"m 56 0 m 424 7 q 471 22 447 7 q 513 76 494 38 q 544 180 532 114 q 556 347 556 246 q 544 515 556 449 q 513 619 532 581 q 471 672 494 657 q 424 688 447 688 q 376 672 400 688 q 334 619 353 657 q 303 515 315 581 q 292 347 292 449 q 303 180 292 246 q 334 76 315 114 q 376 22 353 38 q 424 7 400 7 m 424 715 q 578 690 510 715 q 694 617 646 665 q 767 501 742 569 q 792 347 792 433 q 767 193 792 261 q 694 77 742 125 q 578 4 646 29 q 424 -21 510 -21 q 269 4 338 -21 q 153 77 201 29 q 81 193 106 125 q 56 347 56 261 q 81 501 56 433 q 153 617 106 569 q 269 690 201 665 q 424 715 338 715 m 424 1014 l 625 785 l 576 785 l 424 882 l 271 785 l 222 785 l 424 1014 z "},"ö":{"ha":847,"x_min":56,"x_max":792,"o":"m 56 0 m 424 7 q 471 22 447 7 q 513 76 494 38 q 544 180 532 114 q 556 347 556 246 q 544 515 556 449 q 513 619 532 581 q 471 672 494 657 q 424 688 447 688 q 376 672 400 688 q 334 619 353 657 q 303 515 315 581 q 292 347 292 449 q 303 180 292 246 q 334 76 315 114 q 376 22 353 38 q 424 7 400 7 m 424 715 q 578 690 510 715 q 694 617 646 665 q 767 501 742 569 q 792 347 792 433 q 767 193 792 261 q 694 77 742 125 q 578 4 646 29 q 424 -21 510 -21 q 269 4 338 -21 q 153 77 201 29 q 81 193 106 125 q 56 347 56 261 q 81 501 56 433 q 153 617 106 569 q 269 690 201 665 q 424 715 338 715 m 197 896 q 225 965 197 938 q 294 993 253 993 q 364 965 336 993 q 392 896 392 938 q 364 826 392 854 q 294 799 336 799 q 225 826 253 799 q 197 896 197 854 m 454 896 q 482 965 454 938 q 551 993 510 993 q 621 965 593 993 q 649 896 649 938 q 621 826 649 854 q 551 799 593 799 q 482 826 510 799 q 454 896 454 854 z "},"ò":{"ha":847,"x_min":56,"x_max":792,"o":"m 56 0 m 424 7 q 471 22 447 7 q 513 76 494 38 q 544 180 532 114 q 556 347 556 246 q 544 515 556 449 q 513 619 532 581 q 471 672 494 657 q 424 688 447 688 q 376 672 400 688 q 334 619 353 657 q 303 515 315 581 q 292 347 292 449 q 303 180 292 246 q 334 76 315 114 q 376 22 353 38 q 424 7 400 7 m 424 715 q 578 690 510 715 q 694 617 646 665 q 767 501 742 569 q 792 347 792 433 q 767 193 792 261 q 694 77 742 125 q 578 4 646 29 q 424 -21 510 -21 q 269 4 338 -21 q 153 77 201 29 q 81 193 106 125 q 56 347 56 261 q 81 501 56 433 q 153 617 106 569 q 269 690 201 665 q 424 715 338 715 m 403 986 l 458 778 l 410 778 l 222 986 l 403 986 z "},"ő":{"ha":847,"x_min":56,"x_max":792,"o":"m 56 0 m 424 7 q 471 22 447 7 q 513 76 494 38 q 544 180 532 114 q 556 347 556 246 q 544 515 556 449 q 513 619 532 581 q 471 672 494 657 q 424 688 447 688 q 376 672 400 688 q 334 619 353 657 q 303 515 315 581 q 292 347 292 449 q 303 180 292 246 q 334 76 315 114 q 376 22 353 38 q 424 7 400 7 m 424 715 q 578 690 510 715 q 694 617 646 665 q 767 501 742 569 q 792 347 792 433 q 767 193 792 261 q 694 77 742 125 q 578 4 646 29 q 424 -21 510 -21 q 269 4 338 -21 q 153 77 201 29 q 81 193 106 125 q 56 347 56 261 q 81 501 56 433 q 153 617 106 569 q 269 690 201 665 q 424 715 338 715 m 489 986 l 336 778 l 288 778 l 350 986 l 489 986 m 669 986 l 517 778 l 468 778 l 531 986 l 669 986 z "},"ō":{"ha":847,"x_min":56,"x_max":792,"o":"m 56 0 m 424 7 q 471 22 447 7 q 513 76 494 38 q 544 180 532 114 q 556 347 556 246 q 544 515 556 449 q 513 619 532 581 q 471 672 494 657 q 424 688 447 688 q 376 672 400 688 q 334 619 353 657 q 303 515 315 581 q 292 347 292 449 q 303 180 292 246 q 334 76 315 114 q 376 22 353 38 q 424 7 400 7 m 424 715 q 578 690 510 715 q 694 617 646 665 q 767 501 742 569 q 792 347 792 433 q 767 193 792 261 q 694 77 742 125 q 578 4 646 29 q 424 -21 510 -21 q 269 4 338 -21 q 153 77 201 29 q 81 193 106 125 q 56 347 56 261 q 81 501 56 433 q 153 617 106 569 q 269 690 201 665 q 424 715 338 715 m 243 835 l 243 897 l 604 897 l 604 835 l 243 835 z "},"ø":{"ha":847,"x_min":56,"x_max":792,"o":"m 736 694 l 679 625 q 761 508 731 578 q 792 347 792 438 q 767 193 792 261 q 694 77 742 125 q 578 4 646 29 q 424 -21 510 -21 q 197 44 286 -21 l 160 0 l 111 0 l 168 68 q 86 187 117 117 q 56 347 56 257 q 81 501 56 433 q 153 617 106 569 q 269 690 201 665 q 424 715 338 715 q 549 698 492 715 q 650 649 606 681 l 688 694 l 736 694 m 424 7 q 471 22 447 7 q 513 76 494 38 q 544 180 532 114 q 556 347 556 246 q 554 413 556 382 q 550 469 553 443 l 304 174 q 326 93 313 125 q 355 42 339 61 q 388 15 371 22 q 424 7 406 7 m 292 347 q 293 281 292 311 q 297 224 294 251 l 543 519 q 521 600 535 568 q 492 651 507 632 q 458 679 476 671 q 424 688 440 688 q 376 672 400 688 q 334 619 353 657 q 303 515 315 581 q 292 347 292 449 z "},"ǿ":{"ha":847,"x_min":56,"x_max":792,"o":"m 736 694 l 679 625 q 761 508 731 578 q 792 347 792 438 q 767 193 792 261 q 694 77 742 125 q 578 4 646 29 q 424 -21 510 -21 q 197 44 286 -21 l 160 0 l 111 0 l 168 68 q 86 187 117 117 q 56 347 56 257 q 81 501 56 433 q 153 617 106 569 q 269 690 201 665 q 424 715 338 715 q 549 698 492 715 q 650 649 606 681 l 688 694 l 736 694 m 424 7 q 471 22 447 7 q 513 76 494 38 q 544 180 532 114 q 556 347 556 246 q 554 413 556 382 q 550 469 553 443 l 304 174 q 326 93 313 125 q 355 42 339 61 q 388 15 371 22 q 424 7 406 7 m 292 347 q 293 281 292 311 q 297 224 294 251 l 543 519 q 521 600 535 568 q 492 651 507 632 q 458 679 476 671 q 424 688 440 688 q 376 672 400 688 q 334 619 353 657 q 303 515 315 581 q 292 347 292 449 m 597 986 l 410 778 l 361 778 l 417 986 l 597 986 z "},"õ":{"ha":847,"x_min":56,"x_max":792,"o":"m 56 0 m 424 7 q 471 22 447 7 q 513 76 494 38 q 544 180 532 114 q 556 347 556 246 q 544 515 556 449 q 513 619 532 581 q 471 672 494 657 q 424 688 447 688 q 376 672 400 688 q 334 619 353 657 q 303 515 315 581 q 292 347 292 449 q 303 180 292 246 q 334 76 315 114 q 376 22 353 38 q 424 7 400 7 m 424 715 q 578 690 510 715 q 694 617 646 665 q 767 501 742 569 q 792 347 792 433 q 767 193 792 261 q 694 77 742 125 q 578 4 646 29 q 424 -21 510 -21 q 269 4 338 -21 q 153 77 201 29 q 81 193 106 125 q 56 347 56 261 q 81 501 56 433 q 153 617 106 569 q 269 690 201 665 q 424 715 338 715 m 489 800 q 435 811 457 800 q 395 835 414 822 q 360 858 376 847 q 322 869 343 869 q 278 851 296 869 q 260 807 260 833 l 232 807 q 265 928 232 890 q 357 967 299 967 q 410 956 388 967 q 451 932 432 944 q 486 908 469 919 q 524 897 503 897 q 568 915 550 897 q 586 960 586 933 l 614 960 q 581 838 614 876 q 489 800 547 800 z "},"ŕ":{"ha":701,"x_min":56,"x_max":694,"o":"m 56 0 m 535 667 q 460 649 493 667 q 406 611 428 632 q 361 556 381 586 l 361 42 l 444 21 l 444 0 l 56 0 l 56 21 l 139 42 l 139 653 l 56 674 l 56 694 l 181 694 q 260 678 229 694 q 310 642 292 661 q 340 590 331 618 q 392 646 361 621 q 456 684 418 667 q 547 701 494 701 q 658 667 622 701 q 694 569 694 632 q 666 494 694 522 q 590 465 638 465 q 569 466 579 465 q 551 468 558 467 q 535 472 542 469 l 535 667 m 556 986 l 368 778 l 319 778 l 375 986 l 556 986 z "},"ř":{"ha":701,"x_min":56,"x_max":694,"o":"m 56 0 m 535 667 q 460 649 493 667 q 406 611 428 632 q 361 556 381 586 l 361 42 l 444 21 l 444 0 l 56 0 l 56 21 l 139 42 l 139 653 l 56 674 l 56 694 l 181 694 q 260 678 229 694 q 310 642 292 661 q 340 590 331 618 q 392 646 361 621 q 456 684 418 667 q 547 701 494 701 q 658 667 622 701 q 694 569 694 632 q 666 494 694 522 q 590 465 638 465 q 569 466 579 465 q 551 468 558 467 q 535 472 542 469 l 535 667 m 417 779 l 333 779 l 174 988 l 222 988 l 375 876 l 528 988 l 576 988 l 417 779 z "},"ŗ":{"ha":701,"x_min":56,"x_max":694,"o":"m 56 0 m 535 667 q 460 649 493 667 q 406 611 428 632 q 361 556 381 586 l 361 42 l 444 21 l 444 0 l 56 0 l 56 21 l 139 42 l 139 653 l 56 674 l 56 694 l 181 694 q 260 678 229 694 q 310 642 292 661 q 340 590 331 618 q 392 646 361 621 q 456 684 418 667 q 547 701 494 701 q 658 667 622 701 q 694 569 694 632 q 666 494 694 522 q 590 465 638 465 q 569 466 579 465 q 551 468 558 467 q 535 472 542 469 l 535 667 m 185 -381 q 236 -350 213 -369 q 275 -305 256 -333 q 303 -235 294 -276 q 288 -246 296 -240 q 247 -256 271 -256 q 178 -228 206 -256 q 150 -158 150 -200 q 178 -89 150 -117 q 247 -61 206 -61 q 323 -91 294 -61 q 351 -179 351 -121 q 327 -291 351 -247 q 275 -361 303 -335 q 199 -408 240 -392 l 185 -381 z "},"ś":{"ha":750,"x_min":63,"x_max":701,"o":"m 63 0 m 382 -21 q 294 -10 332 -21 q 228 17 256 1 q 174 56 196 33 q 149 28 163 40 q 125 8 136 15 q 97 -7 111 -1 l 63 -7 l 63 229 l 118 229 q 171 121 138 168 q 243 47 199 81 q 354 14 288 14 q 442 43 413 14 q 472 125 472 72 q 442 192 472 164 q 368 244 413 219 q 271 295 324 269 q 174 353 218 321 q 99 426 129 385 q 69 528 69 468 q 85 601 69 567 q 137 660 101 635 q 228 701 172 686 q 361 715 283 715 q 438 703 403 715 q 497 676 472 692 q 550 639 526 660 q 574 666 561 654 q 599 686 588 678 q 626 701 613 694 l 661 701 l 661 465 l 606 465 q 554 572 585 525 q 488 647 528 613 q 389 681 447 681 q 326 653 353 681 q 299 583 299 625 q 328 511 299 542 q 403 454 358 481 q 500 403 447 428 q 597 347 553 378 q 672 276 642 315 q 701 181 701 236 q 685 99 701 136 q 631 35 668 63 q 532 -6 593 8 q 382 -21 471 -21 m 524 986 l 336 778 l 288 778 l 343 986 l 524 986 z "},"ŝ":{"ha":750,"x_min":63,"x_max":701,"o":"m 63 0 m 382 -21 q 294 -10 332 -21 q 228 17 256 1 q 174 56 196 33 q 149 28 163 40 q 125 8 136 15 q 97 -7 111 -1 l 63 -7 l 63 229 l 118 229 q 171 121 138 168 q 243 47 199 81 q 354 14 288 14 q 442 43 413 14 q 472 125 472 72 q 442 192 472 164 q 368 244 413 219 q 271 295 324 269 q 174 353 218 321 q 99 426 129 385 q 69 528 69 468 q 85 601 69 567 q 137 660 101 635 q 228 701 172 686 q 361 715 283 715 q 438 703 403 715 q 497 676 472 692 q 550 639 526 660 q 574 666 561 654 q 599 686 588 678 q 626 701 613 694 l 661 701 l 661 465 l 606 465 q 554 572 585 525 q 488 647 528 613 q 389 681 447 681 q 326 653 353 681 q 299 583 299 625 q 328 511 299 542 q 403 454 358 481 q 500 403 447 428 q 597 347 553 378 q 672 276 642 315 q 701 181 701 236 q 685 99 701 136 q 631 35 668 63 q 532 -6 593 8 q 382 -21 471 -21 m 371 1014 l 572 785 l 524 785 l 371 882 l 218 785 l 169 785 l 371 1014 z "},"ș":{"ha":750,"x_min":63,"x_max":701,"o":"m 63 0 m 382 -21 q 294 -10 332 -21 q 228 17 256 1 q 174 56 196 33 q 149 28 163 40 q 125 8 136 15 q 97 -7 111 -1 l 63 -7 l 63 229 l 118 229 q 171 121 138 168 q 243 47 199 81 q 354 14 288 14 q 442 43 413 14 q 472 125 472 72 q 442 192 472 164 q 368 244 413 219 q 271 295 324 269 q 174 353 218 321 q 99 426 129 385 q 69 528 69 468 q 85 601 69 567 q 137 660 101 635 q 228 701 172 686 q 361 715 283 715 q 438 703 403 715 q 497 676 472 692 q 550 639 526 660 q 574 666 561 654 q 599 686 588 678 q 626 701 613 694 l 661 701 l 661 465 l 606 465 q 554 572 585 525 q 488 647 528 613 q 389 681 447 681 q 326 653 353 681 q 299 583 299 625 q 328 511 299 542 q 403 454 358 481 q 500 403 447 428 q 597 347 553 378 q 672 276 642 315 q 701 181 701 236 q 685 99 701 136 q 631 35 668 63 q 532 -6 593 8 q 382 -21 471 -21 m 326 -394 q 378 -364 354 -383 q 417 -319 397 -347 q 444 -249 436 -290 q 429 -260 438 -254 q 389 -269 413 -269 q 319 -242 347 -269 q 292 -172 292 -214 q 319 -103 292 -131 q 389 -75 347 -75 q 465 -105 436 -75 q 493 -193 493 -135 q 469 -305 493 -261 q 417 -375 444 -349 q 340 -422 382 -406 l 326 -394 z "},"ş":{"ha":750,"x_min":63,"x_max":701,"o":"m 338 -18 q 267 -1 297 -12 q 215 24 236 11 q 174 56 190 39 q 149 28 163 40 q 125 8 136 15 q 97 -7 111 -1 l 63 -7 l 63 229 l 118 229 q 171 121 138 168 q 243 47 199 81 q 354 14 288 14 q 442 43 413 14 q 472 125 472 72 q 442 192 472 164 q 368 244 413 219 q 271 295 324 269 q 174 353 218 321 q 99 426 129 385 q 69 528 69 468 q 85 601 69 567 q 137 660 101 635 q 228 701 172 686 q 361 715 283 715 q 438 703 403 715 q 497 676 472 692 q 550 639 526 660 q 574 666 561 654 q 599 686 588 678 q 626 701 613 694 l 661 701 l 661 465 l 606 465 q 554 572 585 525 q 488 647 528 613 q 389 681 447 681 q 326 653 353 681 q 299 583 299 625 q 328 511 299 542 q 403 454 358 481 q 500 403 447 428 q 597 347 553 378 q 672 276 642 315 q 701 181 701 236 q 685 99 701 136 q 631 35 668 63 q 533 -6 593 8 q 386 -21 474 -21 l 386 -69 q 483 -101 449 -69 q 518 -174 518 -132 q 482 -247 518 -215 q 372 -278 446 -278 q 343 -277 357 -278 q 318 -275 329 -276 q 294 -271 306 -274 l 294 -229 q 308 -236 300 -233 q 344 -243 322 -243 q 395 -224 376 -243 q 414 -174 414 -206 q 394 -123 414 -142 q 338 -104 374 -104 l 338 -18 z "},"ť":{"ha":757,"x_min":21,"x_max":736,"o":"m 21 0 m 118 764 q 243 889 118 889 l 340 889 l 340 694 l 535 694 l 535 660 l 340 660 l 340 236 q 348 125 340 168 q 369 57 356 82 q 401 23 382 32 q 444 14 421 14 q 490 26 468 14 q 531 60 513 38 q 559 117 549 83 q 569 194 569 150 l 604 194 q 552 35 604 90 q 417 -21 500 -21 q 291 -1 346 -21 q 197 53 236 18 q 138 135 158 88 q 118 236 118 182 l 118 660 l 21 660 l 21 694 l 118 694 l 118 764 m 569 569 q 621 600 597 581 q 660 645 640 617 q 688 715 679 674 q 672 704 681 710 q 632 694 656 694 q 563 722 590 694 q 535 792 535 750 q 563 861 535 833 q 632 889 590 889 q 708 859 679 889 q 736 771 736 829 q 712 659 736 703 q 660 589 688 615 q 583 542 625 558 l 569 569 z "},"ţ":{"ha":625,"x_min":21,"x_max":604,"o":"m 21 0 m 118 764 q 243 889 118 889 l 340 889 l 340 694 l 535 694 l 535 660 l 340 660 l 340 236 q 348 125 340 168 q 369 57 356 82 q 401 23 382 32 q 444 14 421 14 q 490 26 468 14 q 531 60 513 38 q 559 117 549 83 q 569 194 569 150 l 604 194 q 552 35 604 90 q 417 -21 500 -21 q 291 -1 346 -21 q 197 53 236 18 q 138 135 158 88 q 118 236 118 182 l 118 660 l 21 660 l 21 694 l 118 694 l 118 764 m 313 -401 q 364 -371 340 -390 q 403 -326 383 -354 q 431 -256 422 -297 q 415 -267 424 -261 q 375 -276 399 -276 q 306 -249 333 -276 q 278 -179 278 -221 q 306 -110 278 -137 q 375 -82 333 -82 q 451 -112 422 -82 q 479 -200 479 -142 q 455 -312 479 -268 q 403 -382 431 -356 q 326 -429 368 -412 l 313 -401 z "},"ú":{"ha":903,"x_min":35,"x_max":875,"o":"m 35 0 m 215 694 q 340 569 340 694 l 340 208 q 350 127 340 161 q 374 71 360 93 q 408 38 389 49 q 444 28 426 28 q 499 45 476 28 q 538 83 522 63 q 569 139 556 108 l 569 653 l 486 674 l 486 694 l 875 694 l 875 674 l 792 653 l 792 -7 l 778 -7 q 680 10 717 -7 q 624 49 643 28 q 590 104 600 74 q 544 42 572 68 q 482 -1 521 18 q 389 -21 443 -21 q 279 -1 329 -21 q 194 50 229 18 q 138 123 158 82 q 118 208 118 164 l 118 653 l 35 674 l 35 694 l 215 694 m 646 972 l 458 764 l 410 764 l 465 972 l 646 972 z "},"ŭ":{"ha":903,"x_min":35,"x_max":875,"o":"m 35 0 m 215 694 q 340 569 340 694 l 340 208 q 350 127 340 161 q 374 71 360 93 q 408 38 389 49 q 444 28 426 28 q 499 45 476 28 q 538 83 522 63 q 569 139 556 108 l 569 653 l 486 674 l 486 694 l 875 694 l 875 674 l 792 653 l 792 -7 l 778 -7 q 680 10 717 -7 q 624 49 643 28 q 590 104 600 74 q 544 42 572 68 q 482 -1 521 18 q 389 -21 443 -21 q 279 -1 329 -21 q 194 50 229 18 q 138 123 158 82 q 118 208 118 164 l 118 653 l 35 674 l 35 694 l 215 694 m 444 819 q 501 827 481 819 q 521 833 521 835 l 521 986 q 538 989 529 988 q 553 992 544 990 q 569 993 561 993 q 629 969 606 993 q 653 910 653 946 q 606 827 653 863 q 444 792 558 792 q 348 801 388 792 q 283 827 308 811 q 247 865 258 843 q 236 910 236 886 q 260 969 236 946 q 319 993 283 993 q 335 992 326 993 q 351 989 344 990 q 368 986 360 988 l 368 833 q 388 827 368 835 q 444 819 408 819 z "},"û":{"ha":903,"x_min":35,"x_max":875,"o":"m 35 0 m 215 694 q 340 569 340 694 l 340 208 q 350 127 340 161 q 374 71 360 93 q 408 38 389 49 q 444 28 426 28 q 499 45 476 28 q 538 83 522 63 q 569 139 556 108 l 569 653 l 486 674 l 486 694 l 875 694 l 875 674 l 792 653 l 792 -7 l 778 -7 q 680 10 717 -7 q 624 49 643 28 q 590 104 600 74 q 544 42 572 68 q 482 -1 521 18 q 389 -21 443 -21 q 279 -1 329 -21 q 194 50 229 18 q 138 123 158 82 q 118 208 118 164 l 118 653 l 35 674 l 35 694 l 215 694 m 458 1014 l 660 785 l 611 785 l 458 882 l 306 785 l 257 785 l 458 1014 z "},"ü":{"ha":903,"x_min":35,"x_max":875,"o":"m 35 0 m 215 694 q 340 569 340 694 l 340 208 q 350 127 340 161 q 374 71 360 93 q 408 38 389 49 q 444 28 426 28 q 499 45 476 28 q 538 83 522 63 q 569 139 556 108 l 569 653 l 486 674 l 486 694 l 875 694 l 875 674 l 792 653 l 792 -7 l 778 -7 q 680 10 717 -7 q 624 49 643 28 q 590 104 600 74 q 544 42 572 68 q 482 -1 521 18 q 389 -21 443 -21 q 279 -1 329 -21 q 194 50 229 18 q 138 123 158 82 q 118 208 118 164 l 118 653 l 35 674 l 35 694 l 215 694 m 232 896 q 260 965 232 938 q 329 993 288 993 q 399 965 371 993 q 426 896 426 938 q 399 826 426 854 q 329 799 371 799 q 260 826 288 799 q 232 896 232 854 m 489 896 q 517 965 489 938 q 586 993 544 993 q 656 965 628 993 q 683 896 683 938 q 656 826 683 854 q 586 799 628 799 q 517 826 544 799 q 489 896 489 854 z "},"ű":{"ha":903,"x_min":35,"x_max":875,"o":"m 35 0 m 215 694 q 340 569 340 694 l 340 208 q 350 127 340 161 q 374 71 360 93 q 408 38 389 49 q 444 28 426 28 q 499 45 476 28 q 538 83 522 63 q 569 139 556 108 l 569 653 l 486 674 l 486 694 l 875 694 l 875 674 l 792 653 l 792 -7 l 778 -7 q 680 10 717 -7 q 624 49 643 28 q 590 104 600 74 q 544 42 572 68 q 482 -1 521 18 q 389 -21 443 -21 q 279 -1 329 -21 q 194 50 229 18 q 138 123 158 82 q 118 208 118 164 l 118 653 l 35 674 l 35 694 l 215 694 m 496 986 l 343 778 l 294 778 l 357 986 l 496 986 m 676 986 l 524 778 l 475 778 l 538 986 l 676 986 z "},"ù":{"ha":903,"x_min":35,"x_max":875,"o":"m 35 0 m 215 694 q 340 569 340 694 l 340 208 q 350 127 340 161 q 374 71 360 93 q 408 38 389 49 q 444 28 426 28 q 499 45 476 28 q 538 83 522 63 q 569 139 556 108 l 569 653 l 486 674 l 486 694 l 875 694 l 875 674 l 792 653 l 792 -7 l 778 -7 q 680 10 717 -7 q 624 49 643 28 q 590 104 600 74 q 544 42 572 68 q 482 -1 521 18 q 389 -21 443 -21 q 279 -1 329 -21 q 194 50 229 18 q 138 123 158 82 q 118 208 118 164 l 118 653 l 35 674 l 35 694 l 215 694 m 424 986 l 479 778 l 431 778 l 243 986 l 424 986 z "},"ū":{"ha":903,"x_min":35,"x_max":875,"o":"m 35 0 m 215 694 q 340 569 340 694 l 340 208 q 350 127 340 161 q 374 71 360 93 q 408 38 389 49 q 444 28 426 28 q 499 45 476 28 q 538 83 522 63 q 569 139 556 108 l 569 653 l 486 674 l 486 694 l 875 694 l 875 674 l 792 653 l 792 -7 l 778 -7 q 680 10 717 -7 q 624 49 643 28 q 590 104 600 74 q 544 42 572 68 q 482 -1 521 18 q 389 -21 443 -21 q 279 -1 329 -21 q 194 50 229 18 q 138 123 158 82 q 118 208 118 164 l 118 653 l 35 674 l 35 694 l 215 694 m 264 835 l 264 897 l 625 897 l 625 835 l 264 835 z "},"ų":{"ha":903,"x_min":35,"x_max":875,"o":"m 215 694 q 340 569 340 694 l 340 208 q 350 127 340 161 q 374 71 360 93 q 408 38 389 49 q 444 28 426 28 q 499 45 476 28 q 538 83 522 63 q 569 139 556 108 l 569 653 l 486 674 l 486 694 l 875 694 l 875 674 l 792 653 l 792 0 q 725 -43 754 -18 q 680 -97 700 -65 q 660 -174 660 -129 q 715 -229 660 -229 q 740 -225 728 -229 q 760 -215 751 -221 q 778 -201 769 -210 l 778 -243 q 753 -254 767 -249 q 688 -264 726 -264 q 578 -233 614 -264 q 542 -160 542 -201 q 565 -92 542 -121 q 617 -42 588 -62 q 677 -11 647 -22 q 721 4 707 0 q 654 28 679 11 q 614 63 629 46 q 590 104 597 82 q 544 42 572 68 q 482 -1 521 18 q 389 -21 443 -21 q 279 -1 329 -21 q 194 50 229 18 q 138 123 158 82 q 118 208 118 164 l 118 653 l 35 674 l 35 694 l 215 694 z "}}}
